<svg width="59" height="59" viewBox="0 0 59 59" fill="none" xmlns="http://www.w3.org/2000/svg">
<path d="M27.708 0.595461C21.5351 1.08157 16.2128 3.15566 11.4171 6.95545C10.1695 7.94388 7.88507 10.2124 6.89676 11.4439C3.30805 15.9405 1.1856 21.1095 0.513227 26.9996C0.383612 28.1581 0.383612 31.9255 0.513227 33.076C1.24231 39.4441 3.66449 44.9291 7.81216 49.6606C10.2991 52.4962 13.256 54.7486 16.7718 56.4824C18.5135 57.3493 20.1337 57.9812 20.7412 58.046C21.3245 58.1109 21.8268 57.8759 22.1346 57.4141L22.3614 57.0657L22.3371 54.1085C22.3209 52.48 22.2966 51.1351 22.2966 51.127C22.2885 51.127 22.005 51.1756 21.6728 51.2485C21.2192 51.3458 20.6035 51.3782 19.2831 51.3782C17.1768 51.3782 16.7394 51.2891 15.3541 50.6004C14.6169 50.2358 14.4063 50.0819 13.7744 49.4418C13.013 48.6802 12.9481 48.5668 12.1219 46.7925C11.4009 45.2369 10.4774 44.0784 9.37564 43.3735C9.07591 43.1872 8.67896 42.8712 8.48454 42.6767C8.20101 42.3932 8.1443 42.2797 8.1605 42.0772C8.20101 41.664 8.57365 41.5263 9.52146 41.5668C11.2389 41.6478 12.6646 42.62 13.9932 44.6212C15.2974 46.5899 16.5855 47.4812 18.4487 47.708C19.4046 47.8295 20.5549 47.6756 21.6728 47.2786L22.4424 47.0031L22.5721 46.3955C22.8637 45.0263 23.3335 44.0297 24.0788 43.2358L24.2813 43.017L23.5604 42.9198C18.5459 42.2473 15.2164 40.4892 13.2722 37.5158C11.9841 35.5471 11.2875 33.2542 11.0525 30.1917C10.769 26.4729 11.5629 23.5724 13.5395 21.1095L13.977 20.5666L13.7825 19.8942C13.2317 17.9821 13.3208 15.5678 14.0256 13.4613C14.1471 13.1129 14.2848 12.7969 14.3334 12.7645C14.4873 12.6592 15.3865 12.6916 16.0832 12.8293C17.4766 13.0886 19.4046 13.9393 21.2921 15.1222L22.3209 15.7703L23.5523 15.4949C25.6909 15.0087 27.1653 14.8548 29.5713 14.8548C30.8107 14.8467 32.0258 14.8872 32.5281 14.952C33.6217 15.0817 35.4687 15.4138 36.295 15.6164L36.935 15.7703L37.9557 15.1384C40.3698 13.6233 42.4031 12.8293 44.08 12.724L44.9063 12.6754L45.0278 12.9103C45.2222 13.283 45.4734 14.1742 45.6597 15.1546C45.9756 16.7344 45.8784 18.6789 45.4329 20.1291L45.2952 20.5585L45.5544 20.8583C45.9837 21.3687 46.7776 22.5759 47.0855 23.1755C47.5067 24.0181 47.9685 25.5088 48.1305 26.5134C48.3006 27.6315 48.252 30.5806 48.0414 31.9012C47.1179 37.7103 43.999 41.0482 38.2149 42.4418C37.421 42.6281 35.3229 43.0008 35.0151 43.0008C34.9746 43.0008 35.1123 43.1953 35.3148 43.4221C35.9467 44.1432 36.4813 45.3261 36.7568 46.6062C36.8378 46.9788 36.8621 48.2913 36.8621 52.0749C36.8621 56.9523 36.8621 57.0657 37.0322 57.3412C37.3643 57.9164 38.0853 58.1757 38.8063 57.9974C39.4139 57.8435 41.0017 57.2034 42.2249 56.612C46.2592 54.6675 49.8317 51.7833 52.6427 48.186C55.4861 44.5402 57.5519 39.9383 58.3619 35.4255C58.7265 33.392 58.8075 32.3468 58.8075 29.9973C58.8075 27.6315 58.7184 26.5053 58.3619 24.569C57.3655 19.1488 54.7894 13.9879 51.0468 9.94505C50.6499 9.52375 50.2043 9.05384 50.0342 8.89991C49.8722 8.75407 49.5238 8.4219 49.2565 8.17074C48.4545 7.42536 48.2115 7.22282 47.1746 6.43693C42.0386 2.55612 35.8171 0.498238 29.4173 0.563053C28.6558 0.571155 27.8863 0.587359 27.708 0.595461Z" fill="black"/>
</svg>
