<svg width="59" height="77" viewBox="0 0 59 77" fill="none" xmlns="http://www.w3.org/2000/svg">
<path d="M2.26993 70.751L0.0026352 7.37438C-0.0722445 5.2813 1.45761 3.50744 3.45033 3.37679L54.8358 0.00764871C56.8642 -0.125342 58.6113 1.49181 58.738 3.61967C58.7428 3.69984 58.7452 3.78014 58.7452 3.86047V72.9205C58.7452 75.0525 57.0977 76.7808 55.0654 76.7808C55.0103 76.7808 54.9553 76.7795 54.9003 76.7769L5.78205 74.4626C3.86909 74.3725 2.34174 72.7584 2.26993 70.751Z" fill="#FF4785"/>
<mask id="mask0_2026_93" style="mask-type:luminance" maskUnits="userSpaceOnUse" x="0" y="0" width="59" height="77">
<path d="M2.26993 70.751L0.0026352 7.37438C-0.0722445 5.2813 1.45761 3.50744 3.45033 3.37679L54.8358 0.00764871C56.8642 -0.125342 58.6113 1.49181 58.738 3.61967C58.7428 3.69984 58.7452 3.78014 58.7452 3.86047V72.9205C58.7452 75.0525 57.0977 76.7808 55.0654 76.7808C55.0103 76.7808 54.9553 76.7795 54.9003 76.7769L5.78205 74.4626C3.86909 74.3725 2.34174 72.7584 2.26993 70.751Z" fill="white"/>
</mask>
<g mask="url(#mask0_2026_93)">
<path d="M43.3773 9.43734L43.7283 0.581416L50.7851 -0.000244141L51.0891 9.13256C51.0997 9.4504 50.8627 9.71706 50.5597 9.72816C50.4299 9.73292 50.3028 9.68928 50.2008 9.60501L47.4795 7.35609L44.2575 9.92005C44.016 10.1123 43.6717 10.0627 43.4884 9.80928C43.4113 9.70262 43.372 9.5711 43.3773 9.43734ZM34.3524 28.9395C34.3524 30.4414 43.9959 29.7216 45.2905 28.6666C45.2905 18.439 40.0592 13.0646 30.4799 13.0646C20.9006 13.0646 15.5335 18.5226 15.5335 26.7097C15.5335 40.9688 33.8768 41.2417 33.8768 49.0194C33.8768 51.2027 32.8578 52.4989 30.6158 52.4989C27.6944 52.4989 26.5395 50.9338 26.6754 45.6122C26.6754 44.4578 15.5335 44.0979 15.1938 45.6122C14.3288 58.5083 21.9876 62.2281 30.7517 62.2281C39.244 62.2281 45.9019 57.4794 45.9019 48.883C45.9019 33.6005 27.2868 34.0098 27.2868 26.4368C27.2868 23.3667 29.4608 22.9573 30.7517 22.9573C32.1104 22.9573 34.5562 23.2085 34.3524 28.9395Z" fill="white"/>
</g>
</svg>
