<svg width="101" height="101" viewBox="0 0 101 101" fill="none" xmlns="http://www.w3.org/2000/svg">
<g clip-path="url(#clip0_2025_1903)">
<g filter="url(#filter0_d_2025_1903)">
<rect x="10" y="15" width="84" height="80" fill="white"/>
</g>
<path d="M100.874 100.874V0.125977H0.125977V100.874H100.874ZM39.8701 86.4814C39.7613 86.4814 39.6715 86.4056 39.6123 86.3359C39.5478 86.26 39.491 86.1588 39.4492 86.0479C39.4125 85.9551 39.3216 85.6295 39.1855 85.1162C39.0479 84.5971 38.8613 83.8753 38.6338 82.9805C38.1787 81.1905 37.5578 78.7061 36.8281 75.7627C35.3687 69.8757 33.4738 62.1493 31.6006 54.459C29.7274 46.7688 27.8752 39.114 26.501 33.3691C25.8139 30.4968 25.2467 28.1015 24.8555 26.418C24.6599 25.5764 24.5086 24.9122 24.4082 24.4551C24.3581 24.2267 24.3198 24.0492 24.2959 23.9268C24.2841 23.8661 24.2758 23.8173 24.2705 23.7822C24.2679 23.7651 24.2656 23.7482 24.2646 23.7344C24.2642 23.7278 24.2641 23.7181 24.2646 23.708C24.265 23.7027 24.2663 23.6922 24.2676 23.6855C24.2698 23.6765 24.2785 23.6558 24.2871 23.6406L24.2861 23.6396C24.2874 23.6377 24.2887 23.6357 24.29 23.6338V23.6348C24.3333 23.5727 24.3992 23.5286 24.4678 23.4971C24.5397 23.464 24.625 23.4393 24.7178 23.4238C24.9038 23.3928 25.1331 23.3938 25.3721 23.4336H25.373C25.4341 23.4444 25.6847 23.511 26.0928 23.6221C26.5057 23.7344 27.0889 23.8952 27.8223 24.0996C29.2889 24.5084 31.3588 25.0904 33.8789 25.8037C38.9196 27.2304 45.7629 29.1808 53.1865 31.3145L53.1855 31.3154C70.8083 36.3649 79.1745 38.7506 83.1338 39.9473C85.1088 40.5442 85.9985 40.8481 86.3926 41.041C86.4921 41.0898 86.5669 41.1352 86.6211 41.1797C86.6758 41.2247 86.7156 41.2745 86.7354 41.334C86.7548 41.3929 86.7494 41.4463 86.7441 41.4814C86.7381 41.5218 86.7334 41.5377 86.7334 41.5615C86.7334 41.5922 86.7224 41.6155 86.7197 41.6211C86.7152 41.6307 86.71 41.6395 86.7061 41.6455C86.6981 41.6578 86.688 41.6708 86.6777 41.6836C86.6567 41.71 86.6272 41.7448 86.5898 41.7861C86.5145 41.8696 86.4031 41.9875 86.2588 42.1367C85.9698 42.4356 85.544 42.865 84.9971 43.4102C83.903 44.5007 82.3208 46.056 80.3701 47.9609C76.4687 51.7708 71.0902 56.9788 65.1816 62.6602C54.8928 72.5451 48.6812 78.4922 44.9941 81.9678C43.1509 83.7053 41.9376 84.8269 41.1611 85.5137C40.7732 85.8568 40.4916 86.093 40.2949 86.2441C40.1972 86.3192 40.1177 86.3753 40.0547 86.4131C40.0232 86.432 39.9925 86.4485 39.9648 86.46C39.9523 86.4651 39.9377 86.4706 39.9219 86.4746L39.8701 86.4814Z" fill="black" stroke="black" stroke-width="0.2525"/>
<path d="M25.7578 25.2754C25.7578 26.0582 28.6868 37.0419 29.0403 37.6227C29.2676 38.0014 31.7926 35.8047 36.2366 31.3102C38.1051 29.4164 38.6858 28.7094 38.4081 28.5579C38.0293 28.3307 27.8536 25.3512 26.5911 25.0987C25.9851 24.9724 25.7578 25.0229 25.7578 25.2754Z" fill="black"/>
<path d="M41.4102 30.0981C41.4102 30.9313 44.1119 41.6878 44.3897 41.9656C44.5917 42.1676 51.0557 36.3601 53.1514 34.1128C53.8584 33.3553 53.8837 33.2796 53.4797 32.9766C53.0252 32.6483 43.6827 29.8456 42.2434 29.6183C41.4859 29.4921 41.4102 29.5426 41.4102 30.0981Z" fill="black"/>
<path d="M34.6942 34.4921C32.1187 36.9413 30.0735 38.9866 30.124 39.0623C30.225 39.1633 40.7037 42.1428 42.2692 42.5216C43.0015 42.6983 43.0015 42.6983 42.85 41.7388C42.749 41.2086 42.0925 38.3553 41.3855 35.4011C40.4765 31.7398 39.9715 30.0481 39.719 30.0481C39.5422 30.0481 37.2697 32.0428 34.6942 34.4921Z" fill="black"/>
<path d="M56.5605 34.3401C56.5605 35.0218 59.3633 46.2833 59.5905 46.5358C59.6915 46.6621 61.9388 44.6673 64.6153 42.1423C67.2665 39.5921 69.3623 37.4458 69.2613 37.3701C69.034 37.1681 57.318 33.8351 56.8635 33.8351C56.712 33.8351 56.5605 34.0623 56.5605 34.3401Z" fill="black"/>
<path d="M52.7479 36.2085C49.7684 38.8345 45.3497 43.3542 45.6022 43.5057C45.8799 43.6572 53.2529 45.753 55.5507 46.3337C56.4597 46.561 57.3939 46.8135 57.6717 46.8892C58.1009 47.0155 58.1262 46.9145 57.9747 45.8792C57.7222 44.1622 55.3234 34.7692 55.0962 34.542C54.9699 34.4157 53.9094 35.1732 52.7479 36.2085Z" fill="black"/>
<path d="M71.7109 38.4306C71.7109 38.9608 74.6652 50.7526 74.8167 50.9293C74.9177 51.0051 75.2964 50.8788 75.6752 50.6263C76.6347 49.9951 84.7399 41.9908 84.5884 41.8141C84.4369 41.6878 72.2664 38.1276 71.9129 38.1276C71.8119 38.1276 71.7109 38.2791 71.7109 38.4306Z" fill="black"/>
<path d="M66.1794 42.2686C61.9627 46.3086 60.7002 47.6721 60.9527 47.8993C61.1042 48.0761 71.0779 50.9041 72.3909 51.1566C73.1484 51.3081 73.2242 51.2576 73.2242 50.7273C73.2242 49.3133 70.5224 38.6326 70.1689 38.6326C70.0427 38.6326 68.2499 40.2738 66.1794 42.2686Z" fill="black"/>
<path d="M29.541 40.5015C29.541 40.956 32.2175 51.7377 32.5458 52.5962C32.7983 53.2527 32.8488 53.278 33.3538 52.9245C34.3385 52.2427 41.964 45.0717 42.2165 44.592C42.57 43.9607 42.4943 43.9355 37.7725 42.5215C30.5005 40.3752 29.541 40.148 29.541 40.5015Z" fill="black"/>
<path d="M45.1973 45.425C45.1973 46.0562 47.6213 55.828 48.0505 56.838L48.3788 57.646L53.1005 53.1767C55.7013 50.7022 57.8223 48.5812 57.8223 48.4802C57.8223 48.2277 56.5345 47.8237 50.2725 46.0815C45.576 44.7937 45.1973 44.7432 45.1973 45.425Z" fill="black"/>
<path d="M40.0962 48.3282C35.5512 52.5702 33.7332 54.4387 34.0362 54.6407C34.4654 54.8932 45.7017 58.0747 46.2067 58.0747C46.5602 58.0747 46.7117 57.898 46.7117 57.5445C46.7117 56.7112 43.9089 45.475 43.6817 45.3235C43.5554 45.2477 41.9394 46.586 40.0962 48.3282Z" fill="black"/>
<path d="M60.3477 49.768C60.3477 50.98 63.3272 62.1152 63.6554 62.1152C63.9332 62.1152 73.5282 52.9747 73.3767 52.8485C73.2504 52.697 61.0294 49.2377 60.6759 49.2377C60.4992 49.2377 60.3477 49.465 60.3477 49.768Z" fill="black"/>
<path d="M53.7305 54.2872C50.2713 57.6959 49.1855 58.8827 49.4633 59.0342C49.9935 59.4129 61.8358 62.7207 62.0125 62.5692C62.0883 62.4682 61.5075 59.8169 60.75 56.6354C59.9673 53.4792 59.2855 50.6259 59.2098 50.2977C59.134 49.9947 58.9068 49.7422 58.7048 49.7422C58.5028 49.7422 56.2555 51.7874 53.7305 54.2872Z" fill="black"/>
<path d="M33.6086 56.7365C33.6338 57.9485 36.4618 68.503 36.7901 68.604C37.0931 68.705 45.2993 60.8523 45.7286 60.019C45.8801 59.7665 45.9306 59.4888 45.8548 59.413C45.6528 59.211 34.5681 56.08 34.0378 56.0548C33.7096 56.0548 33.5833 56.2568 33.6086 56.7365Z" fill="black"/>
<path d="M48.9844 60.9034C49.0096 62.0396 51.9134 73.0991 52.2164 73.0991C52.6204 73.0991 61.3569 64.6656 61.3569 64.2616C61.3569 64.0849 60.8266 63.7566 60.1701 63.5294C58.4531 62.9739 49.4136 60.3479 49.1864 60.3479C49.0854 60.3479 48.9844 60.6004 48.9844 60.9034Z" fill="black"/>
<path d="M43.8856 63.7311C40.2244 67.1398 37.7246 69.6396 37.9014 69.7911C38.2296 70.0941 49.2639 73.2251 50.0466 73.2251C50.2991 73.2251 50.5011 73.0483 50.5011 72.8211C50.5011 72.5938 49.8699 69.8163 49.0871 66.6348C48.1024 62.5948 47.5721 60.8526 47.3449 60.8526C47.1429 60.8526 45.6026 62.1403 43.8856 63.7311Z" fill="black"/>
<path d="M37.3672 71.7603C37.3672 72.0633 38.0237 74.9418 38.8064 78.199C39.9679 82.9713 40.3214 84.0823 40.6749 84.0823C41.0537 84.0823 49.5882 76.1285 50.0932 75.2953C50.2194 75.068 50.1942 74.866 49.9922 74.7398C49.5882 74.4873 38.1247 71.2048 37.6702 71.2048C37.5187 71.2048 37.3672 71.4573 37.3672 71.7603Z" fill="black"/>
</g>
<defs>
<filter id="filter0_d_2025_1903" x="6" y="15" width="92" height="88" filterUnits="userSpaceOnUse" color-interpolation-filters="sRGB">
<feFlood flood-opacity="0" result="BackgroundImageFix"/>
<feColorMatrix in="SourceAlpha" type="matrix" values="0 0 0 0 0 0 0 0 0 0 0 0 0 0 0 0 0 0 127 0" result="hardAlpha"/>
<feOffset dy="4"/>
<feGaussianBlur stdDeviation="2"/>
<feComposite in2="hardAlpha" operator="out"/>
<feColorMatrix type="matrix" values="0 0 0 0 0 0 0 0 0 0 0 0 0 0 0 0 0 0 0.25 0"/>
<feBlend mode="normal" in2="BackgroundImageFix" result="effect1_dropShadow_2025_1903"/>
<feBlend mode="normal" in="SourceGraphic" in2="effect1_dropShadow_2025_1903" result="shape"/>
</filter>
<clipPath id="clip0_2025_1903">
<rect width="101" height="101" fill="white"/>
</clipPath>
</defs>
</svg>
