<svg width="729" height="618" viewBox="0 0 729 618" fill="none" xmlns="http://www.w3.org/2000/svg">
<path d="M377.5 0.100214C351.9 1.40021 328.1 5.90021 305.5 13.7002C284.1 21.0002 276.8 24.5002 249.9 40.0002C248.9 40.6002 247.2 41.8002 246.2 42.7002C245.2 43.7002 244 44.4002 243.6 44.4002C242.1 44.4002 225.9 57.0002 217.1 64.9002C202.9 77.7002 186.1 96.6002 177.6 109.4C171.8 118.2 166.8 126 164.1 130.5C160.3 136.8 150.8 157.1 146.7 167.6C140.6 182.8 134.6 207.3 132.5 224.9C130.6 240.4 129.9 269.3 131.1 279.4C132 287.5 134 301.2 134.6 303.9C134.8 305 135.4 308.1 135.9 310.9C137 317 139.8 328.2 141 330.9C141.4 332 142.6 335.4 143.5 338.4C145.1 343.5 147.1 348.9 149 353.9C149.5 355 152.3 361.1 155.3 367.4C158.3 373.7 161 379.6 161.4 380.4C163 384.2 184.2 415.4 185.2 415.4C185.6 415.4 186 415.9 186 416.4C186 417 188.4 419.9 191.3 423C194.1 426.1 196.4 429 196.3 429.5C196.1 430 196.4 430.4 196.8 430.4C197.3 430.4 201.7 434.3 206.7 439.1C211.7 444 217.9 449.7 220.5 451.9C223 454.1 226.3 456.9 227.8 458.2C229.2 459.4 231.8 461.4 233.7 462.5C235.5 463.6 237 464.9 237 465.4C237 465.9 239.5 467.5 242.5 469C245.5 470.6 248 472.1 248 472.5C248 472.9 250.4 474.4 253.3 475.9C256.1 477.4 259.2 479.2 260 479.8C262.2 481.6 284.6 492.4 290.5 494.4C316.6 503.7 327.8 506.7 348.5 510C371.1 513.5 407.6 512.8 429 508.4C434.2 507.3 439.7 506.4 441.2 506.4C442.7 506.4 444.2 505.9 444.5 505.4C444.8 504.8 446.1 504.4 447.3 504.4C452.9 504.4 476.6 495.9 495 487.2C504.6 482.7 504.4 482.8 512.4 477.9C515.6 475.9 518.9 474.5 519.7 474.8C520.4 475.1 521 474.7 521 473.8C521 473 522.1 471.8 523.5 471.2C524.9 470.6 526 469.7 526 469.3C526 468.9 527 468.2 528.2 467.8C529.4 467.5 530.8 466.8 531.4 466.3C532 465.8 535 463.5 538 461.2C541 458.9 543.7 456.7 543.8 456.2C544 455.8 544.6 455.4 545.2 455.4C545.7 455.4 548.3 453.4 550.9 450.9C553.4 448.5 556.9 445.4 558.5 444.2C562.9 440.9 575 428.6 575 427.5C575 427 576.2 426.4 577.7 426.2C579.9 426 580.7 425.2 581.5 422.3C582 420.3 583.2 418.1 584 417.2C584.8 416.4 587.3 413.2 589.5 410.1C591.7 407 595.2 402.1 597.3 399.2C599.3 396.4 601 393.5 601 392.9C601 392.3 601.9 390.8 603.1 389.6C604.2 388.3 606.7 384.3 608.6 380.6C610.6 376.9 613 372.3 614 370.4C615.7 367.3 617.3 364 623.3 350.4C624.2 348.5 625.8 343.7 627.1 339.9C628.3 336 630.3 329.7 631.6 325.9C634.2 318 638.9 296.4 639.6 288.9C639.9 286.1 640.5 280.2 640.9 275.7C643.5 250.3 640.6 213.7 634.4 191.4C632.9 186 626.6 167.1 623 156.8C618.5 144 598.2 107.6 594.3 105.1C593.6 104.7 593 103.8 593 103.2C593 101.3 578.9 85.3002 566.4 72.9002C548.2 55.0002 544.8 52.3002 521.5 37.1002C499.6 22.9002 466.1 10.4002 432.5 3.90021C420.7 1.70021 389.6 -0.499786 377.5 0.100214ZM416 10.4002C421.8 10.9002 432.5 12.7002 439.9 14.3002C452.7 17.2002 472.4 22.9002 474.5 24.4002C475.1 24.8002 477.8 25.9002 480.5 26.9002C487.9 29.5002 503.9 36.8002 508.5 39.6002C511.1 41.2002 520.4 47.0002 525.5 50.3002C530.8 53.7002 540.6 61.0002 545.5 65.2002C553 71.7002 568.5 87.0002 572.5 92.0002C574.7 94.7002 577 97.3002 577.6 97.9002C580.4 100.4 598 125.4 598 126.9C598 127.2 599.5 129.8 601.3 132.7C607.7 142.8 618 166.3 622 179.9C631.1 210.9 633.6 229.4 632.7 261.3C632.1 284.3 630.8 293.5 625.1 316.1C620.5 334.1 616.9 343.8 606.6 365.4C599.9 379.5 583.2 405.4 575.9 412.9C574.9 414 571.9 417.4 569.3 420.4C559.4 431.7 539 450.4 536.5 450.4C536.1 450.4 534.6 451.6 533.1 453.1C531.6 454.7 528.4 457.2 525.9 458.8C523.5 460.5 520.6 462.6 519.5 463.5C516.6 465.9 486.6 481.6 479.5 484.3C476.2 485.6 472.1 487.3 470.5 488.1C468.8 488.8 464.3 490.3 460.5 491.5C428.6 500.9 415.5 502.9 385.5 502.9C362.4 502.9 354.8 502.1 333 497.7C324 495.9 310.7 492.1 302.5 488.9C299.2 487.6 295.4 486.2 294.1 485.9C283.9 482.9 246 461.9 246 459.2C246 458.7 247.1 458.4 248.4 458.4C252.4 458.4 253.8 457.4 259 450.9C263 445.8 264.4 444.7 266.2 445.2C268.1 445.7 268.2 445.4 267.6 442.9C267 440.7 267.6 439 270.5 434.7C273.4 430.3 273.9 429 272.9 427.8C272.3 427 270.9 426.4 269.9 426.4C268.8 426.4 268 426 268 425.5C268 423.5 264.7 421.4 261.4 421.4C255.2 421.4 246 432.3 246 439.8C246 443.1 247.6 446.4 249.3 446.4C251.5 446.4 253.1 448 252.5 449.7C251 453.3 246 452.3 246 448.3C246 447.3 245.1 446 243.9 445.4C240.7 443.6 238.7 445.9 239.3 450.6C239.6 452.7 239.5 454.4 239 454.4C237.9 454.4 229 447.6 223.7 442.5C203.8 423.7 191.3 409.6 183.5 397.3C183 396.4 180.7 393.1 178.5 389.8C172.6 381.1 163.1 363.6 160.4 356.9C159.8 355.2 157.9 350.5 156.2 346.4C151.9 335.4 147.1 319.6 145.1 309.4C144.5 306.4 143.3 300.4 142.5 296.1C140.2 284.2 139 257.7 140 241.2C142.2 206.9 149.9 178.3 164.9 148.4C173.4 131.6 173.5 131.5 179.3 122.6C193.8 100.2 217 75.0002 237 59.7002C246.3 52.6002 261.8 42.8002 273.5 36.6002C279.3 33.6002 290.8 28.4002 291.8 28.4002C292.2 28.4002 294.6 27.5002 296.9 26.3002C301.3 24.2002 314.1 19.7002 319.5 18.4002C321.2 17.9002 325.1 16.9002 328.4 16.0002C353.2 9.30021 381.7 7.50021 416 10.4002ZM262.4 428C266.6 429.6 260.7 441.4 255.8 441.4C251.6 441.4 252.3 435.6 257 430.6C260.4 427.1 260.2 427.2 262.4 428Z" fill="black"/>
<path d="M364.5 18.4002C364.2 19.0002 364.2 22.5002 364.6 26.3002L365.2 33.2002L360.7 33.9002C355.2 34.7002 354 34.1002 354 30.6002C354 29.1002 353.7 26.2002 353.4 24.1002C352.8 20.8002 352.4 20.4002 349.9 20.4002C346.4 20.4002 346.4 20.5002 348.5 38.9002C351 60.3002 350.7 59.4002 354.2 59.4002H357.3L356.6 50.4002L355.9 41.4002L360 41.2002C362.2 41.2002 364.6 41.1002 365.3 41.0002C366.1 40.9002 366.9 43.4002 367.5 48.1002C368.7 56.5002 369.8 58.1002 373 56.4002C374.6 55.5002 375 54.6002 374.6 52.6002C374.3 51.1002 373.6 45.4002 373 39.9002C372.4 34.4002 371.4 27.1002 370.8 23.6002C369.9 18.1002 369.5 17.4002 367.5 17.4002C366.2 17.4002 364.8 17.9002 364.5 18.4002Z" fill="black"/>
<path d="M397.999 18.9003C397.999 19.9003 397.299 28.6003 396.399 38.1003C395.499 47.7003 394.899 55.7003 395.199 55.9003C395.799 56.6003 401.199 57.2003 408.899 57.6003C416.299 57.9003 416.299 57.9003 417.099 55.2003C417.499 53.6003 417.399 52.2003 416.899 51.8003C416.399 51.5003 412.799 51.0003 408.999 50.7003L401.899 50.1003L402.199 45.5003L402.499 40.9003L408.499 40.8003C411.799 40.7003 415.099 40.6003 415.799 40.5003C416.399 40.4003 416.999 39.1003 416.999 37.4003C416.999 34.2003 415.999 33.7003 408.499 33.2003C404.699 32.9003 404.499 32.7003 404.199 29.5003C403.999 27.6003 404.299 25.8003 404.899 25.5003C405.399 25.1003 408.899 25.1003 412.499 25.4003C416.099 25.7003 419.299 25.8003 419.599 25.5003C419.799 25.3003 419.999 23.8003 419.999 22.3003C419.999 18.9003 419.299 18.7003 407.299 17.8003C398.799 17.2003 397.999 17.3003 397.999 18.9003Z" fill="black"/>
<path d="M432.1 25.1002C426.9 44.6002 424 57.8002 424.4 59.1002C424.7 59.9002 425.9 60.4002 427.1 60.2002C428.9 60.0002 429.6 58.6002 431 53.4002C432 49.8002 433.1 45.2002 433.5 43.0002C433.8 40.8002 434.5 39.5002 435 40.0002C435.8 40.8002 438.2 50.8002 439.9 60.4002C440.4 63.4002 441 63.9002 443.6 64.2002L446.6 64.5002L450.8 47.2002C453.2 37.7002 455 29.1002 455 28.1002C455 27.0002 454.2 26.4002 452.5 26.4002C450.5 26.4002 449.9 27.1002 449 30.6002C446.9 39.3002 444.9 45.4002 444.1 45.4002C443.7 45.4002 442.3 40.6002 441.1 34.7002C438.9 23.3002 438.7 23.0002 435.3 22.0002C433.4 21.4002 433 21.8002 432.1 25.1002Z" fill="black"/>
<path d="M317.901 27.7002C314.401 30.6002 313.501 35.2002 315.401 39.9002C317.501 44.9002 320.601 47.1002 326.501 47.9002C334.001 48.9002 334.701 49.2002 335.501 52.1002C336.801 57.5002 328.701 59.6002 325.201 54.7002C323.301 52.1002 323.201 52.0002 320.601 53.7002C318.101 55.4002 318.001 55.6002 319.501 58.4002C321.701 62.7002 324.801 64.4002 330.301 64.4002C339.201 64.4002 343.701 58.7002 341.801 49.9002C340.501 43.9002 337.601 41.6002 329.601 40.2002C322.101 38.8002 319.601 36.8002 321.901 34.0002C323.601 31.9002 326.901 32.0002 329.101 34.0002C331.401 36.1002 336.001 35.1002 336.001 32.6002C336.001 31.6002 334.701 29.6002 333.201 28.1002C329.501 24.5002 321.901 24.3002 317.901 27.7002Z" fill="black"/>
<path d="M470 37.9002C462.6 43.4002 457.2 55.5002 458.5 63.6002C459.4 68.5002 463.6 72.9002 468.8 74.3002C475.4 76.1002 478.9 74.7002 482.3 68.8002C486.1 62.4002 486.4 58.4002 483 56.8002C481.6 56.1002 479.3 55.2002 477.8 54.9002C475.5 54.3002 474.9 54.6002 473.8 56.9002C472.7 59.4002 472.8 59.8002 475.3 61.6002C477.5 63.2002 477.8 63.9002 477 65.5002C475.5 68.2002 469.7 68.1002 466.9 65.3002C465.1 63.5002 464.8 62.4002 465.4 58.1002C466.2 51.3002 470.5 44.3002 474.7 43.0002C478.9 41.9002 483 44.3002 483 47.9002C483 50.6002 486 52.7002 488.4 51.8002C490.7 50.9002 490.4 44.6002 488 40.7002C484.7 35.2002 475.6 33.8002 470 37.9002Z" fill="black"/>
<path d="M286 39.3002C278.1 42.7002 277.8 43.8002 281.8 52.6002C284.8 58.9002 289.4 69.0002 292.1 75.1002C293.6 78.6002 296 79.3002 297.9 77.0002C298.9 75.9002 298.6 74.2002 296.5 69.0002C292.4 58.8002 294.4 57.9002 304.3 65.4002C309.9 69.6002 311.3 70.3002 314 69.8002C315.7 69.4002 317.3 68.8002 317.6 68.3002C317.8 67.8002 314.9 64.9002 311 61.7002C306.2 57.7002 304.2 55.5002 304.6 54.4002C306.9 48.6002 305.1 41.0002 300.8 38.0002C297.6 35.7002 293.4 36.1002 286 39.3002ZM297.2 45.1002C300 47.6002 299.5 51.1002 296 52.9002C292.3 54.8002 291 54.8002 289.4 52.6002C287 49.5002 287.7 46.4002 291.3 44.9002C295.3 43.1002 295 43.1002 297.2 45.1002Z" fill="black"/>
<path d="M494.8 64.3002C489.4 73.0002 485 80.6002 485 81.1002C485 82.2002 500 91.4002 501.8 91.4002C502.9 91.4002 505 88.3002 505 86.7002C505 86.3002 502.5 84.3002 499.5 82.4002C496.5 80.5002 494.1 78.5002 494 78.1002C494 77.7002 496.6 73.2002 499.8 68.1002C511 50.3002 510.5 51.5002 508.4 49.9002C507.3 49.1002 506.1 48.5002 505.5 48.4002C505 48.4002 500.1 55.6002 494.8 64.3002Z" fill="black"/>
<path d="M254.7 57.2002C252.9 59.2002 253 60.0002 258.5 77.4002C260.6 83.7002 262.6 90.4002 263 92.2002C264.1 96.6002 264.5 96.9002 267.6 95.5002C270 94.5002 270.1 94.0002 269.5 90.6002C269.1 88.6002 268.8 86.5002 268.7 86.0002C268.6 85.5002 270.4 83.8002 272.7 82.1002L276.9 79.1002L280.5 81.9002C283.8 84.3002 284.4 84.5002 286.6 83.4002C289.6 81.7002 289.7 80.1002 286.8 78.2002C285.5 77.3002 278.9 71.9002 272 66.0002C265.1 60.2002 258.8 55.4002 257.9 55.4002C257 55.4002 255.6 56.2002 254.7 57.2002ZM267.9 70.8002L271.2 74.2002L268.9 75.8002C265.9 77.8002 264.2 76.4002 263.3 71.1002C262.6 66.5002 263.7 66.4002 267.9 70.8002Z" fill="black"/>
<path d="M521.501 74.0002C517.701 79.2002 512.501 86.0002 510.101 89.0002C505.801 94.3002 505.801 94.5002 507.501 96.4002C508.501 97.5002 509.801 98.4002 510.401 98.4002C511.001 98.3002 513.201 96.0002 515.301 93.1002C517.401 90.2002 522.401 83.4002 526.501 78.0002C530.601 72.5002 534.001 67.7002 534.001 67.3002C534.001 66.4002 530.601 64.4002 529.301 64.4002C528.901 64.5002 525.401 68.8002 521.501 74.0002Z" fill="black"/>
<path d="M362.901 70.9002C321.001 76.0002 279.201 97.4002 250.801 128.5C238.901 141.5 236.801 144.2 226.201 160.9C224.001 164.4 212.401 188.7 210.701 193.4C209.801 195.9 207.501 204.4 205.601 212.4C197.701 244.5 198.401 275.8 207.601 308.4C212.701 326.4 220.101 343.4 228.101 355.2C229.701 357.6 231.001 359.7 231.001 360C231.001 361 248.301 382.6 250.101 383.7C251.101 384.3 252.001 385.3 252.101 385.9C252.101 386.4 257.201 391.3 263.301 396.6C274.801 406.5 290.401 417.5 299.501 421.8C302.201 423.1 306.501 425.2 309.001 426.4C313.801 428.7 326.201 433.2 334.501 435.7C364.801 444.8 407.201 444.8 437.501 435.7C455.101 430.5 478.301 419.5 489.501 411.3C491.701 409.7 496.701 406 500.501 403.2C510.201 396 527.101 378.8 535.801 367.2C539.701 361.9 543.001 357.1 543.001 356.5C543.001 355.9 543.401 355.4 543.801 355.4C545.301 355.4 555.901 334.8 560.401 323.2C568.201 302.8 571.101 290.3 573.001 267.9C574.401 252.5 573.301 233.1 570.401 219.4C569.601 215.8 568.601 210.9 568.001 208.4C565.401 195.3 554.201 168.8 546.801 158.2C545.801 156.8 545.001 155.2 545.001 154.7C545.001 154.1 544.101 152.9 543.001 151.9C541.901 150.9 541.001 149.5 541.001 148.7C541.001 148 540.601 147.4 540.201 147.4C539.701 147.4 538.901 146.6 538.401 145.5C537.201 143 531.801 136.5 524.301 128.3C511.201 114.1 496.801 102.6 482.001 94.6002C480.101 93.6002 476.401 91.5002 473.801 90.1002C465.501 85.4002 447.201 78.4002 435.201 75.4002C412.101 69.6002 386.901 68.0002 362.901 70.9002ZM380.001 79.0002C380.001 79.6002 375.701 87.6002 371.001 95.9002C364.301 107.7 351.801 129.5 345.201 140.9C341.101 148 336.401 156.1 334.901 158.9C332.501 163.3 331.701 164 328.301 164.4C326.201 164.7 304.301 165.1 279.601 165.3L234.801 165.6L235.501 163.3C236.601 160 244.301 149.1 251.301 140.9C276.801 111.3 309.301 91.6002 348.001 82.2002C359.801 79.3002 380.001 77.3002 380.001 79.0002ZM424.301 81.5002C449.501 86.6002 478.101 99.9002 498.701 116.2C512.101 126.8 530.401 146.9 536.301 157.5L538.801 162.2L520.701 162.8C510.701 163.2 488.601 163.3 471.601 163.2L440.701 162.9L429.701 143.9C423.701 133.4 416.601 121.3 414.101 116.9C411.601 112.5 409.101 108.1 408.501 107.2C408.001 106.3 405.801 102.5 403.601 98.7002C401.501 95.0002 398.501 89.9002 397.001 87.4002C395.501 84.9002 393.901 81.8002 393.501 80.5002L392.801 78.1002L403.601 78.8002C409.601 79.2002 418.901 80.4002 424.301 81.5002ZM389.301 89.6002C391.801 94.4002 395.301 100.3 398.301 105.1C399.801 107.5 401.001 109.6 401.001 109.8C401.001 110.1 403.001 113.6 405.301 117.6C417.501 138.1 421.601 145 422.101 146.4C422.501 147.2 424.801 151.2 427.401 155.3C429.901 159.4 431.701 163.1 431.401 163.5C430.701 164.7 342.001 164.7 342.001 163.4C342.001 162.1 348.801 149.3 350.601 147.3C351.401 146.5 352.001 145.5 352.001 145.2C352.001 144.9 353.501 142 355.401 138.7C357.201 135.5 362.201 126.8 366.501 119.4C370.801 112 376.001 103 378.001 99.4002C386.501 84.3002 386.501 84.3002 389.301 89.6002ZM547.501 177.3C555.201 192.7 562.101 215.9 563.801 232.4C565.201 245.4 564.601 273.4 562.701 284.4C560.701 295.7 560.701 295.8 555.601 311.4C551.901 322.5 545.401 337.4 544.201 337.4C543.301 337.4 539.201 330.7 525.001 305.9C524.001 304.2 520.201 297.7 516.501 291.4C512.701 285.1 506.501 274.5 502.701 267.9C498.801 261.3 495.201 255.1 494.601 254.2C493.801 252.9 494.001 252 495.301 250.6C496.201 249.6 497.001 248.4 497.001 247.9C497.001 247.5 499.001 243.8 501.501 239.7C504.001 235.7 506.001 232.1 506.001 231.8C506.001 231.6 507.901 228.1 510.301 224.1C518.501 210.5 525.801 197.9 533.001 184.9C541.301 170 541.901 169.2 543.101 170C543.601 170.3 545.601 173.6 547.501 177.3ZM531.001 172.2C531.001 173.2 530.601 174.4 530.101 174.9C529.601 175.5 528.301 177.5 527.201 179.4C524.501 184.2 506.901 214.9 504.901 218.2C504.101 219.7 501.701 224 499.601 227.8C493.401 239.2 489.901 244.4 488.901 243.9C488.201 243.4 479.201 228.7 474.901 220.8C474.001 219.2 470.401 213.1 466.901 207.3C458.101 192.6 447.001 173.1 447.001 172.2C447.001 171.3 458.501 171 500.301 170.6C529.401 170.4 531.001 170.5 531.001 172.2ZM439.901 176.6C444.601 185 463.101 216.5 473.701 234.1C479.301 243.6 484.001 252.2 484.001 253.3C484.001 254.4 480.501 261.4 476.301 268.9C472.001 276.3 466.501 286 464.001 290.3C461.501 294.7 454.601 306.8 448.701 317.2L437.901 336.2L433.701 336.6C431.401 336.8 408.601 337 383.101 337L336.701 336.9L332.801 330.6C330.701 327.2 327.801 322.2 326.401 319.6C325.001 317 322.501 312.6 320.801 309.9C318.001 305.4 314.701 299.6 311.601 293.9C311.001 292.8 310.001 291.2 309.401 290.4C308.001 288.6 305.001 283.3 300.901 275.4C300.501 274.6 297.801 270.2 295.001 265.6C292.201 261 289.801 256.5 289.701 255.6C289.601 254.1 311.301 215 329.701 183.4C332.101 179.3 334.401 175.2 334.901 174.4C336.101 172.3 344.601 171.9 394.401 171.9H437.301L439.901 176.6ZM235.101 179.2C236.701 182.3 241.201 190.1 245.101 196.4C248.901 202.7 252.301 208.6 252.701 209.4C253.101 210.2 256.701 216.4 260.701 223C264.701 229.7 268.001 235.6 268.001 236.2C268.001 236.8 268.401 237.4 268.801 237.6C270.001 238.1 279.001 253.9 279.001 255.5C279.001 256.3 277.701 259.1 276.001 261.7C274.401 264.3 273.001 266.8 273.001 267.1C273.001 267.4 270.901 271.1 268.401 275.3C265.901 279.5 263.501 283.6 263.101 284.4C262.701 285.2 261.201 287.9 259.801 290.4C258.401 292.9 256.001 297.1 254.501 299.9C253.001 302.6 250.001 307.8 248.001 311.4C243.701 318.7 240.101 325.1 235.001 334.2C233.101 337.6 231.101 340.2 230.601 340.1C228.901 339.6 223.201 327.1 219.001 315C209.001 285.6 206.401 256.5 211.401 227.2C214.101 211.5 219.001 195 224.601 182.8C230.201 170.4 230.401 170.4 235.101 179.2ZM325.901 173.6C325.801 176.2 285.501 244.9 284.001 244.9C282.701 244.9 280.001 240.9 274.001 229.9C272.801 227.7 270.501 224 268.901 221.6C267.301 219.2 266.001 217.1 266.001 216.8C266.001 216.1 252.901 193.8 248.301 186.7C246.501 183.9 245.001 181 245.001 180.4C245.001 179.8 244.301 178.6 243.501 177.8C241.201 175.5 241.701 173.6 244.801 173.1C246.301 172.9 265.201 172.7 286.801 172.6C318.001 172.4 326.001 172.6 325.901 173.6ZM495.501 271.2C497.401 274.1 500.601 279.5 502.601 283.2C504.601 286.9 508.201 293 510.501 296.9C523.501 318.5 532.001 333.3 532.001 334.1C532.001 334.7 519.701 335.3 501.801 335.7C459.301 336.7 448.001 336.6 448.001 335.4C448.001 334 453.501 323.8 460.501 312.2C463.501 307.2 466.001 302.9 466.001 302.6C466.001 302.4 467.501 299.6 469.401 296.5C473.201 290.2 476.301 284.6 482.601 273.1C485.001 268.7 487.501 264.5 488.201 263.7C489.601 262 489.601 261.9 495.501 271.2ZM300.801 291.4C309.001 305.4 316.201 317.8 316.801 318.9C317.401 320 320.001 324.4 322.601 328.7C325.101 333 326.901 336.8 326.501 337.2C326.201 337.6 307.201 338 284.401 338.2C250.801 338.5 243.001 338.3 243.001 337.2C243.001 336.5 246.001 330.7 249.601 324.4C257.701 310.3 259.101 307.8 270.001 288.4C281.301 268.2 284.001 264 285.001 265C285.501 265.5 292.601 277.4 300.801 291.4ZM536.901 343C538.601 343.4 540.001 344.1 540.001 344.7C540.001 346 532.401 358.1 529.101 362C527.701 363.7 524.701 367.2 522.501 369.9C512.601 382.1 495.101 397.5 480.601 406.8C471.401 412.8 453.601 421.3 442.401 425C425.301 430.8 396.301 435.4 393.701 432.8C393.101 432.1 396.501 425.4 403.501 413.4C405.601 409.8 408.901 404 410.801 400.4C412.701 396.8 416.801 389.4 420.001 383.9C423.101 378.4 428.001 369.6 430.901 364.4C433.801 359.2 437.301 353.1 438.601 350.9C439.901 348.7 441.401 346.2 441.901 345.5C442.701 344.2 449.801 343.9 485.701 343.4C509.201 343 529.701 342.7 531.101 342.6C532.601 342.5 535.201 342.7 536.901 343ZM432.001 345.5C432.001 346.8 428.601 353.2 415.001 376.9C409.301 386.8 403.501 397.1 402.201 399.9C400.801 402.6 398.601 406.7 397.201 408.9C395.801 411.1 393.401 415.1 392.001 417.9C390.501 420.6 388.901 422.9 388.401 423.1C387.901 423.3 385.001 419.3 382.001 414.2C379.101 409.1 371.801 396.7 365.801 386.6C359.901 376.5 355.001 368.1 355.001 367.9C355.001 367.7 353.701 365.5 352.001 363.1C350.401 360.6 349.001 358.3 349.001 358C349.001 357.7 347.601 355.1 345.901 352.3C344.001 349.3 343.101 346.9 343.601 346.4C345.301 344.7 432.001 343.9 432.001 345.5ZM335.201 350.6C337.101 353.5 341.301 360.4 344.501 365.9C347.701 371.4 354.701 383.3 360.001 392.4C365.301 401.5 371.101 411.4 372.901 414.4C374.601 417.4 376.601 420.8 377.301 421.9C381.101 428.1 383.001 431.5 383.001 432.3C383.001 434.5 365.901 434 355.501 431.5C353.301 430.9 347.201 429.5 342.001 428.3C310.701 421 280.201 403 257.801 378.6C248.501 368.5 242.701 361.6 240.901 358.4C240.101 357 239.301 355.7 239.001 355.4C237.501 354 235.001 349.3 235.001 348C235.001 346.6 238.401 346.4 259.801 346.2C273.401 346 295.101 345.8 308.101 345.6L331.801 345.3L335.201 350.6Z" fill="black"/>
<path d="M392.5 125.3C389.4 127.5 384.7 131.2 382.1 133.6C379.6 135.9 376 139.1 374.2 140.6C372.5 142.1 371 143.9 371 144.7C371 145.5 369.6 146.7 368 147.4C364.7 148.8 358.5 156.8 359.5 158.4C360.4 159.8 370.2 155.8 371.9 153.4C372.6 152.3 374 151.4 374.9 151.4C375.8 151.4 378.8 149.8 381.5 147.9C384.3 146 387.9 143.8 389.5 143C393.6 141.1 404.7 130.8 405.5 128.3C406.4 125.5 403.5 121.4 400.6 121.4C399.3 121.4 395.7 123.2 392.5 125.3ZM403 124.9C403.7 125.7 403.9 127.2 403.6 128.1C403 129.6 402.8 129.6 402 128.4C401.2 127.2 400.6 127.4 398.3 129.5C396.8 130.9 394.2 132.8 392.7 133.8C390 135.5 389.7 135.5 387.9 133.9C386.1 132.2 386.2 132 390.8 128.4C397.5 123.1 400.7 122.2 403 124.9ZM388 137.6C388.7 139.5 388.3 140.4 385.2 143.1C383.2 144.9 380.4 146.9 379.1 147.6C377.1 148.7 376.6 148.6 375.4 146.9C373.4 144.2 373.5 143.7 378.3 139.4C383.1 134.9 386.6 134.3 388 137.6ZM373 148.1C372.9 150.3 369.1 153.2 367.1 152.7C364.2 152 364.5 151.2 368.3 149.2C371.9 147.3 373 147.1 373 148.1Z" fill="black"/>
<path d="M483.2 179.6C482.7 180.3 480.3 185.8 478 191.9C475.7 197.9 473.2 204.3 472.5 206C470.9 209.7 471.3 210.4 475.2 210.4C477.5 210.4 478.4 209.8 479.5 207C480.8 204 481.4 203.6 486.2 203C490.9 202.5 491.7 202.6 493.2 204.6C496.9 209.5 497.9 210.2 500 209.7C501.9 209.2 502.1 208.7 501.5 205.6C501.1 203.6 500 200.4 499 198.4C498 196.5 495.8 191.2 494 186.6C490.9 178.6 490.8 178.4 487.5 178.4C485.7 178.4 483.8 179 483.2 179.6ZM488.8 191.9C490.7 196.1 490.3 197.4 487 197.4C483.7 197.4 483.3 196.3 485 192C486.2 188.7 487.4 188.7 488.8 191.9Z" fill="black"/>
<path d="M357.5 203.4C345.6 204.7 342.8 205.9 340.3 210.3C338.2 214 337.6 214.3 333.3 214.6L328.5 214.9L328.2 253.6L328 292.4H332.4C334.9 292.4 344.7 291.7 354.2 290.8C363.7 290 373.9 289.5 376.8 289.8C379.6 290.1 384.4 290.7 387.3 291C391 291.4 393.8 291.1 396.3 290.1C399.3 288.8 402.1 288.7 412.7 289.4C419.7 289.9 430.6 290.6 436.8 290.9L448 291.6L448.1 287.7C448.2 284 448.2 245.7 448.1 224.1C448 213.7 447.9 213.4 445.8 213.4C440.9 213.4 436.5 211.4 434.9 208.5C433.5 206.1 432.1 205.4 426 204C416.6 201.9 403.5 201.9 398.4 204C396.2 204.9 393 207 391.2 208.7L387.9 211.9L385.7 209.1C381.3 203.8 371.4 201.8 357.5 203.4ZM379 207.9C383.1 210 384.9 212.7 385.9 218.1C387.1 224.2 387.4 270.4 386.2 270.4C385.8 270.4 382.9 269.5 379.7 268.4C373.6 266.2 360.4 265.7 352 267.4C349.5 267.8 347.4 268.1 347.3 268C347.2 267.9 346.8 254.7 346.5 238.6L345.9 209.4L348.4 208.4C356.2 205.5 373.7 205.2 379 207.9ZM427.4 207.3L430 208.4V237.9V267.5L424.8 266.7C421.9 266.3 415.2 266 410 266C402.2 266 399.7 266.4 396.1 268.2C393.6 269.4 391.3 270.4 390.8 270.4C389.6 270.4 389.8 219.6 391 215.2C392.1 211.4 395.9 207.9 400.8 206.3C404.1 205.2 423.7 206 427.4 207.3ZM436.4 218.3C437.6 220.6 438 226.7 438.3 247.8C438.5 262.4 438.4 274.7 438.1 274.9C437.9 275.2 436.7 273.7 435.5 271.7C433.5 268.1 433.4 266.4 433.1 241.6C432.9 214.9 433.2 212.1 436.4 218.3ZM343 243.5C343 266.3 342.8 269.9 341.3 272.7L339.5 275.9L339 266.4C337.9 248.7 338.5 219.7 339.9 218C340.6 217.1 341.6 216.7 342.1 217C342.6 217.3 343 229.2 343 243.5ZM445 252.5V288.5L438.3 288C403.2 285.2 399.1 285.1 395 286.8C389.9 288.8 387.2 288.8 382.5 286.8C379.3 285.5 377.1 285.4 367.6 286.3C347.6 288.2 332.6 289.4 332.3 289C331.6 288.3 331.6 219.8 332.3 218.6C332.8 218 333.7 217.4 334.3 217.4C335.2 217.4 335.4 225.6 335.2 251.5L334.9 285.5L344.7 284.9C350.1 284.5 358.3 283.9 363 283.5C371.8 282.8 377.6 282.9 387.3 283.9C391.3 284.4 393.5 284.2 394.6 283.4C395.7 282.4 399.8 282.3 412.3 283C421.2 283.5 431.4 283.9 435 283.9H441.5L441.2 250.9C441 232.8 440.6 217.6 440.4 217.2C440.1 216.7 441 216.4 442.4 216.4H445V252.5ZM377.7 270.5C381.4 271.9 386 276.3 386 278.6C386 280.6 383.5 281.1 382.4 279.3C382 278.6 379.8 278.5 376.1 278.8C358 280.8 342 281.7 342 280.7C342 279.2 344.9 273.7 346.4 272.5C349.5 269.9 372.3 268.4 377.7 270.5ZM430.1 270.8C432.1 271.7 436.2 280.1 435 280.9C434.5 281.2 429.6 281 424.3 280.5C403.2 278.3 396.9 278.1 394.4 279.4C391.4 281.1 390.6 280.3 391.7 276.7C392.3 274.9 394.1 273.1 397 271.6C401.2 269.4 402.3 269.3 415 269.7C422.4 270 429.2 270.5 430.1 270.8Z" fill="black"/>
<path d="M276 180.3L273.5 181V196.4V211.9H276.5C279.4 211.9 279.5 211.7 280 206.4L280.5 201L286.5 199.8C294.5 198.3 296 197.6 297.1 194.7C299.3 188.8 296.9 181.9 292.3 181C286.7 179.9 278.4 179.5 276 180.3ZM288.5 186.6C293.2 188.7 290.7 193.1 284.5 193.6C280.8 193.9 280.5 193.7 280.2 191.1C280 189.5 280.1 187.6 280.4 186.8C281.1 185.1 285 185 288.5 186.6Z" fill="black"/>
<path d="M482.5 296.5C480 298 478.7 300.1 477.8 303.8C477.3 306.3 477.7 307.3 480.4 310C482.2 311.8 485 313.6 486.6 313.9C492.6 315.1 494.5 316 494.8 317.7C495.8 323 488.4 324.1 484.1 319.4C481.7 316.7 481 316.4 478.7 317.3C476.6 318.1 476.2 318.8 476.8 320.3C478.2 324.1 481.9 327.3 485.7 328C490.5 328.9 498 327 500.3 324.3C502.9 321.2 502.6 314.3 499.8 311.7C496.6 308.9 493.6 307.4 490.7 307.4C487.6 307.4 483.7 304.3 484.8 302.7C485.2 302.1 486.7 301.3 488.1 300.9C490 300.4 491.2 300.9 493.2 302.9C498.3 308 503.4 304 499.1 298.5C497.5 296.4 496.2 296 490.8 295.7C487.1 295.5 483.7 295.8 482.5 296.5Z" fill="black"/>
<path d="M275.3 298.1C274.3 298.4 274 302.7 274 314.5V330.4H286.1H298.1L297.8 327.1L297.5 323.9H289.5H281.5V320.4V316.9L289 316.4C295.8 315.9 296.5 315.7 296.8 313.6C297.2 310.9 296.3 310.5 288 310.2C281.5 309.8 281.5 309.8 281.5 306.9V303.9L289.5 303.4C297.2 302.9 297.5 302.8 297.5 300.4C297.5 297.9 297.5 297.9 287 297.8C281.2 297.7 275.9 297.8 275.3 298.1Z" fill="black"/>
<path d="M493.899 358.3C491.899 359.9 491.699 360.5 492.799 361.6C493.799 362.6 494.399 362.6 495.999 361.6C501.399 358.3 501.399 362.6 495.999 367.9C490.399 373.4 490.699 374.4 497.999 374.4C502.399 374.4 503.999 374 503.999 373C503.999 372.3 502.999 371.4 501.899 371.1L499.799 370.5L501.899 367.6C504.599 363.8 504.699 358.8 502.099 357.4C499.199 355.9 496.499 356.2 493.899 358.3Z" fill="black"/>
<path d="M451.6 359C450.7 359.8 450 360.9 450 361.4C450 362.8 452.4 363.2 454.2 362C455.5 361.3 456.3 361.3 457.1 362.1C457.9 362.9 457.4 364.1 455.2 366.5C452.4 369.7 450 373.6 450 374.8C450 375.1 452.7 375.4 456 375.4C460.7 375.4 462 375.1 462 373.9C462 373.1 461.1 372.4 460.1 372.4C456.9 372.4 456.6 370.4 459.4 367.5C462.4 364.4 462.6 362.7 460.4 359.6C458.6 357 453.9 356.6 451.6 359Z" fill="black"/>
<path d="M465.601 359.6C463.301 362.8 463.501 371.6 465.801 373.7C468.401 376.1 472.601 375.8 474.401 373.2C475.301 372 476.001 368.9 476.001 366.4C476.001 360.6 473.801 357.4 470.001 357.4C468.201 357.4 466.601 358.2 465.601 359.6ZM472.001 366.3C472.001 368.3 471.601 370.5 471.101 371.3C469.201 374.3 467.001 366.1 468.601 362C469.701 359.2 472.001 362.2 472.001 366.3Z" fill="black"/>
<path d="M479.9 360.1C479.4 361.6 479 363.7 479.2 364.8C479.4 366.5 480.1 366.8 482.6 366.6C485.9 366.3 487.5 368 486.4 370.9C485.7 372.7 485.5 372.7 482.9 371.3C481.7 370.7 480.1 370.5 479.3 370.8C477.9 371.4 477.9 371.7 479.5 373.4C482.1 376.3 487.5 376.1 489.6 373C491.8 369.5 491 366.3 487.1 363.7C483.8 361.5 483.8 361.4 486.2 361.4C488.3 361.4 490 359.8 490 357.8C490 357.6 488 357.4 485.5 357.4C481.5 357.4 480.8 357.7 479.9 360.1Z" fill="black"/>
<path d="M316.999 359.4C316.299 359.8 315.999 363.2 316.199 368.5L316.499 376.9L321.599 377.2C328.899 377.6 331.299 375.4 331.399 368.5C331.499 363.9 331.099 362.9 328.699 360.8C325.999 358.5 319.799 357.7 316.999 359.4ZM326.299 364.4C327.199 365.8 327.499 367.6 327.099 369.7C326.499 372.4 325.899 372.9 323.199 373.2L319.999 373.5V368.6C319.999 365.9 320.299 363.4 320.699 363.1C321.999 361.7 324.899 362.4 326.299 364.4Z" fill="black"/>
<path d="M266.4 360.7C266.1 361.5 266 365.6 266.2 370L266.5 377.9L271.5 378C277.1 378.2 281.4 376.9 280.5 375.4C280.2 374.9 277.9 374.4 275.4 374.4C271.6 374.4 270.9 374.1 271.2 372.6C271.4 371.4 272.8 370.7 275.5 370.4C281.2 369.7 281 367 275.3 366.6C269.4 366.2 269.4 363.6 275.2 363.2C278.3 363 279.6 362.4 279.8 361.1C280.1 359.6 279.3 359.4 273.5 359.4C268.9 359.4 266.8 359.8 266.4 360.7Z" fill="black"/>
<path d="M284.6 361C281.3 364.2 283.8 368.7 289.6 370.3C291.2 370.7 292.5 371.7 292.5 372.5C292.5 374.5 288.9 374.9 287.8 373C287.3 372.1 286 371.4 284.9 371.4C283.4 371.4 282.9 372 283.2 373.6C283.6 376.9 287.8 378.8 292.4 378C299.9 376.6 299.5 368.5 291.8 366.2C289.7 365.6 288 364.7 288 364.3C288 362.8 290.2 362.2 291.3 363.3C292.6 364.6 297 364.8 297 363.5C297 361.4 293.6 359.4 290 359.4C287.8 359.4 285.5 360.1 284.6 361Z" fill="black"/>
<path d="M299.701 360.1C298.301 361.4 299.101 362.4 301.501 362.4C302.901 362.4 304.101 363 304.101 363.6C304.201 364.3 304.301 365.3 304.501 365.9C304.601 366.4 304.801 369.3 304.801 372.2C305.001 376.7 305.301 377.5 306.801 377.2C308.201 376.9 308.601 375.5 309.001 369.9C309.501 363.6 309.701 362.9 311.801 362.6C313.001 362.4 314.001 361.6 314.001 360.8C314.001 359.7 312.401 359.4 307.201 359.4C303.401 359.4 300.001 359.7 299.701 360.1Z" fill="black"/>
<path d="M334.7 374.1C334.4 374.6 334.5 375.6 335 376.3C336 378 339.3 376.9 338.8 375.1C338.2 373.6 335.4 372.9 334.7 374.1Z" fill="black"/>
<path d="M222.7 81.6002L217 86.9002L222.6 93.4002C234.6 107.1 242.4 115.4 243.5 115.4C244.2 115.4 247.2 112.9 250.3 109.8C255.4 104.9 256 103.8 256 100.2C256 89.5002 243.3 76.4002 232.9 76.4002C228.8 76.4002 227.8 76.9002 222.7 81.6002ZM243.4 89.5002C247.1 93.4002 249 96.4002 249 98.0002C249 101.3 246.2 105.4 244 105.4C241.9 105.4 228 90.3002 228 88.1002C228 85.9002 231.9 83.4002 235.1 83.4002C237.1 83.4002 239.2 85.0002 243.4 89.5002Z" fill="black"/>
<path d="M539.4 78.4002C538.3 78.8002 536.1 80.6002 534.7 82.4002C531.4 86.3002 531.2 90.9002 534 96.4002C536.5 101.4 536.6 105 534.1 106.4C529.5 108.8 524.5 103.1 527 98.4002C528.3 95.9002 526.9 93.4002 524 93.4002C520.4 93.4002 518 102.9 520.5 107.1C525.9 116.1 535.8 115.8 542.3 106.4C544.6 103 544.4 99.9002 541.5 93.5002C538.7 87.5002 539 84.4002 542.4 84.4002C545.6 84.4002 547 86.3002 547 90.5002C547 92.6002 547.7 94.7002 548.6 95.5002C550 96.6002 550.5 96.5002 552.1 94.5002C558.4 86.7002 548.8 74.6002 539.4 78.4002Z" fill="black"/>
<path d="M565.8 101.5C562.1 103.6 538.5 121.7 537.8 122.9C537.4 123.6 537.8 124.9 538.9 125.8C540.8 127.6 541.4 127.3 552 119.6C553.5 118.5 554.1 118.8 556.9 121.9C558.6 123.9 560 125.9 560 126.4C560 126.9 557.3 129.4 554 131.9C550.7 134.4 548 136.7 548 137C548 138.4 550.2 141.4 551.2 141.4C551.8 141.4 554.7 139.5 557.5 137.1C560.4 134.8 563.8 132.2 565 131.4C566.2 130.6 570.3 127.5 574.1 124.6C581 119.3 582.4 116.8 579.6 114.5C578.5 113.6 577.1 114.2 573.1 117.4C570.3 119.6 567.5 121.4 566.8 121.4C566.1 121.4 564.3 119.6 562.7 117.4L559.9 113.5L565.5 109.3C571.2 105 571.4 104.7 570.4 102C569.7 100.2 568.3 100 565.8 101.5Z" fill="black"/>
<path d="M200.2 106.6C199.5 107.3 199 108.4 199 109.1C199 110.3 201.6 115.1 203 116.4C203.3 116.7 204 117.6 204.5 118.5C205.1 119.4 209 125.2 213.4 131.4C220.9 142.1 221.3 142.5 223.1 140.8C225.6 138.6 225.5 137 222.9 133.4C220.7 130.6 220.7 130.4 222.5 127.7C225.6 123.1 226.9 122.1 229.5 122.8C230.9 123.1 233.1 123.7 234.4 124C236.2 124.5 237.1 124.1 238 122.4C239.7 119.2 238.2 118.1 226.8 113.9C221.2 111.8 214.4 109.1 211.6 107.8C206 105.2 202 104.8 200.2 106.6ZM219.2 118.3C220 119 217.4 123.4 216.2 123.4C215.3 123.4 211 116.8 211 115.5C211 114.5 217.7 116.8 219.2 118.3Z" fill="black"/>
<path d="M178.9 137.6C177.9 139.4 178.1 140 179.8 141.4C182.5 143.6 209.6 159.4 210.7 159.4C212 159.4 214.1 155.4 213.5 154.3C213.1 153.8 211.2 152.5 209.2 151.4C207.2 150.3 203.7 148.3 201.5 146.9C199.3 145.6 196.2 143.8 194.5 142.9C192.9 142.1 189.5 140.1 187 138.5C181.5 134.9 180.4 134.8 178.9 137.6Z" fill="black"/>
<path d="M586.799 145.5C581.799 148.1 580.799 150.4 580.899 158.4C580.999 166 578.999 169.2 574.999 167.9C571.399 166.8 570.399 163.1 572.699 159.2C574.699 155.9 574.299 151.4 572.199 151.4C570.799 151.4 566.399 155.6 564.999 158.2C563.399 161.5 564.599 167.8 567.699 171.4C569.799 173.9 570.899 174.4 574.599 174.4C579.499 174.4 583.499 172.8 586.399 169.5C587.999 167.8 588.399 165.7 588.499 159.7C588.599 153.7 588.999 151.8 590.299 151C591.599 150.2 592.499 150.4 594.199 152.2C596.399 154.4 596.499 154.5 594.799 157.5C593.399 159.8 593.299 161 593.999 162.5C595.399 165.1 596.699 164.9 600.099 161.5C605.099 156.5 603.399 148.2 596.599 145C592.299 143 591.399 143 586.799 145.5Z" fill="black"/>
<path d="M172.3 149.6C171.7 150.3 169.4 154.9 167.1 159.8C164 166.6 163.3 169 164.1 170C166 172.3 169.6 171.7 170.8 168.9C171.5 167.5 172.6 166.1 173.4 165.8C174.8 165.3 180.9 167.6 194.3 173.9C198.5 175.9 202.5 177.2 203 176.9C203.6 176.6 204 175.2 204 173.8C204 171.7 202.7 170.8 194.8 167C189.7 164.7 183.6 161.9 181.3 160.9C176.8 159 176 157.1 178 153.4C179.8 150.1 174.6 146.7 172.3 149.6Z" fill="black"/>
<path d="M593.3 177.3C582.6 180.4 576 186.6 576 193.6C576 198.8 583.6 204.8 589.3 204.2C592.1 203.9 592.5 203.5 592.5 200.9C592.5 198.3 592.1 197.9 589.5 197.7C586.8 197.5 583 194.4 583 192.4C583 191.9 584.1 190.2 585.5 188.5C588.6 184.9 596.3 182.2 602.2 182.6C605.8 182.8 606.7 183.4 607.8 185.8C609.1 188.3 609 188.9 607.1 191.5C604.6 194.8 604.5 195.8 606.5 197.4C610.1 200.4 616 194 616 187.1C616 182.3 612.2 178.1 606.4 176.5C601.5 175.1 600.8 175.2 593.3 177.3Z" fill="black"/>
<path d="M177.2 185.4C161.6 185.8 157.7 186.2 157 187.4C154.8 190.7 156.6 192.7 170.5 201.5C189.8 213.7 189.8 213.7 191 211.4C192.6 208.3 192.1 207 188.4 204.6C185.3 202.6 184.9 201.9 185.5 199.6C187 193.3 188.3 191.9 192.8 191.6C196.3 191.3 197.3 190.8 198 188.8C198.6 187.4 199 186.1 199 185.9C199 185 194.9 184.9 177.2 185.4ZM179.7 193.4C179.9 194.2 179.6 195.6 179 196.4C178.2 197.7 177.4 197.6 173.5 195.4L168.9 192.9L171.7 192.2C176 191.2 179.5 191.7 179.7 193.4Z" fill="black"/>
<path d="M616 209.1C583.7 213.9 583 214.1 583 216.9C583 218.2 583.4 219.5 583.8 219.8C584.2 220.1 587.8 219.8 591.8 219.2C595.7 218.5 599.3 218.3 599.6 218.7C600 219 600.5 221.3 600.7 223.8C601.2 228 601.1 228.4 598.6 229.4C597.1 229.9 594.3 230.4 592.4 230.4C590.4 230.4 588 230.9 586.9 231.4C584.9 232.5 584.3 235.9 586 236.9C587 237.5 597.4 236.2 616.5 233C623.4 231.9 623.5 231.8 623.5 228.9C623.5 225.9 623.4 225.9 619 226.3C608.7 227.3 608.6 227.3 607.9 222.9C607.5 220.7 607.6 218.4 608.2 217.7C608.7 217 611.9 216.2 615.2 215.8C621.4 215.1 623.2 213.6 621.3 210.6C620.2 208.8 619.4 208.5 616 209.1Z" fill="black"/>
<path d="M156.5 215.2C150.9 217.1 148 221.2 148 227.5C148 233.3 150.7 236.9 157.4 240.2C170.6 246.8 186.5 242 188.6 230.8C189.4 226.6 187.7 220.4 185.3 218.2C183.3 216.4 169.5 214.7 168.7 216.1C168.4 216.5 167.9 219.5 167.5 222.6L166.8 228.4H170.3C173.4 228.4 173.9 228.1 174.2 225.6C174.7 221.3 178.6 221.3 180.4 225.6C181.6 228.4 181.6 229.3 180.4 231.7C178.6 235 175.4 236.4 169.4 236.4C157.5 236.4 150.3 227.1 158.5 222.3C162.1 220.2 162.9 217.7 160.8 215.6C159.5 214.3 159.4 214.3 156.5 215.2Z" fill="black"/>
<path d="M594.1 246.6C588.2 249.6 585.7 253.1 585.8 258.3C585.9 267.4 593.2 272.7 605.5 272.7C616.9 272.7 624.3 268.5 625.5 261.3C626.5 255.6 624.6 251.1 619.9 247.8C616.4 245.4 614.7 245 607.2 244.6C599.6 244.3 597.9 244.6 594.1 246.6ZM615.2 253.2C617.4 254.5 618 255.5 618 258.5C618 264.2 615.4 265.9 606.1 265.9C596.7 265.9 593 263.9 593 258.9C593 253.2 598.8 250.1 607.4 251C610.2 251.3 613.7 252.3 615.2 253.2Z" fill="black"/>
<path d="M179.501 251.1C177.301 251.9 169.201 254.8 161.601 257.5C153.901 260.2 147.301 262.9 146.901 263.5C146.601 264.1 146.601 265.8 146.901 267.3C147.601 269.7 148.601 270.1 160.101 273C176.701 277.1 184.801 278.6 186.001 277.9C187.401 277 187.201 273.8 185.701 272.6C185.101 272 183.201 271.2 181.701 270.9C178.401 270 178.401 270 177.501 264.2L176.801 259.6L181.501 257.5C185.601 255.7 186.101 255.1 185.801 252.8C185.401 249.4 184.501 249.2 179.501 251.1ZM170.201 265.4C169.701 268.7 169.701 268.8 165.401 267.7C160.501 266.6 160.001 264.7 164.201 263.5C169.101 262.1 170.601 262.5 170.201 265.4Z" fill="black"/>
<path d="M182.401 283.5C180.801 284.7 177.801 287.3 175.701 289.3C172.501 292.3 171.701 292.7 170.201 291.6C164.901 287.9 156.901 288.2 152.401 292.5C149.701 295.1 149.501 297.3 151.401 307.9C152.601 314.7 152.701 314.9 155.601 314.8C157.201 314.7 162.801 313.7 168.001 312.5C173.201 311.3 180.301 309.7 183.801 309C191.001 307.5 192.501 306.5 191.501 303.5C190.801 301.1 189.201 300.9 182.001 302.5C172.001 304.6 171.901 301.2 181.601 293.4C187.401 288.8 188.101 287.9 187.801 285.2C187.401 281.2 186.101 280.8 182.401 283.5ZM164.601 296.2C165.101 296.6 166.201 298.4 167.001 300.2C168.601 304.3 167.201 306.2 162.001 306.6L158.501 306.9L158.201 301.7C158.001 297.4 158.201 296.5 159.701 296.1C162.501 295.4 163.401 295.4 164.601 296.2Z" fill="black"/>
<path d="M588.9 282.9C584.9 285.1 582.6 289.3 582.6 294.5C582.6 300.3 585 303.7 591.5 306.9C605.2 313.6 619.5 309.8 621.6 298.9C622.8 292.1 619.6 287.1 611.5 283.3C606.5 281 592.9 280.7 588.9 282.9ZM608.7 289.5C611.8 290.6 615 294.4 615 296.9C615 301 611.5 303.4 605.5 303.4C598.5 303.4 592.9 301.1 590.6 297.4C588 292.8 589.5 290.2 596 288C597.8 287.4 605.6 288.3 608.7 289.5Z" fill="black"/>
<path d="M576.801 316.7C572.201 328.4 571.401 331.4 573.001 332.4C576.801 334.8 578.501 333.6 580.401 326.9C581.401 323.3 582.601 320.4 583.001 320.4C583.401 320.4 590.001 322.4 597.601 324.9C605.101 327.4 612.001 329.2 612.701 329C613.401 328.7 614.001 327.4 614.001 326.1C614.001 323.9 612.601 323.3 597.201 318.1C587.901 315 579.901 312.4 579.401 312.4C578.901 312.4 577.701 314.3 576.801 316.7Z" fill="black"/>
<path d="M166.5 323.1C161.1 325.9 159 328.5 159 332.3C159 334.2 160 338.5 161.3 341.7L163.5 347.5L167 346.9C168.9 346.5 172.3 345.4 174.5 344.5C176.7 343.5 183.3 341 189.3 338.9C199.5 335.3 200 335 200 332.3C200 328.9 199.3 328.8 192.4 330.9C189.7 331.7 187 332.4 186.3 332.4C185.6 332.4 184.1 330.2 182.9 327.5C181.6 324.3 180.1 322.4 178.7 322C174.8 321 169.6 321.4 166.5 323.1ZM175.5 330C178.3 332.8 177 336.5 172.7 338C169.1 339.3 169 339.2 167.6 336.6C166.1 333.6 166.5 331.5 168.8 329.6C171 327.9 173.5 328.1 175.5 330Z" fill="black"/>
<path d="M572.6 347.4C570.3 355.2 570.1 355.4 564.4 355.4C561.4 355.4 559 355.7 559 356.1C559 356.5 560.9 358.4 563.1 360.4L567.2 363.9L565.7 368.4C563.9 373.8 564.9 374.5 569.5 371C571.3 369.6 573.1 368.4 573.5 368.4C573.8 368.4 575.8 369.6 578 371C580.2 372.5 582.3 373.5 582.6 373.2C582.8 372.9 582.5 370.5 581.8 367.9L580.5 363.2L584.3 359.9C586.3 358.1 588 356.4 588 356.1C588 355.8 585.7 355.4 582.9 355.2C577.4 354.9 577.1 354.6 574.7 348.4C573.3 344.9 573.3 344.9 572.6 347.4Z" fill="black"/>
<path d="M199.5 351.6C199.3 352.3 198.6 354.6 198 356.6C196.9 360.3 196.7 360.4 192 360.4C189.3 360.4 186.9 360.8 186.6 361.3C186.3 361.8 187.6 363.2 189.5 364.5C193.9 367.5 194.4 369 192.6 374.1C191.8 376.4 191.4 378.5 191.7 378.8C192 379.1 194.1 378 196.3 376.4C198.6 374.7 200.8 373.4 201.3 373.4C201.7 373.4 203.6 374.5 205.4 375.9C210 379.4 212 379.3 210.1 375.6C207.5 370.4 207.8 368.4 212.1 364.6L216.2 360.9L210.4 360.4L204.6 359.9L203.1 355.1C201.7 350.5 200.3 349.2 199.5 351.6Z" fill="black"/>
<path d="M226.001 383C222.401 386.1 216.601 391.2 213.201 394.3C209.701 397.4 206.201 400.3 205.401 400.7C203.301 401.9 203.701 403.9 206.501 406.5C207.801 407.8 209.001 409.2 209.001 409.6C209.001 410 210.501 411.9 212.401 414C215.701 417.6 215.701 417.6 218.401 415.9C219.801 414.9 221.001 413.8 221.001 413.4C221.001 413 219.401 410.7 217.501 408.3C215.601 405.9 214.001 403.5 214.001 403C214.001 402 215.001 401.1 226.601 391C230.901 387.2 235.101 383.5 235.901 382.7C237.201 381.6 237.101 381.2 235.501 379.4C234.501 378.3 233.401 377.4 233.101 377.4C232.801 377.4 229.601 379.9 226.001 383Z" fill="black"/>
<path d="M548.7 378.1C548.3 378.4 548 379.5 548 380.5C548 381.4 546.9 382.9 545.5 383.8C544.1 384.7 543 385.9 543 386.4C543 386.9 545.7 389.5 549.1 392.1C552.4 394.7 557 398.4 559.2 400.1C563.6 403.8 566.4 404.3 567.5 401.6C568 400.4 567.2 399.2 564.8 397.4C563 396 559.5 393 557 390.7C552.9 386.9 552.6 386.3 553.8 384.4C554.9 382.6 554.9 381.9 553.5 379.8C552 377.5 550 376.7 548.7 378.1Z" fill="black"/>
<path d="M536.501 394.4C535.901 396.1 537.101 397.8 542.401 403.1C546.801 407.5 549.001 410.5 549.001 412.1C549.001 416.1 545.101 414.9 538.501 408.8C530.701 401.5 529.701 401 527.601 403.2C526.101 404.9 526.501 405.5 532.701 411.7C536.401 415.4 541.401 419.4 543.701 420.5C547.801 422.5 548.201 422.5 550.501 421C551.901 420.1 553.001 418.5 553.001 417.4C553.001 416.2 554.001 415 555.401 414.5C560.101 412.7 559.201 410.8 549.301 401.7C544.101 396.9 539.201 392.8 538.501 392.6C537.801 392.4 536.901 393.2 536.501 394.4Z" fill="black"/>
<path d="M238.5 406.8C236.3 408.4 237.1 411.4 239.9 411.4C242.9 411.4 245 412.5 245 413.9C245 416.2 243.4 416.5 237.8 415C233.3 413.8 232.1 413.8 229.8 415C226.9 416.5 224 421.1 224 424.2C224 426.2 227.9 430.4 229.7 430.4C230.3 430.4 231.5 431.5 232.4 432.9C233.3 434.3 234.4 435.4 234.8 435.4C236 435.4 249.7 419 251.1 416C254 409.7 244.2 402.6 238.5 406.8ZM237.1 420.5C239.1 421.5 239.1 421.6 237.4 423.5C235.4 425.7 231 426.1 231 424C231 422.6 233.6 419.4 234.6 419.4C234.9 419.4 236 419.9 237.1 420.5Z" fill="black"/>
<path d="M513.2 416.2C512.3 417.8 511 418.9 510.4 418.7C508.5 418.1 506.6 421.2 507.6 423.3C509.1 426.4 527.4 450.1 529.1 451.2C530.3 452 531.3 451.9 532.6 450.9C534.2 449.7 534.3 449.2 533.2 447.7C532.5 446.7 531.1 444.5 530 442.9L528 439.9L531 438.7C534.7 437.1 535.7 433.6 534 428.1C530.5 416.3 517.7 409 513.2 416.2ZM523.3 422.4C527.8 426.3 529.8 431 527.9 432.9C525.8 435.1 522.9 433.7 519.3 429C515.8 424.4 515.3 422.5 517.2 420.6C518.9 418.9 519.5 419.1 523.3 422.4Z" fill="black"/>
<path d="M492.401 420.9C492.001 421.8 492.101 423.7 492.401 425.2C492.701 426.7 493.201 429.2 493.301 430.7C493.601 433.4 495.301 435.3 497.501 435.4C498.101 435.4 500.301 438.4 502.401 442C506.701 449.1 509.701 451.7 513.101 451.2C517.901 450.5 518.301 444.4 513.501 444.4C511.501 444.4 510.201 443.2 507.401 438.8C505.101 435.2 504.001 432.5 504.401 431.1C505.101 428.4 503.401 425.4 501.001 425.4C500.001 425.4 498.201 424 497.001 422.4C494.601 419.1 493.201 418.6 492.401 420.9Z" fill="black"/>
<path d="M481.3 425.1C478.3 426.3 480.7 431.4 484.2 431.4C486.6 431.4 487.4 429.1 486 426.5C484.9 424.4 483.7 424.1 481.3 425.1Z" fill="black"/>
<path d="M471.5 430.7C469.8 432 469.8 432.3 471.3 435C472.1 436.6 475.9 444.1 479.7 451.6C486.4 465.1 488 467 490.7 464.3C491.6 463.4 489.7 458.9 483.4 446.3C478.8 437 474.6 429.4 474.2 429.4C473.7 429.4 472.6 430 471.5 430.7Z" fill="black"/>
<path d="M486.1 434.8C485 436.1 485.3 437.1 487.4 440.6C488.7 443 491.5 448 493.5 451.7C497.4 459 499.3 460.5 501.7 458.1C503.1 456.7 502.6 455.5 496.7 445.2C493.1 439 489.6 433.8 488.8 433.6C488 433.4 486.8 434 486.1 434.8Z" fill="black"/>
<path d="M278.1 436.3C276.1 437.8 275.9 438.4 277 440.3C277.9 442.1 278.7 442.4 281.2 441.9C283.2 441.4 284.5 441.6 285.1 442.5C286.4 444.7 285.1 445.4 279.4 445.4C276.3 445.4 273.1 445.8 272.1 446.4C269.3 447.9 266.8 454.8 268 457.9C269 460.6 273 462.7 275.5 461.8C276.4 461.4 277 461.8 277 462.7C277 464.1 280.6 466.1 281.5 465.2C281.7 465.1 284.1 460.5 286.9 455.1C293.3 442.8 293.5 439.8 288 436.1C284.8 433.9 281.1 434 278.1 436.3ZM280.5 451.4C281.6 453.2 279 456.4 276.5 456.4C273.2 456.4 273.1 452.7 276.3 451.4C279.2 450.2 279.8 450.2 280.5 451.4Z" fill="black"/>
<path d="M326.5 443.6C326.1 444.9 319.4 470.2 318 476.1C317.4 478.4 317.6 479.7 318.6 480.5C320.8 482.3 322.8 480.8 324 476.5C325.5 470.8 327.7 471.2 328.6 477.1C329.4 482.6 330.5 484.4 333.1 484.4C335.3 484.4 335.5 481.3 334 471.9L333 465.9L337.2 461.7C339.5 459.4 341.2 457.2 340.9 457C340.7 456.8 339.3 456.3 337.8 455.9C335.7 455.4 334.5 455.8 332.4 457.9C331 459.3 329.5 460.3 329.2 460C328.9 459.7 329.4 456.3 330.3 452.5C332.6 443.2 332.5 442.4 329.5 442.4C328.1 442.4 326.7 443 326.5 443.6Z" fill="black"/>
<path d="M298.901 447.1C294.701 458.6 292.501 464 291.801 464.8C290.401 466.5 290.901 471.2 292.701 471.8C295.001 472.7 295.701 471.7 299.501 462.3C303.001 453.5 304.601 451.6 307.501 452.8C309.701 453.6 309.001 457.6 305.101 467.2C302.101 474.4 302.301 476.4 306.201 476.4C309.201 476.4 316.801 455.8 315.601 450.8C314.901 448.2 310.801 446 307.801 446.7C306.901 447 305.601 446.6 304.901 445.8C303.001 443.5 300.001 444.1 298.901 447.1Z" fill="black"/>
<path d="M428.201 446.3C427.101 447 427.601 450.1 430.801 463C435.001 479.6 436.501 484.4 437.601 484.4C437.901 484.4 442.001 483.2 446.601 481.8C455.201 479.2 456.301 478.1 454.001 474.4C453.301 473.2 452.401 473.1 448.501 474.2C442.001 475.9 440.001 475.8 440.001 473.4C440.001 472.4 439.601 470.5 439.101 469.2C438.601 467.9 436.901 462.1 435.401 456.1C432.501 445.3 431.601 444.1 428.201 446.3Z" fill="black"/>
<path d="M461.499 446.1C460.399 446.4 458.699 447.3 457.799 448.1C455.799 449.9 454.399 455.2 455.699 456.5C456.999 457.8 460.799 456.4 461.299 454.3C461.899 452.2 465.399 451.7 466.599 453.5C466.899 454.1 465.299 456.5 462.999 458.9C459.099 462.9 458.799 463.6 459.299 467.1C460.399 474 467.599 477.7 471.499 473.4C472.499 472.3 474.499 471.4 475.999 471.4C478.699 471.4 480.799 469 479.099 468C478.699 467.7 476.599 463.2 474.499 457.9C469.999 446.3 467.999 444.5 461.499 446.1ZM469.799 465.2C470.099 467.9 469.799 468.4 467.999 468.4C465.399 468.4 464.499 466.2 465.999 463.4C467.599 460.5 469.399 461.4 469.799 465.2Z" fill="black"/>
<path d="M348.2 449.6C347.7 450.9 346.3 459.5 345 468.7C343 483.1 342.9 485.7 344.1 486.5C347.3 488.6 348.4 487 349.7 478.2C351.1 468.2 352.3 465.4 355 465.4C357.9 465.4 358.4 469.2 356.6 477.9C355.7 482.2 355 486 355 486.5C355 488 360.2 489.7 361 488.4C362.4 486.1 364.4 464.2 363.3 462.5C361.7 459.9 358 458.5 355.5 459.4C352.4 460.6 352.1 460 353.2 454.8C353.7 452.3 353.9 449.7 353.6 448.9C352.7 446.6 349.1 447.1 348.2 449.6Z" fill="black"/>
<path d="M394.501 469.1C395.201 488.4 395.901 491.4 399.401 490.1C400.701 489.6 401.001 487.7 400.901 479.7C400.801 474.3 400.501 465.6 400.101 460.4L399.501 450.9L396.601 450.6L393.801 450.2L394.501 469.1Z" fill="black"/>
<path d="M377.4 461.4C369.8 464.4 367.3 481.8 373.5 488C376.5 491 382.9 491.3 385.2 488.6C389.7 483.5 387.4 479.6 381.8 482.9C378.6 484.7 377.6 484.3 376.5 480.6C375.9 478.5 376.1 478.4 382 478.4C389 478.4 389.6 477.8 388.5 470.7C388.1 467.6 386.9 465.2 385 463.2C382 460.3 380.9 460 377.4 461.4ZM381.8 468.6C383.9 470.7 383.1 472.4 380 472.4C377.8 472.4 377 471.9 377 470.6C377 467.4 379.5 466.3 381.8 468.6Z" fill="black"/>
<path d="M409.1 481.3C408.1 481.9 407.9 483.1 408.5 485.5C408.8 487.4 409.2 490.5 409.3 492.4C409.4 494.3 410 496.1 410.5 496.3C413.2 497.4 415.2 486.4 413 482.3C411.8 480.2 411.2 480 409.1 481.3Z" fill="black"/>
<path d="M660.7 313.1C660.4 313.6 659.9 318.2 659.5 323.4C659.1 328.6 658.4 334.8 657.9 337.1C657.4 339.3 656.8 343.6 656.5 346.6C654.9 361 644.3 398.4 641.7 398.4C641.1 398.4 637.4 396.6 633.4 394.4C629.4 392.2 625.5 390.4 624.8 390.4C624.1 390.4 620.6 394.7 617 400C606 416.2 604.8 417.9 596.4 428.6C588.2 439 573.8 454.8 566.6 461.4C564.5 463.3 561.1 466.4 559.1 468.3C554.2 472.9 537 486 529 491.1C519.4 497.3 489.9 511.7 479.5 515.2C451.8 524.5 428.2 528.5 391.7 530C347.9 531.8 298.9 522.5 266.9 506.3C261.6 503.6 256.9 501.4 256.6 501.4C256.2 501.4 253.9 500 251.5 498.4C249.1 496.7 246.9 495.4 246.5 495.4C246.2 495.4 242.3 492.8 237.9 489.6C233.5 486.5 227.9 482.5 225.6 480.9C223.2 479.2 220.6 477.2 219.7 476.4C218.9 475.6 216.2 473.3 213.9 471.4C197.9 458.1 171.7 429 159 410.4C153.1 401.8 149.6 397.5 148.2 397.5C147.5 397.4 143.6 399.4 139.6 401.9C135.5 404.4 131.7 406.4 131.2 406.4C129.9 406.4 126.6 398.4 124 388.9C117.2 363.9 113 344.3 113 337.4C113 333.4 110.5 319.6 109.6 318.7C109.1 318.2 102.4 331.7 88.1998 361.6C85.3998 367.6 82.5998 372.4 82.0998 372.4C81.4998 372.4 78.8998 370.5 76.1998 368.1C73.4998 365.8 69.6998 362.5 67.5998 360.9C65.4998 359.2 62.4998 356.6 60.6998 355.1C58.9998 353.6 55.5998 350.6 53.1998 348.6C50.7998 346.6 47.4998 343.7 45.8998 342.1C44.2998 340.6 42.4998 339.4 41.9998 339.4C39.7998 339.4 40.9998 347.9 45.6998 366.9C46.4998 370.2 48.2998 377.6 49.6998 383.4C52.2998 394.4 55.5998 406 59.5998 418.1C60.8998 422 61.9998 426.1 61.9998 427.1C61.9998 428.2 62.3998 429.4 62.8998 430C63.2998 430.5 64.4998 433.1 65.4998 435.9C66.4998 438.6 67.6998 441.3 67.9998 441.9C68.3998 442.4 69.0998 444 69.4998 445.4C69.8998 446.8 71.6998 451.1 73.5998 454.9C75.3998 458.8 77.3998 463.1 77.8998 464.4C78.4998 465.8 79.3998 467.6 79.8998 468.4C80.3998 469.2 81.0998 470.6 81.3998 471.4C81.7998 472.2 82.8998 474.2 83.9998 475.9C85.0998 477.5 86.2998 479.7 86.5998 480.6C86.9998 481.6 87.6998 482.4 88.1998 482.4C88.7998 482.4 93.1998 478.5 97.9998 473.8L106.8 465.3L110.4 469.7C112.4 472.1 114 474.6 114 475.1C114 475.7 114.7 476.4 115.5 476.8C116.3 477.1 117 477.8 117 478.4C117 479 118.7 481.2 120.7 483.2C122.8 485.3 126.1 488.8 128 491.1C133.7 497.8 146 510.2 156.5 519.9C161.9 524.8 167.3 529.8 168.4 531C169.6 532.2 172.3 534.2 174.5 535.6C176.7 537 179.1 538.9 179.9 539.8C180.6 540.7 181.8 541.4 182.4 541.4C183.1 541.4 184.5 542.2 185.6 543.3C186.7 544.3 189.5 546.3 191.7 547.7C193.9 549.1 197 551.4 198.5 552.8C200 554.2 201.9 555.4 202.5 555.4C203.2 555.4 206 556.9 208.6 558.7C211.3 560.5 215.9 563 218.7 564.3C221.6 565.7 224 567 224 567.3C224 567.6 225.5 568.5 227.2 569.3C231.1 571 235.7 573.2 242.5 576.8C245.3 578.2 248.1 579.4 248.8 579.4C249.5 579.4 250.8 579.8 251.8 580.3C252.7 580.8 259.8 583.3 267.5 585.9C275.2 588.5 282.2 590.8 283 591.1C285.6 592.1 286.4 592.4 289.5 593C291.2 593.3 296.6 594.4 301.5 595.4C306.5 596.5 319.1 598.5 329.5 600.1C347.4 602.7 350.4 602.8 380.5 602.7C398.1 602.6 416.1 602.1 420.5 601.5C439 599.1 443 598.5 448.6 597.4C454.6 596.3 456.4 595.9 463.5 594.8C465.7 594.5 468 593.8 468.5 593.4C469.1 593 472.9 591.9 477 591.1C481.1 590.2 487 588.5 490 587.4C493 586.2 497.2 584.8 499.3 584.3C501.5 583.8 504.9 582.5 507 581.4C509.2 580.3 511.5 579.4 512.1 579.4C513.4 579.4 519 577 526.3 573.3C528.5 572.3 531 571.4 532 571.4C533 571.4 534 571 534.2 570.5C534.4 570.1 536.5 568.7 539 567.5C541.5 566.3 544.9 564.6 546.5 563.6C548.2 562.7 553 559.9 557.3 557.4C561.6 554.9 566.1 552.4 567.2 551.7C568.3 551.1 569.5 550.2 569.9 549.7C570.8 548.5 576.2 544.9 578.3 544.1C579.2 543.8 580 543 580 542.4C580 541.9 580.5 541.4 581.1 541.4C582 541.4 590.1 535.4 592 533.4C592.3 533.1 593.7 531.9 595.2 530.8C605.4 522.9 630 499.4 633.4 494.2C634.4 492.7 636 491.2 637.1 490.9C638.1 490.5 639 489.7 639 488.9C639 488.2 640.4 486.4 642 485.1C643.7 483.7 645 482.2 645 481.7C645 481.3 646 479.7 647.3 478.4C652.3 472.7 657.8 465.8 659 463.4C659.7 462 661.1 460.3 662.2 459.6C663.2 458.9 664 457.6 664 456.8C664 454.3 665.6 455.3 674.2 463.4L682.7 471.3L684.8 469.1C685.9 467.9 687.2 465.7 687.5 464.1C687.9 462.6 688.6 461.1 689.1 460.8C689.6 460.5 690 459.6 690 458.7C690 457.9 690.9 456 691.9 454.5C693 453 695.3 448.2 697 443.8C698.7 439.5 700.5 435 701 433.9C708.4 417.7 719.5 378.2 726.8 342.4C729.5 328.8 728.9 328.2 721 335.7C717.4 339.1 711.3 344.7 707.5 348.1C703.6 351.5 698.5 356.1 696 358.4C687.8 365.8 689.5 367.5 675.6 339C668.7 325 662.6 313.3 662.1 313C661.6 312.6 660.9 312.7 660.7 313.1ZM675.9 354.2C681.9 366.2 686.1 373.4 687 373.4C688.4 373.4 691.2 371.1 703.2 359.9C711 352.6 716.1 348.4 717.1 348.4C717.6 348.4 718 349.6 718 351C718 354.2 713 376.2 708.9 390.9C704.6 406.4 694.6 435.7 692.1 440C691.5 441.1 689.3 445.8 687.1 450.6C684.3 456.9 682.6 459.4 681.3 459.4C679.6 459.4 670 450.7 670 449.1C670 448.3 672.1 444.8 681.2 431C685.5 424.3 685.5 424.3 677.9 420.1C670.5 416.1 668.6 415 667 413.8C666.2 413.2 662.7 411.2 659.3 409.4C655.9 407.6 652 405.2 650.5 404C648 402 647.9 401.8 649.4 398.9C650.3 397.2 651 395.2 651 394.4C651 393.5 651.9 390.3 653 387.1C657.2 375.3 664 344.5 664 337.6C664 335.5 664.4 334.4 665.1 334.6C665.8 334.8 670.6 343.6 675.9 354.2ZM108 350.4C108.7 354 109.6 359.1 110 361.9C110.9 367.6 115.7 386.9 117 389.9C117.5 391 118.6 394.6 119.6 397.9C120.5 401.2 122 405.1 122.9 406.6C124.3 409.1 124.2 409.5 122.6 411.3C121.6 412.4 113.9 417.4 105.4 422.4C96.9998 427.4 89.0998 432.3 87.9998 433.2C85.6998 435.1 85.6998 435 97.7998 452.5C99.5998 455.1 101 457.9 101 458.8C101 460.9 92.7998 469.4 90.7998 469.4C88.8998 469.4 87.9998 468.3 84.6998 462.4C82.2998 458 74.5998 440.5 72.9998 435.4C72.4998 434 70.9998 429.8 69.5998 426C68.1998 422.2 66.9998 418.8 66.9998 418.4C66.9998 417.2 72.7998 411.3 81.1998 403.9C88.3998 397.7 90.2998 394.6 86.1998 395.8C84.6998 396.3 63.5998 399.4 61.8998 399.4C60.8998 399.4 59.6998 395.3 54.5998 374.4C50.7998 359.1 50.4998 357.4 51.7998 357.4C52.6998 357.4 53.4998 358.1 70.9998 372.9C77.7998 378.7 83.7998 383.4 84.1998 383.4C84.5998 383.4 89.3998 374.1 94.9998 362.7C101.1 350.2 105.4 342.4 106 343C106.5 343.5 107.4 346.8 108 350.4ZM648 410.3C649.4 411.3 656 415.1 662.7 419C672.6 424.5 675 426.3 675 428.1C675 429.3 673.1 433.1 670.8 436.6C668.4 440.1 666.1 443.6 665.5 444.5C662.7 448.9 657.5 455.4 656.8 455.4C656.4 455.4 656 455.9 656 456.5C656 458.2 639.6 478.6 630.1 488.9C623.1 496.3 605.5 513.6 599.4 518.9C596.9 521.1 594.3 523.4 593.7 523.9C588.1 528.8 557.8 550.4 556.5 550.4C556.3 550.4 552.5 552.7 548.1 555.4C543.7 558.2 539.8 560.4 539.4 560.4C538.6 560.4 532.9 563 523.6 567.5C519.3 569.7 515.2 571.4 514.5 571.4C513.9 571.4 511.9 572.1 510.2 572.9C497.6 579.2 467.9 587.5 442.5 591.8C396.1 599.7 329.9 596.9 289.5 585.4C275.9 581.5 259.4 576.2 255.5 574.4C253.3 573.4 247.8 571 243.2 569C230.5 563.5 202.3 547.6 196.5 542.7C196 542.2 192.8 539.8 189.5 537.4C175 526.9 159.6 513.7 148.3 502.2C138.4 492.1 125.2 477.6 121.8 472.9C121.4 472.3 119.7 470.3 118 468.4C116.3 466.5 113.7 463.1 112.2 460.9C110.7 458.7 109 456.4 108.4 455.9C107.7 455.3 105.9 452.9 104.4 450.5C95.4998 436.9 95.6998 437.4 96.9998 435.9C97.6998 435.1 99.2998 433.8 100.6 433.1C101.8 432.5 112.4 426.2 124 419.1C135.7 412.1 145.7 406.4 146.3 406.4C147 406.4 148.6 408 150 409.9C154.1 415.6 154.7 416.5 162.1 426.4C166 431.6 169.7 436.3 170.3 436.9C171 437.4 172.8 439.5 174.4 441.4C192.7 463.8 218.7 486.4 244.7 502.5C249.7 505.6 266.5 514 272.5 516.5C273.6 516.9 277.2 518.4 280.5 519.8C293.2 525.2 315.9 530.8 340.5 534.4C344.9 535.1 360 535.9 374 536.1C419.4 537 455.4 531.5 488.5 518.6C494.1 516.4 508.5 509.9 511.4 508.3C512.5 507.7 516.6 505.5 520.6 503.4C526.8 500.1 534.1 495.7 537.5 493.2C560.6 476 582.3 456.5 590.5 445.4C591.9 443.5 593.5 441.7 594 441.4C594.6 441 596.1 439.4 597.3 437.7C598.5 436 603.4 429.5 608.1 423.3C612.8 417 618.2 409.6 620 406.9C626.5 397.4 625.1 397.7 635.9 403.5C641.2 406.4 646.6 409.4 648 410.3ZM66.7998 407.4C66.0998 408.5 65.1998 409.4 64.7998 409.4C63.4998 409.4 63.8998 406.6 65.2998 406.1C67.5998 405.1 67.9998 405.4 66.7998 407.4Z" fill="black"/>
<path d="M606.201 449.6C604.401 451.4 604.801 453.1 607.601 455.3C613.301 459.8 616.401 456.4 611.501 451.1C608.601 448.1 607.901 447.9 606.201 449.6Z" fill="black"/>
<path d="M600.499 456.5C599.999 458.1 600.499 459.2 602.599 461C608.499 465.7 611.799 462 606.299 456.9C602.899 453.8 601.299 453.7 600.499 456.5Z" fill="black"/>
<path d="M163.001 458.5C157.201 464.9 160.801 468.2 167.201 462.5C169.901 460.1 170.301 459.2 169.401 457.8C167.701 454.9 166.201 455.1 163.001 458.5Z" fill="black"/>
<path d="M168.1 464.3C162.8 469.2 165 473.3 170.9 469.8C174.5 467.7 175.7 464.9 174 462.9C172.3 460.8 171.6 461 168.1 464.3Z" fill="black"/>
<path d="M594.4 464.9C594 465.8 594.2 467.5 594.8 468.7C595.4 469.9 596.2 471.9 596.5 473.1C596.9 474.4 597.8 475.4 598.6 475.4C599.3 475.4 602.4 477.6 605.4 480.3C609.7 484.2 611.3 485.1 613.3 484.7C617.9 483.8 618.1 478.4 613.6 478.4C610.9 478.4 605 472.5 605 469.8C605 467.3 603.2 465.4 601.5 466.1C600.7 466.3 599 465.8 597.6 464.9C595.2 463.3 595 463.3 594.4 464.9Z" fill="black"/>
<path d="M176.3 469.8C175.9 470.6 171.8 475.3 167.3 480.2C162.7 485.2 159 489.9 159 490.7C159 492.4 170.8 503.4 172.6 503.4C173.2 503.4 174.3 502.7 175 501.9C176.1 500.5 175.6 499.6 171.7 495.6C167.2 491.1 167.1 490.7 168.6 488.6C170.6 485.7 171.9 485.8 176 489.4C180 492.7 181.2 493 183 490.9C184.1 489.6 183.6 488.6 180.2 484.5C176.2 479.7 176.1 479.6 178 477.9C179.9 476.2 180.1 476.3 184.5 480.3C188.3 483.8 189.4 484.3 190.6 483.4C191.4 482.7 192 481.6 192 481C191.9 478.6 180.8 468.4 178.2 468.4C177.6 468.4 176.7 469 176.3 469.8Z" fill="black"/>
<path d="M589.2 478.1C588.5 478.4 587.5 479.7 587 481C586.4 482.3 584.9 483.9 583.5 484.4C582.1 484.9 581 485.8 581 486.3C581 486.8 583.1 489.6 585.8 492.5C592.9 500.5 593.9 501.4 595.5 501.4C598.8 501.4 598.1 498.3 593.5 492.8C591 489.7 589 486.4 589.2 485.5C589.8 482.3 592.9 483.3 597.8 488.5C601.7 492.6 603.2 493.5 604.9 492.9C607.9 492 607.6 490.8 602.4 485C596.2 478.1 593.1 476.5 589.2 478.1Z" fill="black"/>
<path d="M202.799 495.1L199.999 497.9L198.399 495.6C197.299 493.9 195.899 493.4 192.799 493.4C189.299 493.4 188.099 494 184.899 497.3C182.399 500.1 180.999 502.6 180.499 505.5C179.699 510.1 179.199 509.5 188.099 516.3L191.199 518.7L193.799 515.8C200.199 508.7 209.099 496.2 208.799 494.6C208.299 491.9 205.699 492.1 202.799 495.1ZM195.999 501.9C195.999 504.4 190.799 509.5 188.599 509.2C184.599 508.6 187.199 500.8 191.999 499.2C193.799 498.6 195.999 500.1 195.999 501.9Z" fill="black"/>
<path d="M569.199 495.7C563.399 501.9 570.199 514.4 579.399 514.4C585.099 514.4 589.699 503.4 584.299 502.6C582.599 502.4 581.999 502.9 581.499 505.3C581.099 507.4 580.199 508.4 578.999 508.4C576.399 508.4 575.399 506.3 577.399 505.2C578.299 504.7 580.199 503.2 581.799 501.9L584.499 499.4L581.199 496.4C577.099 492.6 572.299 492.4 569.199 495.7ZM575.999 499.9C575.999 501.5 573.299 503.1 572.299 502.1C571.999 501.7 571.999 500.8 572.299 499.9C573.099 497.9 575.999 497.9 575.999 499.9Z" fill="black"/>
<path d="M209.3 505.2C207.2 506.6 199 519.5 199 521.5C199 524.9 200.8 527.2 203.9 527.9C205.5 528.2 207.4 529.2 208.1 530C210.3 532.6 211.8 531.4 217.6 522.9C223.1 514.7 223.3 514.2 221.6 512.6C219.9 511 219.7 511.1 216.7 514.9C211.5 521.4 208.1 524.6 207 523.9C205.1 522.7 206 519.3 209.5 513.8C211.4 510.8 213 508 213 507.5C213 506 210.5 504.5 209.3 505.2Z" fill="black"/>
<path d="M552.5 508.4C551.3 510.7 550.3 511.4 548 511.4C546.3 511.4 544.6 512.2 543.8 513.3C543.1 514.3 541.5 515.4 540.3 515.8C538.9 516.2 538 517.3 538 518.5C538 520.5 539.7 524.4 541 525.4C541.3 525.7 542.7 527.7 544.1 529.8C545.4 532 546.8 534.2 547.1 534.7C547.9 535.9 552 534.6 552 533.2C552 532.7 550.4 529.6 548.4 526.3C546.3 523 545 519.8 545.3 518.9C546.5 515.8 549.5 517.5 553.4 523.5C555.9 527.5 557.8 529.4 558.9 529.2C561.6 528.7 561.3 525.1 558.1 520.4C554.6 515.3 554.1 511.4 556.8 511.4C557.8 511.4 560.2 513.9 562.5 517.4C566.6 523.5 567.4 524.1 570 522.4C571.2 521.6 571.2 521.2 570 518.7C567.4 513.8 562 506.6 560.4 506C556.7 504.6 554 505.4 552.5 508.4Z" fill="black"/>
<path d="M226.401 520.6C220.601 523.4 218.001 535.2 222.301 539.2C226.101 542.8 234.001 541.6 234.001 537.4C234.001 535.1 232.201 534.4 229.301 535.5C224.401 537.3 224.501 529.6 229.401 525.5C230.701 524.4 231.301 524.4 232.501 525.4C233.301 526.1 234.001 527.2 234.001 528C234.001 529.5 237.501 530.8 239.001 529.9C240.801 528.8 240.001 524.3 237.501 521.9C234.901 519.2 230.301 518.7 226.401 520.6Z" fill="black"/>
<path d="M523.6 525.3C522.6 526.4 520.8 527.4 519.6 527.6C516.7 528 517.2 529.9 523.8 543.1C528.6 552.7 529.8 554.4 531.9 554.4C533.9 554.4 534.1 554 533.6 551.9C533.3 550.5 532.7 548.3 532.4 546.9C531.9 545 532.2 544.4 533.4 544.4C538.3 544.4 540.7 535.6 537.5 529.4C534.5 523.5 527.1 521.4 523.6 525.3ZM531.9 531C534.4 534.2 534.7 539.2 532.4 540.1C529.2 541.3 523.5 532.6 525.5 529.4C526.6 527.6 529.8 528.4 531.9 531Z" fill="black"/>
<path d="M244.401 530.9C243.501 533.2 244.901 534.4 248.601 534.4C251.001 534.4 252.001 534.9 252.001 535.9C252.001 537 250.701 537.4 246.701 537.4C242.701 537.4 240.901 537.9 239.701 539.2C236.101 543.1 238.701 550.4 243.601 550.4C244.601 550.4 246.401 551.1 247.401 551.9C250.501 554.2 251.701 553.7 253.101 549.6C253.701 547.6 255.101 544.3 256.101 542.4C258.701 537.6 258.601 532.9 255.801 531C252.901 528.9 245.101 528.9 244.401 530.9ZM248.601 542.5C249.601 544.2 246.301 547.1 244.801 545.6C244.001 544.8 244.001 544.1 245.001 542.9C246.501 541.1 247.601 541 248.601 542.5Z" fill="black"/>
<path d="M265.5 533.1C263.4 534.9 262.1 537.3 261.4 540.8C260.7 543.6 259.5 548 258.7 550.7C257.1 555.3 257.2 555.5 259.3 557.4C262.7 560.6 264.5 559.6 264.6 554.4C264.6 548.5 267.2 542.5 269.7 542.7C271.3 542.9 271.5 542.1 271.6 536.6C271.8 529.4 270.5 528.7 265.5 533.1Z" fill="black"/>
<path d="M278 534.7C277.4 536.3 277.6 537.3 278.8 538.2C281 539.9 282.4 539.2 282.8 536.2C283.2 532.7 279.3 531.5 278 534.7Z" fill="black"/>
<path d="M484 534.3C484 535.1 488.8 549.5 492 558.1C493.3 561.6 496.6 562.7 497.6 560C498.1 558.7 495.7 550.7 492.5 542.9C491.9 541.2 490.7 538.4 490 536.6C489.1 534.3 488.1 533.4 486.4 533.4C485.1 533.4 484 533.8 484 534.3Z" fill="black"/>
<path d="M500.8 536.4C498.1 539.2 497.8 540 498.3 543.9C498.6 546.6 499.8 549.8 501.4 551.9C503.7 554.8 504.7 555.4 508 555.4C513.6 555.4 518 551.5 518 546.4C518 539.5 512.6 533.4 506.5 533.4C504.9 533.4 502.7 534.6 500.8 536.4ZM510.2 540.1C512.5 542.8 513.2 546.1 512 548.4C510.6 550.9 508.6 551 506 548.4C504.1 546.5 503.2 540.5 504.7 539.1C505.9 537.8 508.7 538.4 510.2 540.1Z" fill="black"/>
<path d="M274.899 543.1C274.399 544.7 272.799 548.9 271.399 552.7C269.999 556.4 269.099 560.1 269.399 560.9C270.299 563.4 273.699 562.6 274.799 559.6C275.399 558.1 276.999 553.8 278.499 549.9C279.899 546.1 280.799 542.4 280.599 541.7C279.599 539.3 275.999 540.2 274.899 543.1Z" fill="black"/>
<path d="M285.8 547.6C282.5 550.3 281 554.1 281 559.4C281 564.7 283.5 567.5 289.1 568.1C293.2 568.6 294 568.3 296.8 565.6C300.4 562.1 301.5 558.8 300.7 553.7C299.9 548.9 297.2 546.4 292.4 545.8C289.3 545.4 287.9 545.8 285.8 547.6ZM294.8 555.2C295.4 561.7 287.9 565.4 287.2 559.1C286.7 555.2 289.5 551.2 292.3 551.6C294 551.8 294.6 552.7 294.8 555.2Z" fill="black"/>
<path d="M471.301 546.9C467.001 549.9 467.701 561 472.501 565.1C477.801 569.7 486.001 566.6 486.001 560.1C486.001 556.4 482.401 556.3 481.001 560C480.301 561.6 479.401 562.4 478.301 562.2C475.601 561.7 475.501 558.7 478.201 557.9C483.401 556.4 486.001 555.1 486.001 553.8C486.001 553.1 484.601 550.9 482.901 548.9C479.401 545 475.101 544.2 471.301 546.9ZM478.301 551.1C479.201 552 477.101 554.4 475.401 554.4C474.601 554.4 474.001 553.5 474.001 552.4C474.001 550.5 476.801 549.6 478.301 551.1Z" fill="black"/>
<path d="M343.101 550.3C341.901 551.5 341.001 553 341.001 553.7C341.001 554.4 340.501 555.5 339.801 556.2C339.101 556.9 338.601 561.6 338.501 568.4L338.301 579.5L340.901 579.2C343.301 578.9 343.601 578.4 344.501 571.6C345.201 566.4 346.001 564 347.301 563.3C349.101 562.2 349.601 557.9 348.001 556.9C346.501 556 346.801 554.4 348.401 554.4C350.301 554.4 352.501 551.5 351.401 550.4C349.201 548.3 345.201 548.2 343.101 550.3Z" fill="black"/>
<path d="M459.7 550.5C458.8 551.1 458 552.7 458 554.2C458 557.6 457 561.4 456.1 561.4C455.8 561.4 454.4 559.6 453 557.4C451.7 555.2 450 553.2 449.3 553C447.8 552.4 445 553.3 445 554.3C445 555.9 455.9 572.9 457.1 573.1C457.9 573.3 459.1 573 459.8 572.6C462 571.1 464.1 551.2 462.2 550C461.8 549.8 460.7 550 459.7 550.5Z" fill="black"/>
<path d="M308.1 551.3C306.9 552.1 303 566.8 303 570.5C303 572.1 303.6 572.5 305.6 572.2C307.9 571.9 308.5 571.2 309.7 566.4C311.5 559.4 313.5 556.3 315.6 557.1C317.3 557.7 317.3 558.5 315.4 571.1C314.8 575.2 314.9 575.4 317.3 575.4C319.6 575.4 319.9 574.8 322 566.3L324.2 557.3L322 554.8C320.6 553.4 318.5 552.4 316.9 552.4C315.4 552.4 313.1 552 311.7 551.5C310.4 551 308.8 550.9 308.1 551.3Z" fill="black"/>
<path d="M401.101 551.3C400.001 552 399.801 554.6 400.401 565.5C400.801 573.6 401.601 579.4 402.301 580.1C403.101 580.9 405.401 581.1 409.201 580.7C413.801 580.2 415.801 579.4 418.701 576.9C422.301 573.8 422.501 573.4 422.401 567.8C422.201 555 418.501 550.4 408.601 550.4C405.301 550.4 401.901 550.8 401.101 551.3ZM413.101 557.3C415.001 558.8 415.501 560.3 415.801 565.6C416.201 572.3 415.601 573.5 411.501 574.8C410.401 575.1 408.901 575 408.301 574.6C406.901 573.7 405.401 558.2 406.501 556.4C407.501 554.8 410.601 555.2 413.101 557.3Z" fill="black"/>
<path d="M429.5 557.9C427.5 559.8 427 561.3 427 565.4C427 570.9 429 575.8 431.5 576.8C434.2 577.8 439.5 577.5 441.3 576.1C443.8 574.3 444 570.1 441.6 569.6C440.5 569.4 439.1 569.9 438.4 570.9C437.1 572.7 433.9 572.6 433.3 570.8C432.9 569.5 437.3 567.4 440.6 567.4C443.7 567.4 444.6 565.2 443 561.3C440.4 555.2 433.8 553.5 429.5 557.9ZM436.8 562.1C436.6 563.1 435.8 563.9 435 563.9C434.2 563.9 433.4 563.1 433.2 562.1C433 560.9 433.5 560.4 435 560.4C436.5 560.4 437 560.9 436.8 562.1Z" fill="black"/>
<path d="M354.1 561.3C351.3 563.9 351 564.8 351 570.3C351 575.5 351.4 576.9 353.5 578.9C357.9 583.4 365.8 581.7 368.9 575.7C372 569.7 368.6 560.2 362.9 559C358 558.1 357.4 558.2 354.1 561.3ZM363.4 566C365.4 571.1 362.8 576.7 359 575.7C356.7 575.1 355.9 569.9 357.5 565.6C358.1 563.9 362.7 564.1 363.4 566Z" fill="black"/>
<path d="M375.1 561.8C374.6 563 374.3 567.7 374.4 572.4C374.5 580.8 374.5 580.9 377 580.9C379.3 580.9 379.5 580.5 379.8 576.4C380.3 567.1 380.9 565.6 383.8 565.2C385.9 565 386.5 564.4 386.5 562.4C386.5 560.1 386.1 559.9 381.2 559.8C376.6 559.7 375.7 560 375.1 561.8Z" fill="black"/>
</svg>
