<svg width="66" height="65" viewBox="0 0 66 65" fill="none" xmlns="http://www.w3.org/2000/svg">
<mask id="path-1-inside-1_2136_303" fill="white">
<path d="M13 9.99961V19.9996H9.1C3.5 19.9996 0 23.0996 0 28.0996C0 33.4996 2.7 35.9996 8.5 35.9996H13V45.4996V54.9996H18H23V59.5996V64.0996L38.8 63.7996C54.4 63.4996 54.7 63.4996 58.3 60.6996C63.2 56.9996 65.3 52.6996 65.3 46.3996C65.3 39.0996 61.7 33.0996 55.3 29.8996C52.7 28.5996 50.3 27.3996 50.1 27.1996C49.8 27.0996 50.7 25.8996 51.9 24.5996C55 21.2996 56.3 15.8996 55 11.2996C53.7 6.49961 52.4 4.79961 48 2.09961C44.8 0.199613 43 -0.000389099 28.8 -0.000389099H13V9.99961ZM44.9 3.59961C50.1 5.69961 52.4 9.29961 52.4 15.2996C52.4 21.3996 49.3 24.8996 43.2 25.6996C37.3 26.4996 37.1 29.9996 43.4 30.6996C50.4 31.5996 58 33.7996 60.4 37.9996C61.7 40.0996 62.4 43.2996 62.5 46.5996C62.5 52.7996 60.3 56.2996 54.4 59.6996C50.9 61.7996 49.4 61.9996 38.5 61.6996L26.5 61.4996L26.2 58.1996L25.9 54.9996H32.2C44.7 54.9996 50 51.7996 50 44.3996C50 36.4996 44.5 33.0996 31.8 32.9996H26V27.9996V22.9996H33C41.1 22.9996 44 21.0996 44 15.9996C44 10.5996 41.2 8.99961 31.5 8.99961H23V14.4996V19.9996H19.5H16V10.9996V3.59961H28.8C37.8 3.59961 42 2.39961 44.9 3.59961ZM40.5 15.9996V19.4996L33.3 19.7996L26 20.0996V15.9996V11.8996L33.3 12.1996L40.5 12.4996V15.9996ZM13 27.9996V32.9996H8.5C4.7 32.9996 3.8 32.5996 3.1 30.6996C1.4 26.2996 4 22.9996 9.1 22.9996H13V27.9996ZM23 37.4996V51.9996H19.5H16V43.9996C16 36.0996 16 35.9996 18.6 35.9996C21.7 35.9996 21.2 32.5 18 32C16.1 31.7 16 32.1996 16 27.8996V22.9996H19.5H23V37.4996ZM44.8 38.3996C48.7 41.7996 47.9 48.7996 43.4 50.8996C42 51.4996 37.6 51.9996 33.5 51.9996H26V43.8996V35.7996L34.4 36.0996C40.8 36.3996 43.3 36.8996 44.8 38.3996Z"/>
</mask>
<path d="M13 9.99961V19.9996H9.1C3.5 19.9996 0 23.0996 0 28.0996C0 33.4996 2.7 35.9996 8.5 35.9996H13V45.4996V54.9996H18H23V59.5996V64.0996L38.8 63.7996C54.4 63.4996 54.7 63.4996 58.3 60.6996C63.2 56.9996 65.3 52.6996 65.3 46.3996C65.3 39.0996 61.7 33.0996 55.3 29.8996C52.7 28.5996 50.3 27.3996 50.1 27.1996C49.8 27.0996 50.7 25.8996 51.9 24.5996C55 21.2996 56.3 15.8996 55 11.2996C53.7 6.49961 52.4 4.79961 48 2.09961C44.8 0.199613 43 -0.000389099 28.8 -0.000389099H13V9.99961ZM44.9 3.59961C50.1 5.69961 52.4 9.29961 52.4 15.2996C52.4 21.3996 49.3 24.8996 43.2 25.6996C37.3 26.4996 37.1 29.9996 43.4 30.6996C50.4 31.5996 58 33.7996 60.4 37.9996C61.7 40.0996 62.4 43.2996 62.5 46.5996C62.5 52.7996 60.3 56.2996 54.4 59.6996C50.9 61.7996 49.4 61.9996 38.5 61.6996L26.5 61.4996L26.2 58.1996L25.9 54.9996H32.2C44.7 54.9996 50 51.7996 50 44.3996C50 36.4996 44.5 33.0996 31.8 32.9996H26V27.9996V22.9996H33C41.1 22.9996 44 21.0996 44 15.9996C44 10.5996 41.2 8.99961 31.5 8.99961H23V14.4996V19.9996H19.5H16V10.9996V3.59961H28.8C37.8 3.59961 42 2.39961 44.9 3.59961ZM40.5 15.9996V19.4996L33.3 19.7996L26 20.0996V15.9996V11.8996L33.3 12.1996L40.5 12.4996V15.9996ZM13 27.9996V32.9996H8.5C4.7 32.9996 3.8 32.5996 3.1 30.6996C1.4 26.2996 4 22.9996 9.1 22.9996H13V27.9996ZM23 37.4996V51.9996H19.5H16V43.9996C16 36.0996 16 35.9996 18.6 35.9996C21.7 35.9996 21.2 32.5 18 32C16.1 31.7 16 32.1996 16 27.8996V22.9996H19.5H23V37.4996ZM44.8 38.3996C48.7 41.7996 47.9 48.7996 43.4 50.8996C42 51.4996 37.6 51.9996 33.5 51.9996H26V43.8996V35.7996L34.4 36.0996C40.8 36.3996 43.3 36.8996 44.8 38.3996Z" fill="black"/>
<path d="M13 19.9996H77V83.9996H13V19.9996ZM13 35.9996V-28.0004H77V35.9996H13ZM13 54.9996V119H-51V54.9996H13ZM23 54.9996V-9.00039H87V54.9996H23ZM23 64.0996L24.215 128.088L-41 129.326V64.0996H23ZM38.8 63.7996L40.0305 127.788L40.0228 127.788L40.015 127.788L38.8 63.7996ZM58.3 60.6996L19.0078 10.1811L19.3686 9.90042L19.7334 9.62496L58.3 60.6996ZM55.3 29.8996L83.9217 -27.3437L55.3 29.8996ZM50.1 27.1996L70.3386 -33.5161L84.6716 -28.7384L95.3548 -18.0552L50.1 27.1996ZM51.9 24.5996L4.87258 -18.8103L5.06226 -19.0158L5.25373 -19.2196L51.9 24.5996ZM55 11.2996L-6.5878 28.7049L-6.68299 28.368L-6.77449 28.0302L55 11.2996ZM48 2.09961L80.6745 -52.9311L81.0755 -52.693L81.473 -52.449L48 2.09961ZM13 -0.000389099H-51V-64.0004H13V-0.000389099ZM44.9 3.59961L20.9344 62.9431L20.6815 62.841L20.4295 62.7367L44.9 3.59961ZM43.2 25.6996L34.6007 -37.72L34.7392 -37.7388L34.8778 -37.757L43.2 25.6996ZM43.4 30.6996L50.4676 -32.909L51.0151 -32.8481L51.5614 -32.7779L43.4 30.6996ZM60.4 37.9996L5.98303 71.6863L5.39074 70.7295L4.83244 69.7525L60.4 37.9996ZM62.5 46.5996L126.471 44.6611L126.5 45.6301V46.5996H62.5ZM54.4 59.6996L21.4723 4.82006L21.9561 4.52979L22.4449 4.24809L54.4 59.6996ZM38.5 61.6996L39.5665 -2.2915L39.9137 -2.28572L40.2608 -2.27616L38.5 61.6996ZM26.5 61.4996L25.4335 125.491L-32.0336 124.533L-37.2372 67.2939L26.5 61.4996ZM26.2 58.1996L89.9206 52.2258L89.929 52.3155L89.9372 52.4053L26.2 58.1996ZM25.9 54.9996L-37.8206 60.9734L-44.3807 -9.00039H25.9V54.9996ZM31.8 32.9996V-31.0004H32.052L32.3039 -30.9984L31.8 32.9996ZM26 32.9996V96.9996H-38V32.9996H26ZM26 22.9996H-38V-41.0004H26V22.9996ZM23 8.99961H-41V-55.0004H23V8.99961ZM23 19.9996H87V83.9996H23V19.9996ZM16 19.9996V83.9996H-48V19.9996H16ZM16 3.59961H-48V-60.4004H16V3.59961ZM40.5 19.4996H104.5V80.8885L43.1643 83.4441L40.5 19.4996ZM33.3 19.7996L35.9643 83.7441L35.9461 83.7449L35.9279 83.7456L33.3 19.7996ZM26 20.0996L28.6279 84.0456L-38 86.7838V20.0996H26ZM26 11.8996H-38V-54.7845L28.6279 -52.0464L26 11.8996ZM33.3 12.1996L35.9279 -51.7464L35.9461 -51.7457L35.9643 -51.7449L33.3 12.1996ZM40.5 12.4996L43.1643 -51.4449L104.5 -48.8893V12.4996H40.5ZM13 32.9996H77V96.9996H13V32.9996ZM3.1 30.6996L62.7991 7.63406L62.9802 8.10287L63.154 8.57447L3.1 30.6996ZM13 22.9996V-41.0004H77V22.9996H13ZM23 51.9996H87V116H23V51.9996ZM16 51.9996V116H-48V51.9996H16ZM18 32L8.11988 95.2328L8.06913 95.2248L8.0184 95.2168L18 32ZM16 22.9996H-48V-41.0004H16V22.9996ZM23 22.9996V-41.0004H87V22.9996H23ZM44.8 38.3996L2.74335 86.6411L1.09318 85.2025L-0.454833 83.6544L44.8 38.3996ZM43.4 50.8996L70.4647 108.895L69.5443 109.325L68.6108 109.725L43.4 50.8996ZM26 51.9996V116H-38V51.9996H26ZM26 35.7996H-38V-30.5269L28.2843 -28.1596L26 35.7996ZM34.4 36.0996L36.6843 -27.8596L37.0406 -27.8469L37.3967 -27.8302L34.4 36.0996ZM13 9.99961H77V19.9996H13H-51V9.99961H13ZM13 19.9996V83.9996H9.1V19.9996V-44.0004H13V19.9996ZM9.1 19.9996V83.9996C17.717 83.9996 31.9958 81.5408 44.9693 70.0088C58.819 57.6979 64 41.3835 64 28.0996H0H-64C-64 9.81577 -57.069 -10.5487 -40.0693 -25.6596C-23.9458 -39.9916 -5.117 -44.0004 9.1 -44.0004V19.9996ZM0 28.0996H64C64 20.9261 62.1151 2.48907 45.6239 -12.8242C30.1348 -27.2069 13.2013 -28.0004 8.5 -28.0004V35.9996V99.9996C-2.00133 99.9996 -23.1848 97.9561 -41.4739 80.9734C-60.7651 63.0602 -64 40.6732 -64 28.0996H0ZM8.5 35.9996V-28.0004H13V35.9996V99.9996H8.5V35.9996ZM13 35.9996H77V45.4996H13H-51V35.9996H13ZM13 45.4996H77V54.9996H13H-51V45.4996H13ZM13 54.9996V-9.00039H18V54.9996V119H13V54.9996ZM18 54.9996V-9.00039H23V54.9996V119H18V54.9996ZM23 54.9996H87V59.5996H23H-41V54.9996H23ZM23 59.5996H87V64.0996H23H-41V59.5996H23ZM23 64.0996L21.785 0.111141L37.585 -0.188858L38.8 63.7996L40.015 127.788L24.215 128.088L23 64.0996ZM38.8 63.7996L37.5695 -0.18856C41.7267 -0.268509 43.9647 -0.31382 45.5093 -0.372093C47.376 -0.442505 45.8411 -0.463882 43.1504 -0.0426102C39.4338 0.539284 33.4356 1.93798 26.7587 5.35688C21.391 8.10539 17.5884 11.285 19.0078 10.1811L58.3 60.6996L97.5922 111.218C97.2116 111.514 92.0215 115.744 85.0975 119.289C76.8644 123.505 69.1412 125.447 62.9496 126.417C57.7839 127.226 53.024 127.435 50.3344 127.537C47.3228 127.651 43.6733 127.718 40.0305 127.788L38.8 63.7996ZM58.3 60.6996L19.7334 9.62496C15.9833 12.4567 10.3336 17.8454 6.14904 26.3985C2.01645 34.8454 1.3 42.3238 1.3 46.3996H65.3H129.3C129.3 56.7755 127.534 69.5539 121.126 82.6507C114.666 95.8538 105.517 105.243 96.8666 111.774L58.3 60.6996ZM65.3 46.3996H1.3C1.3 53.4264 3.09697 61.7259 7.92815 69.7187C12.8 77.7787 19.6079 83.6077 26.6783 87.143L55.3 29.8996L83.9217 -27.3437C112.884 -12.8624 129.3 15.8585 129.3 46.3996H65.3ZM55.3 29.8996L26.6783 87.143C25.4891 86.5483 23.8959 85.7526 22.5805 85.0776C21.9691 84.7639 20.9512 84.238 19.8801 83.6512C19.3995 83.3879 18.3431 82.8046 17.0844 82.0412C16.4765 81.6725 15.302 80.9487 13.8825 79.9718C13.2769 79.5551 9.20842 76.8177 4.84517 72.4544L50.1 27.1996L95.3548 -18.0552C92.8068 -20.6033 90.5832 -22.3883 89.4773 -23.2506C88.2082 -24.2401 87.1368 -24.9972 86.4431 -25.4746C85.082 -26.4113 83.9821 -27.0875 83.464 -27.4017C82.385 -28.0562 81.5692 -28.5027 81.3824 -28.6051C80.8988 -28.87 80.6809 -28.9771 81.0195 -28.8034C81.6041 -28.5034 82.5109 -28.0491 83.9217 -27.3437L55.3 29.8996ZM50.1 27.1996L29.8614 87.9153C17.6707 83.8518 5.28811 75.5776 -3.42636 62.3174C-11.5689 49.9275 -13.5953 37.6333 -13.9091 29.615C-14.4643 15.4264 -10.0687 4.91608 -9.02813 2.40794C-6.10083 -4.64761 -2.50215 -9.6386 -1.73404 -10.7197C0.845404 -14.35 3.4123 -17.2283 4.87258 -18.8103L51.9 24.5996L98.9274 68.0095C99.1877 67.7276 100.705 66.0992 102.609 63.4189C103.04 62.8128 106.395 58.2218 109.2 51.46C110.18 49.0988 114.545 38.7087 113.993 24.61C113.681 16.6367 111.665 4.37973 103.542 -7.98099C94.8463 -21.212 82.4918 -29.465 70.3386 -33.5161L50.1 27.1996ZM51.9 24.5996L5.25373 -19.2196C-1.8453 -11.6626 -5.52155 -3.3493 -7.1987 3.77861C-8.89346 10.9813 -9.16852 19.5731 -6.5878 28.7049L55 11.2996L116.588 -6.10564C123.774 19.324 117.577 48.1599 98.5463 68.4188L51.9 24.5996ZM55 11.2996L-6.77449 28.0302C-6.68587 28.3574 -4.71167 36.2067 1.74414 44.6848C4.89038 48.8166 8.09836 51.8081 10.575 53.8067C12.8067 55.6076 14.4647 56.6101 14.527 56.6483L48 2.09961L81.473 -52.449C85.6311 -49.8975 95.2425 -43.8109 103.581 -32.8606C112.112 -21.6574 115.386 -10.5582 116.774 -5.43098L55 11.2996ZM48 2.09961L15.3255 57.1303C16.4781 57.8147 20.0249 59.8558 25.037 61.5606C29.8874 63.2105 33.7786 63.7619 35.5571 63.9567C37.0197 64.1169 37.5454 64.0803 35.9418 64.0453C34.4942 64.0136 32.3395 63.9996 28.8 63.9996V-0.000389099V-64.0004C34.5989 -64.0004 42.6087 -64.0364 49.4929 -63.2824C61.6663 -61.9492 71.6292 -58.3017 80.6745 -52.9311L48 2.09961ZM28.8 -0.000389099V63.9996H13V-0.000389099V-64.0004H28.8V-0.000389099ZM13 -0.000389099H77V9.99961H13H-51V-0.000389099H13ZM44.9 3.59961L68.8656 -55.7439C80.4343 -51.0719 94.3833 -42.3152 104.493 -26.5323C114.31 -11.2057 116.4 4.37264 116.4 15.2996H52.4H-11.6C-11.6 20.2266 -10.6596 31.0049 -3.29257 42.5065C4.36673 54.4644 14.5657 60.3711 20.9344 62.9431L44.9 3.59961ZM52.4 15.2996H116.4C116.4 29.0453 112.766 48.2312 98.0167 64.8993C83.3394 81.4859 64.8826 87.404 51.5222 89.1562L43.2 25.6996L34.8778 -37.757C27.6174 -36.8048 13.7606 -33.0366 2.15831 -19.9251C-9.51613 -6.732 -11.6 7.65392 -11.6 15.2996H52.4ZM43.2 25.6996L51.7993 89.1193C55.5231 88.6143 63.6615 87.0921 72.8679 81.549C80.1389 77.1713 102.725 60.7047 102.725 28.2371C102.725 -4.99329 79.2224 -21.5335 71.4284 -25.9491C61.9448 -31.3218 53.7325 -32.5462 50.4676 -32.909L43.4 30.6996L36.3324 94.3082C29.9175 93.5954 19.3677 91.671 8.33412 85.4202C-1.00986 80.1265 -25.275 62.53 -25.275 28.2371C-25.275 -5.29297 -1.92642 -22.8283 6.84457 -28.1092C17.551 -34.5553 27.9269 -36.8151 34.6007 -37.72L43.2 25.6996ZM43.4 30.6996L51.5614 -32.7779C58.0744 -31.9405 67.1817 -30.2591 76.681 -26.5907C83.8919 -23.8059 103.621 -15.3606 115.968 6.24672L60.4 37.9996L4.83244 69.7525C10.2015 79.1484 16.8814 84.7539 21.033 87.6578C25.258 90.613 28.8043 92.1334 30.569 92.8149C32.4795 93.5527 33.8172 93.8839 34.3424 94.0045C34.9274 94.1389 35.2248 94.1753 35.2386 94.1771L43.4 30.6996ZM60.4 37.9996L114.817 4.31291C124.487 19.9336 126.206 35.9377 126.471 44.6611L62.5 46.5996L-1.47064 48.5381C-1.40781 50.6114 -1.1502 53.3416 -0.370907 56.6257C0.331181 59.5845 1.97309 65.2087 5.98303 71.6863L60.4 37.9996ZM62.5 46.5996H126.5C126.5 57.4324 124.513 72.6833 115.045 87.9427C106.022 102.484 94.0754 110.702 86.3551 115.151L54.4 59.6996L22.4449 4.24809C20.6246 5.29706 12.7283 10.0648 6.28047 20.4565C-0.612698 31.5659 -1.5 41.9668 -1.5 46.5996H62.5ZM54.4 59.6996L87.3277 114.579C80.7647 118.517 70.9822 123.358 57.253 125.094C49.1784 126.115 40.6584 125.783 36.7392 125.675L38.5 61.6996L40.2608 -2.27616C42.9468 -2.20224 44.1632 -2.18693 44.7434 -2.19007C45.4292 -2.19379 43.8204 -2.22659 41.197 -1.89488C37.983 -1.48853 33.7038 -0.606918 28.9661 1.2181C24.6742 2.87137 21.7486 4.65425 21.4723 4.82006L54.4 59.6996ZM38.5 61.6996L37.4335 125.691L25.4335 125.491L26.5 61.4996L27.5665 -2.4915L39.5665 -2.2915L38.5 61.6996ZM26.5 61.4996L-37.2372 67.2939L-37.5372 63.9939L26.2 58.1996L89.9372 52.4053L90.2372 55.7053L26.5 61.4996ZM26.2 58.1996L-37.5206 64.1734L-37.8206 60.9734L25.9 54.9996L89.6206 49.0258L89.9206 52.2258L26.2 58.1996ZM25.9 54.9996V-9.00039H32.2V54.9996V119H25.9V54.9996ZM32.2 54.9996V-9.00039C35.7925 -9.00039 25.5593 -9.99178 12.9648 -2.4678C5.23876 2.14774 -2.56289 9.49707 -7.8908 19.8161C-12.9706 29.6547 -14 38.6947 -14 44.3996H50H114C114 53.8045 112.308 66.0195 105.844 78.5393C99.1316 91.5396 89.2237 101.076 78.6102 107.417C60.2407 118.391 41.1075 119 32.2 119V54.9996ZM50 44.3996H-14C-14 49.7471 -13.0678 58.3672 -8.32614 67.8713C-3.33086 77.8837 4.10265 85.2756 11.7632 90.0594C24.368 97.9307 34.7635 97.0249 31.2961 96.9976L31.8 32.9996L32.3039 -30.9984C41.5365 -30.9257 61.032 -30.0815 79.5618 -18.5101C104.707 -2.80742 114 22.7855 114 44.3996H50ZM31.8 32.9996V96.9996H26V32.9996V-31.0004H31.8V32.9996ZM26 32.9996H-38V27.9996H26H90V32.9996H26ZM26 27.9996H-38V22.9996H26H90V27.9996H26ZM26 22.9996V-41.0004H33V22.9996V86.9996H26V22.9996ZM33 22.9996V-41.0004C32.8657 -41.0004 30.3852 -41.0204 26.6321 -40.3346C22.9786 -39.667 15.4166 -37.8579 7.02706 -32.4862C-2.33591 -26.4912 -10.213 -17.6476 -15.051 -6.77634C-19.437 3.07925 -20 11.6149 -20 15.9996H44H108C108 31.8111 102.362 58.4621 76.0479 75.3104C57.6161 87.1121 38.4075 86.9996 33 86.9996V22.9996ZM44 15.9996H-20C-20 19.4774 -19.6683 28.5346 -14.8354 39.1488C-9.27608 51.3583 -0.111549 60.5658 10.0281 66.2652C18.6509 71.112 26.0284 72.3355 28.4177 72.6798C31.1197 73.0691 32.5584 72.9996 31.5 72.9996V8.99961V-55.0004C35.2475 -55.0004 54.4647 -55.5922 72.7469 -45.316C84.799 -38.5415 95.2698 -27.9216 101.657 -13.8933C107.318 -1.4604 108 9.82184 108 15.9996H44ZM31.5 8.99961V72.9996H23V8.99961V-55.0004H31.5V8.99961ZM23 8.99961H87V14.4996H23H-41V8.99961H23ZM23 14.4996H87V19.9996H23H-41V14.4996H23ZM23 19.9996V83.9996H19.5V19.9996V-44.0004H23V19.9996ZM19.5 19.9996V83.9996H16V19.9996V-44.0004H19.5V19.9996ZM16 19.9996H-48V10.9996H16H80V19.9996H16ZM16 10.9996H-48V3.59961H16H80V10.9996H16ZM16 3.59961V-60.4004H28.8V3.59961V67.5996H16V3.59961ZM28.8 3.59961V-60.4004C30.8044 -60.4004 30.9828 -60.4801 35.3608 -60.7389C36.9613 -60.8335 41.2541 -61.0906 46.2407 -60.7929C51.6144 -60.4721 59.987 -59.4203 69.3705 -55.5375L44.9 3.59961L20.4295 62.7367C28.363 66.0195 35.1231 66.7713 38.6125 66.9796C40.3687 67.0845 41.6803 67.0704 42.2781 67.0575C42.8734 67.0447 43.1802 67.0224 42.9142 67.0381C42.2172 67.0793 35.7956 67.5996 28.8 67.5996V3.59961ZM40.5 15.9996H104.5V19.4996H40.5H-23.5V15.9996H40.5ZM40.5 19.4996L43.1643 83.4441L35.9643 83.7441L33.3 19.7996L30.6357 -44.1449L37.8357 -44.4449L40.5 19.4996ZM33.3 19.7996L35.9279 83.7456L28.6279 84.0456L26 20.0996L23.3721 -43.8464L30.6721 -44.1464L33.3 19.7996ZM26 20.0996H-38V15.9996H26H90V20.0996H26ZM26 15.9996H-38V11.8996H26H90V15.9996H26ZM26 11.8996L28.6279 -52.0464L35.9279 -51.7464L33.3 12.1996L30.6721 76.1456L23.3721 75.8456L26 11.8996ZM33.3 12.1996L35.9643 -51.7449L43.1643 -51.4449L40.5 12.4996L37.8357 76.4441L30.6357 76.1441L33.3 12.1996ZM40.5 12.4996H104.5V15.9996H40.5H-23.5V12.4996H40.5ZM13 27.9996H77V32.9996H13H-51V27.9996H13ZM13 32.9996V96.9996H8.5V32.9996V-31.0004H13V32.9996ZM8.5 32.9996V96.9996C8.25569 96.9996 -5.93438 97.6612 -20.5733 91.3874C-44.2502 81.2402 -53.63 61.8469 -56.954 52.8248L3.1 30.6996L63.154 8.57447C62.235 6.0801 59.5936 -0.681114 53.8054 -7.96308C47.198 -16.2756 38.8139 -22.4208 29.8483 -26.2632C22.0739 -29.5951 15.5626 -30.4517 12.9418 -30.7313C11.4172 -30.894 10.2441 -30.9523 9.60998 -30.9761C8.96008 -31.0005 8.54597 -31.0004 8.5 -31.0004V32.9996ZM3.1 30.6996L-56.5991 53.7652C-63.4599 36.0079 -65.0747 9.06608 -46.8697 -14.2194C-29.9149 -35.9057 -6.12561 -41.0004 9.1 -41.0004V22.9996V86.9996C19.2256 86.9996 39.1649 83.5549 53.9697 64.6186C70.0247 44.0831 67.9599 20.9914 62.7991 7.63406L3.1 30.6996ZM9.1 22.9996V-41.0004H13V22.9996V86.9996H9.1V22.9996ZM13 22.9996H77V27.9996H13H-51V22.9996H13ZM23 37.4996H87V51.9996H23H-41V37.4996H23ZM23 51.9996V116H19.5V51.9996V-12.0004H23V51.9996ZM19.5 51.9996V116H16V51.9996V-12.0004H19.5V51.9996ZM16 51.9996H-48V43.9996H16H80V51.9996H16ZM16 43.9996H-48C-48 42.5345 -48.0102 39.6581 -47.9173 37.0975C-47.8799 36.0652 -47.7606 27.2839 -44.6126 17.4769C-42.7212 11.5844 -39.0046 2.82435 -31.4778 -5.75617C-23.44 -14.9193 -13.8455 -20.7132 -4.75404 -24.0156C3.31525 -26.9468 10.1312 -27.5954 13.0823 -27.8108C14.7678 -27.9339 16.1466 -27.9713 16.9501 -27.9862C17.7418 -28.001 18.4152 -28.0004 18.6 -28.0004V35.9996V99.9996C17.9382 99.9996 19.9536 100.028 22.4013 99.8495C24.8547 99.6704 31.2441 99.0913 38.9478 96.293C47.6736 93.1233 56.9634 87.5256 64.7473 78.6519C72.0202 70.3608 75.5337 61.9836 77.2626 56.5973C78.9321 51.3964 79.4961 47.2108 79.7056 45.4157C79.9374 43.4298 79.9884 42.0163 79.9986 41.7361C80.0102 41.4161 80 41.5147 80 43.9996H16ZM18.6 35.9996V-28.0004C7.84505 -28.0004 -9.80897 -24.8511 -24.7783 -10.0213C-40.4521 5.50633 -45.2068 26.1121 -42.6599 43.4756C-37.7903 76.674 -11.0352 92.2398 8.11988 95.2328L18 32L27.8801 -31.2328C50.2352 -27.7398 78.8403 -10.1742 83.9849 24.899C86.6693 43.1999 81.6584 64.7118 65.3064 80.9113C49.659 96.4129 30.905 99.9996 18.6 99.9996V35.9996ZM18 32L8.0184 95.2168C8.98991 95.3702 10.0128 95.494 9.30272 95.4037C9.12368 95.381 8.35282 95.2839 7.41012 95.1394C6.45475 94.9929 4.7972 94.7197 2.77061 94.2615C-1.04727 93.3982 -8.70634 91.3429 -17.1153 86.1458C-26.4028 80.4056 -33.8074 72.5914 -38.9974 63.6924C-47.2982 49.4592 -47.737 35.6671 -47.8009 34.7457C-48.0227 31.5525 -48 28.4543 -48 27.8996H16H80C80 29.495 80.0352 27.9468 79.8916 25.8787C79.8088 24.6867 79.5686 21.6576 78.7517 17.788C77.949 13.986 76.113 6.9928 71.5724 -0.792755C66.5136 -9.46675 59.27 -17.1184 50.1797 -22.7366C41.9681 -27.8119 34.5426 -29.7858 31.0013 -30.5866C29.113 -31.0136 27.6044 -31.2601 26.8097 -31.382C26.3824 -31.4475 26.039 -31.4953 25.8267 -31.5241C25.6173 -31.5524 25.4642 -31.5719 25.4344 -31.5757C25.0934 -31.619 26.5351 -31.4452 27.9816 -31.2168L18 32ZM16 27.8996H-48V22.9996H16H80V27.8996H16ZM16 22.9996V-41.0004H19.5V22.9996V86.9996H16V22.9996ZM19.5 22.9996V-41.0004H23V22.9996V86.9996H19.5V22.9996ZM23 22.9996H87V37.4996H23H-41V22.9996H23ZM44.8 38.3996L86.8567 -9.84184C107.322 8.00004 113.051 32.7724 110.847 52.3121C108.66 71.6914 97.2403 96.4 70.4647 108.895L43.4 50.8996L16.3353 -7.09611C-5.94028 3.29918 -14.7102 23.4578 -16.3465 37.9621C-18.001 52.6268 -13.8223 72.1992 2.74335 86.6411L44.8 38.3996ZM43.4 50.8996L68.6108 109.725C58.0992 114.23 47.7229 115.15 46.5789 115.278C42.4176 115.743 37.9167 116 33.5 116V51.9996V-12.0004C33.1833 -12.0004 32.9324 -11.9941 32.3461 -11.9285C32.0554 -11.896 31.0767 -11.782 29.5961 -11.4935C28.8435 -11.3468 27.5874 -11.0828 25.9986 -10.6522C24.6205 -10.2787 21.7409 -9.44785 18.1892 -7.92567L43.4 50.8996ZM33.5 51.9996V116H26V51.9996V-12.0004H33.5V51.9996ZM26 51.9996H-38V43.8996H26H90V51.9996H26ZM26 43.8996H-38V35.7996H26H90V43.8996H26ZM26 35.7996L28.2843 -28.1596L36.6843 -27.8596L34.4 36.0996L32.1157 100.059L23.7157 99.7588L26 35.7996ZM34.4 36.0996L37.3967 -27.8302C40.7253 -27.6742 47.681 -27.3355 55.0129 -25.744C63.8166 -23.8332 77.6979 -19.2121 90.0548 -6.85522L44.8 38.3996L-0.454833 83.6544C10.4021 94.5113 22.2834 98.1324 27.8621 99.3433C31.969 100.235 34.4748 100.173 31.4033 100.029L34.4 36.0996Z" fill="black" mask="url(#path-1-inside-1_2136_303)"/>
</svg>
