<svg width="104" height="36" viewBox="0 0 104 36" fill="none" xmlns="http://www.w3.org/2000/svg">
<g clip-path="url(#clip0_2160_12478)">
<path d="M39.4021 8.63606V0.909C39.4021 0.769446 39.3545 0.635608 39.2696 0.536929C39.1847 0.43825 39.0696 0.382812 38.9496 0.382812H28.9943C26.6473 0.382812 24.8561 0.550316 23.6207 0.885322C22.3278 1.21233 21.0996 1.82019 20.0006 2.67699C19.9263 2.73673 19.8381 2.76873 19.7478 2.76873C19.6574 2.76873 19.5692 2.73673 19.4949 2.67699C18.4032 1.82579 17.183 1.22193 15.8986 0.897161C14.6625 0.562155 12.8713 0.393776 10.525 0.392022H0.569701C0.449687 0.392022 0.334588 0.447459 0.249725 0.546138C0.164863 0.644817 0.117188 0.778656 0.117188 0.918209V34.9704C0.117188 35.11 0.164863 35.2438 0.249725 35.3425C0.334588 35.4412 0.449687 35.4966 0.569701 35.4966H11.0126C12.8407 35.4966 14.4581 35.2975 15.8647 34.8994C17.2708 34.4982 18.4666 33.9154 19.4655 33.1393C19.5651 33.063 19.6646 32.9814 19.7619 32.8999C19.8581 32.9841 19.9554 33.063 20.0549 33.1393C21.0493 33.9154 22.2496 34.4982 23.6558 34.8994C25.062 35.3006 26.6797 35.4966 28.5079 35.4966H38.9507C39.0708 35.4966 39.1859 35.4412 39.2707 35.3425C39.3556 35.2438 39.4033 35.11 39.4033 34.9704V22.6576H39.3931L39.3863 16.5144C39.3863 16.3748 39.3386 16.241 39.2538 16.1423C39.1689 16.0437 39.0538 15.9882 38.9338 15.9882L29.3835 15.9987C28.5482 16.018 27.7529 16.4177 27.1683 17.1117C26.5838 17.8058 26.2569 18.7388 26.2578 19.7103C26.2586 20.6817 26.5873 21.6139 27.1731 22.3065C27.7589 22.9991 28.555 23.3968 29.3903 23.414H34.9539C35.0739 23.414 35.189 23.4695 35.2739 23.5682C35.3588 23.6668 35.4064 23.8007 35.4064 23.9402V30.8333C35.4064 30.9728 35.3588 31.1067 35.2739 31.2053C35.189 31.304 35.0739 31.3595 34.9539 31.3595H28.9581C26.9686 31.3595 25.4063 31.1455 24.2712 30.7175C23.1399 30.2808 22.2349 29.677 21.5674 28.893C20.7977 27.9712 20.1837 26.8896 19.7574 25.7043C19.3317 26.8892 18.7176 27.9701 17.9473 28.8903C17.2754 29.6796 16.3737 30.2808 15.2436 30.7149C14.1134 31.149 12.5466 31.3568 10.5567 31.3568H4.56087C4.44085 31.3568 4.32576 31.3014 4.24089 31.2027C4.15603 31.104 4.10835 30.9702 4.10835 30.8306V5.05667C4.10835 4.91712 4.15603 4.78328 4.24089 4.6846C4.32576 4.58592 4.44085 4.53048 4.56087 4.53048H10.4537C12.8294 4.53048 14.5524 4.7699 15.6226 5.24873C17.0193 5.88015 18.2166 7.086 19.2144 8.86627C19.2766 8.9794 19.34 9.09516 19.401 9.21355C19.5307 9.45897 19.6489 9.71235 19.7551 9.97258C19.8683 9.70948 19.9814 9.45296 20.1081 9.21092C20.1737 9.08727 20.2393 8.96756 20.3049 8.84916C21.3042 7.07854 22.4981 5.87928 23.8866 5.25136C24.9583 4.77253 26.6816 4.53399 29.0565 4.53575H34.9483C35.0683 4.53575 35.1834 4.59118 35.2682 4.68986C35.3531 4.78854 35.4008 4.92238 35.4008 5.06193V8.64132C35.4008 8.78088 35.4485 8.91471 35.5333 9.01339C35.6182 9.11207 35.7333 9.16751 35.8533 9.16751H38.9519C39.0115 9.16717 39.0705 9.15313 39.1254 9.1262C39.1803 9.09927 39.2302 9.05999 39.272 9.01061C39.3138 8.96122 39.3469 8.90271 39.3692 8.83843C39.3915 8.77416 39.4027 8.70538 39.4021 8.63606ZM29.7534 21.4658C29.4547 21.4661 29.1627 21.3633 28.9142 21.1706C28.6657 20.9778 28.4719 20.7037 28.3574 20.3829C28.2429 20.0621 28.2128 19.7091 28.2708 19.3684C28.3289 19.0276 28.4725 18.7146 28.6836 18.4688C28.8946 18.223 29.1636 18.0555 29.4565 17.9875C29.7495 17.9195 30.0531 17.954 30.3292 18.0867C30.6052 18.2194 30.8413 18.4443 31.0074 18.7329C31.1735 19.0216 31.2623 19.361 31.2625 19.7084C31.2628 19.939 31.224 20.1675 31.1483 20.3807C31.0726 20.5939 30.9615 20.7877 30.8213 20.9509C30.6812 21.1141 30.5147 21.2436 30.3315 21.332C30.1482 21.4203 29.9518 21.4658 29.7534 21.4658Z" fill="#F85862"/>
<path d="M65.318 3.60984C64.2373 2.9828 63.0011 2.66885 61.6097 2.66797H56.3549C56.2348 2.66797 56.1197 2.72341 56.0349 2.82209C55.95 2.92077 55.9023 3.0546 55.9023 3.19416V17.3144C55.9023 17.4539 55.95 17.5878 56.0349 17.6865C56.1197 17.7851 56.2348 17.8406 56.3549 17.8406H61.6051C62.9966 17.8406 64.2327 17.5266 65.3135 16.8987C66.3552 16.3102 67.2285 15.3842 67.8283 14.2323C68.4309 13.0817 68.7322 11.7543 68.7322 10.2503C68.7322 8.74631 68.4343 7.42076 67.8385 6.27367C67.2366 5.12189 66.3613 4.19686 65.318 3.60984ZM65.6993 12.9918C65.3086 13.7799 64.7244 14.4143 64.0216 14.8137C63.2352 15.2545 62.3704 15.4731 61.4977 15.4517H58.7769C58.6569 15.4517 58.5418 15.3963 58.457 15.2976C58.3721 15.1989 58.3244 15.0651 58.3244 14.9255V5.57252C58.3244 5.43297 58.3721 5.29913 58.457 5.20045C58.5418 5.10177 58.6569 5.04634 58.7769 5.04634H61.492C62.3651 5.02447 63.2301 5.24404 64.0159 5.68697C64.7189 6.08489 65.3032 6.71856 65.6936 7.50626C66.0791 8.35029 66.2807 9.29137 66.2807 10.247C66.2807 11.2027 66.0791 12.1438 65.6936 12.9878L65.6993 12.9918Z" fill="#F85862"/>
<path d="M82.4979 10.6008V15.8627C82.4983 15.9443 82.4824 16.025 82.4514 16.0983C82.4204 16.1716 82.3751 16.2355 82.3191 16.2849C81.6611 16.8426 80.9289 17.271 80.1516 17.553C79.2601 17.8846 78.3295 18.0523 77.3935 18.0503C76.1406 18.0728 74.9031 17.7267 73.7961 17.044C72.754 16.4016 71.8836 15.4387 71.2801 14.2604C70.6818 13.0389 70.3672 11.6573 70.3672 10.2515C70.3672 8.84577 70.6818 7.46419 71.2801 6.24264C71.8846 5.06149 72.7585 4.09805 73.8051 3.45911C74.9201 2.77572 76.1649 2.42879 77.4252 2.45015C78.4447 2.43456 79.4572 2.6476 80.4073 3.07763C81.1257 3.40886 81.7813 3.90045 82.3372 4.52464C82.3815 4.57319 82.4168 4.63162 82.4412 4.69642C82.4656 4.76123 82.4785 4.83109 82.4791 4.90182C82.4798 4.97255 82.4681 5.0427 82.4449 5.10809C82.4217 5.17347 82.3874 5.23274 82.344 5.28235L81.43 6.32025C81.3491 6.40992 81.2421 6.4606 81.1304 6.46206C81.0187 6.46353 80.9106 6.41567 80.8281 6.32815C79.9193 5.39973 78.7456 4.89837 77.5361 4.92191C76.6842 4.90411 75.842 5.13524 75.0868 5.59412C74.386 6.02616 73.8047 6.68019 73.4103 7.4805C72.9984 8.32405 72.7893 9.28099 72.805 10.2509C72.7923 11.2076 73.0018 12.1506 73.4114 12.9805C73.8086 13.7836 74.3888 14.4437 75.088 14.8879C75.8331 15.3597 76.6708 15.5986 77.5191 15.5812C78.3656 15.599 79.2038 15.3835 79.9649 14.9524C80.0373 14.9072 80.0978 14.84 80.1398 14.758C80.1819 14.676 80.2039 14.5822 80.2036 14.4867V13.2449C80.2036 13.1053 80.156 12.9715 80.0711 12.8728C79.9862 12.7741 79.8711 12.7187 79.7511 12.7187H77.8777C77.7577 12.7187 77.6426 12.6633 77.5577 12.5646C77.4729 12.4659 77.4252 12.3321 77.4252 12.1925V10.6008C77.4252 10.4612 77.4729 10.3274 77.5577 10.2287C77.6426 10.13 77.7577 10.0746 77.8777 10.0746H82.0499C82.1691 10.076 82.2831 10.132 82.3669 10.2306C82.4508 10.3291 82.4979 10.4621 82.4979 10.6008Z" fill="#F85862"/>
<path d="M47.4623 36.0613C47.201 36.0613 46.9883 35.8613 46.9883 35.6127V0.413419C46.9883 0.166111 47.201 -0.0351562 47.4623 -0.0351562C47.7236 -0.0351562 47.9374 0.166111 47.9374 0.413419V35.6127C47.9329 35.8613 47.7202 36.0613 47.4623 36.0613Z" fill="#5CB85C"/>
<path d="M58.6448 24.7993H56.3822C56.2622 24.7993 56.1471 24.7438 56.0622 24.6452C55.9774 24.5465 55.9297 24.4126 55.9297 24.2731V23.6824C55.9297 23.5429 55.9774 23.409 56.0622 23.3104C56.1471 23.2117 56.2622 23.1562 56.3822 23.1562H63.567C63.687 23.1562 63.8021 23.2117 63.887 23.3104C63.9718 23.409 64.0195 23.5429 64.0195 23.6824V24.2731C64.0195 24.4126 63.9718 24.5465 63.887 24.6452C63.8021 24.7438 63.687 24.7993 63.567 24.7993H61.3044C61.1844 24.7993 61.0693 24.8547 60.9844 24.9534C60.8996 25.0521 60.8519 25.1859 60.8519 25.3255V33.0473C60.8519 33.1868 60.8042 33.3206 60.7194 33.4193C60.6345 33.518 60.5194 33.5734 60.3994 33.5734H59.5283C59.4083 33.5734 59.2932 33.518 59.2083 33.4193C59.1235 33.3206 59.0758 33.1868 59.0758 33.0473V25.3215C59.075 25.1869 59.0299 25.0577 58.9498 24.9605C58.8696 24.8634 58.7604 24.8057 58.6448 24.7993Z" fill="#5CB85C"/>
<path d="M71.8113 33.5671C71.7413 33.5666 71.6724 33.5471 71.61 33.5104C71.5476 33.4736 71.4933 33.4206 71.4515 33.3553L69.637 30.5192C69.5147 30.5316 69.392 30.5369 69.2693 30.535H67.5724C67.4524 30.535 67.3373 30.5904 67.2524 30.6891C67.1675 30.7878 67.1199 30.9216 67.1199 31.0611V33.0449C67.1199 33.1844 67.0722 33.3183 66.9873 33.4169C66.9025 33.5156 66.7874 33.5711 66.6674 33.5711H65.7963C65.6762 33.5711 65.5612 33.5156 65.4763 33.4169C65.3914 33.3183 65.3438 33.1844 65.3438 33.0449V23.684C65.3438 23.5445 65.3914 23.4106 65.4763 23.3119C65.5612 23.2133 65.6762 23.1578 65.7963 23.1578H69.2659C70.003 23.1389 70.7359 23.2905 71.4221 23.6038C71.9895 23.8596 72.4797 24.3038 72.8317 24.8811C73.165 25.4649 73.336 26.1537 73.3216 26.8543C73.3399 27.4757 73.2056 28.0904 72.9343 28.6262C72.663 29.1621 72.266 29.5969 71.7898 29.8799C71.7293 29.9117 71.6758 29.9592 71.6334 30.0187C71.591 30.0782 71.5609 30.1482 71.5453 30.2233C71.5297 30.2984 71.529 30.3766 71.5434 30.4521C71.5577 30.5275 71.5867 30.5982 71.628 30.6586L72.9494 32.7213C72.9978 32.7993 73.0269 32.8912 73.0335 32.9871C73.0401 33.0829 73.024 33.1791 72.9869 33.2651C72.9498 33.351 72.8932 33.4235 72.8231 33.4747C72.7531 33.5259 72.6723 33.5537 72.5896 33.5553L71.8113 33.5671ZM70.9459 25.3323C70.5461 24.9762 69.9613 24.7978 69.1912 24.7969H67.5712C67.4512 24.7969 67.3361 24.8523 67.2513 24.951C67.1664 25.0497 67.1187 25.1835 67.1187 25.3231V28.4263C67.1187 28.5658 67.1664 28.6997 67.2513 28.7983C67.3361 28.897 67.4512 28.9525 67.5712 28.9525H69.1912C69.962 28.9525 70.5469 28.7714 70.9459 28.4092C71.3448 28.047 71.5447 27.5339 71.5454 26.8701C71.5454 26.2018 71.3456 25.6892 70.9459 25.3323Z" fill="#5CB85C"/>
<path d="M81.1902 31.1661H77.0045C76.9184 31.1667 76.8342 31.1958 76.7619 31.2501C76.6896 31.3044 76.6321 31.3816 76.5961 31.4726L75.8958 33.2682C75.8599 33.3591 75.8024 33.4363 75.73 33.4906C75.6577 33.5449 75.5735 33.5741 75.4874 33.5747H74.6661C74.5905 33.5737 74.5163 33.5507 74.4503 33.5077C74.3842 33.4647 74.3285 33.4032 74.2883 33.3287C74.248 33.2543 74.2244 33.1693 74.2196 33.0815C74.2149 32.9937 74.2292 32.9059 74.2611 32.8262L78.1211 23.46C78.158 23.3718 78.2153 23.2974 78.2867 23.2451C78.3581 23.1928 78.4406 23.1647 78.5249 23.1641H79.7049C79.7892 23.1647 79.8717 23.1928 79.9431 23.2451C80.0145 23.2974 80.0718 23.3718 80.1087 23.46L83.9777 32.8209C84.0097 32.9006 84.024 32.9884 84.0192 33.0762C84.0145 33.164 83.9909 33.249 83.9506 33.3235C83.9103 33.3979 83.8546 33.4595 83.7886 33.5024C83.7226 33.5454 83.6484 33.5684 83.5727 33.5694H82.7243C82.6374 33.5715 82.5518 33.5445 82.4778 33.4915C82.4037 33.4386 82.3444 33.3619 82.3068 33.2708L81.5952 31.4699C81.5592 31.3801 81.5021 31.3038 81.4304 31.2501C81.3588 31.1963 81.2755 31.1672 81.1902 31.1661ZM80.6008 28.91L79.5058 26.1383C79.4688 26.049 79.411 25.9736 79.3388 25.9209C79.2667 25.8681 79.1832 25.8401 79.0979 25.8401C79.0127 25.8401 78.9292 25.8681 78.8571 25.9209C78.7849 25.9736 78.727 26.049 78.6901 26.1383L77.6041 28.91C77.5737 28.9897 77.5609 29.0768 77.5666 29.1636C77.5724 29.2505 77.5966 29.3343 77.6371 29.4076C77.6776 29.4808 77.733 29.5413 77.7986 29.5835C77.8641 29.6257 77.9376 29.6483 78.0125 29.6493H80.1925C80.2679 29.6487 80.3421 29.6261 80.4081 29.5836C80.4742 29.5411 80.5301 29.4801 80.5707 29.4061C80.6113 29.3321 80.6353 29.2475 80.6406 29.1599C80.6458 29.0723 80.6322 28.9846 80.6008 28.9048V28.91Z" fill="#5CB85C"/>
<path d="M85.4917 23.6876C85.4917 23.548 85.5393 23.4142 85.6242 23.3155C85.7091 23.2168 85.8242 23.1614 85.9442 23.1614H89.6593C90.5917 23.1415 91.5162 23.3621 92.3665 23.8073C93.1162 24.2022 93.7527 24.8391 94.2003 25.6424C94.6274 26.4655 94.8531 27.4086 94.8531 28.37C94.8531 29.3313 94.6274 30.2744 94.2003 31.0976C93.7515 31.8995 93.1137 32.5343 92.3631 32.9261C91.5139 33.3709 90.5905 33.591 89.6593 33.5707H85.9408C85.8208 33.5707 85.7057 33.5153 85.6208 33.4166C85.536 33.3179 85.4883 33.1841 85.4883 33.0445L85.4917 23.6876ZM89.5733 31.9356C90.2085 31.9513 90.8387 31.8011 91.4173 31.4962C91.923 31.2296 92.3494 30.7947 92.6425 30.2465C92.9235 29.6736 93.0713 29.0255 93.0713 28.366C93.0713 27.7065 92.9235 27.0584 92.6425 26.4856C92.3489 25.9381 91.9226 25.5038 91.4173 25.2372C90.8384 24.9333 90.2084 24.7836 89.5733 24.7991H87.709C87.589 24.7991 87.4739 24.8546 87.389 24.9533C87.3042 25.0519 87.2565 25.1858 87.2565 25.3253V31.4159C87.2565 31.5555 87.3042 31.6893 87.389 31.788C87.4739 31.8867 87.589 31.9421 87.709 31.9421L89.5733 31.9356Z" fill="#5CB85C"/>
<path d="M103.874 32.471V33.0472C103.874 33.1868 103.826 33.3206 103.741 33.4193C103.657 33.518 103.542 33.5734 103.421 33.5734H97.1791C97.0591 33.5734 96.944 33.518 96.8591 33.4193C96.7742 33.3206 96.7266 33.1868 96.7266 33.0472V23.6863C96.7266 23.5468 96.7742 23.413 96.8591 23.3143C96.944 23.2156 97.0591 23.1602 97.1791 23.1602H103.234C103.354 23.1602 103.469 23.2156 103.554 23.3143C103.639 23.413 103.686 23.5468 103.686 23.6863V24.2625C103.686 24.4021 103.639 24.5359 103.554 24.6346C103.469 24.7333 103.354 24.7887 103.234 24.7887H98.9461C98.8261 24.7887 98.711 24.8441 98.6262 24.9428C98.5413 25.0415 98.4936 25.1753 98.4936 25.3149V26.9763C98.4936 27.1159 98.5413 27.2497 98.6262 27.3484C98.711 27.4471 98.8261 27.5025 98.9461 27.5025H102.648C102.768 27.5025 102.883 27.558 102.968 27.6566C103.053 27.7553 103.1 27.8892 103.1 28.0287V28.5746C103.1 28.7142 103.053 28.848 102.968 28.9467C102.883 29.0454 102.768 29.1008 102.648 29.1008H98.9473C98.8273 29.1008 98.7122 29.1562 98.6273 29.2549C98.5424 29.3536 98.4948 29.4874 98.4948 29.627V31.4292C98.4948 31.5687 98.5424 31.7026 98.6273 31.8013C98.7122 31.8999 98.8273 31.9554 98.9473 31.9554H103.425C103.543 31.9564 103.656 32.0108 103.74 32.1071C103.823 32.2034 103.872 32.334 103.874 32.471Z" fill="#5CB85C"/>
</g>
<defs>
<clipPath id="clip0_2160_12478">
<rect width="104" height="36" fill="white"/>
</clipPath>
</defs>
</svg>
