<svg width="295" height="73" viewBox="0 0 295 73" fill="none" xmlns="http://www.w3.org/2000/svg">
<mask id="path-1-inside-1_2137_354" fill="white">
<path d="M17 13.9986V23.9986H13.1C7.5 23.9986 4 27.0986 4 32.0986C4 37.4986 6.7 39.9986 12.5 39.9986H17V49.4986V58.9986H22H27V63.5986V68.0986L42.8 67.7986C58.4 67.4986 58.7 67.4986 62.3 64.6986C67.2 60.9986 69.3 56.6986 69.3 50.3986C69.3 43.0986 65.7 37.0986 59.3 33.8986C56.7 32.5986 54.3 31.3986 54.1 31.1986C53.8 31.0986 54.7 29.8986 55.9 28.5986C59 25.2986 60.3 19.8986 59 15.2986C57.7 10.4986 56.4 8.79864 52 6.09864C48.8 4.19864 47 3.99863 32.8 3.99863H17V13.9986ZM48.9 7.59864C54.1 9.69864 56.4 13.2986 56.4 19.2986C56.4 25.3986 53.3 28.8986 47.2 29.6986C41.3 30.4986 41.1 33.9986 47.4 34.6986C54.4 35.5986 62 37.7986 64.4 41.9986C65.7 44.0986 66.4 47.2986 66.5 50.5986C66.5 56.7986 64.3 60.2986 58.4 63.6986C54.9 65.7986 53.4 65.9986 42.5 65.6986L30.5 65.4986L30.2 62.1986L29.9 58.9986H36.2C48.7 58.9986 54 55.7986 54 48.3986C54 40.4986 48.5 37.0986 35.8 36.9986H30V31.9986V26.9986H37C45.1 26.9986 48 25.0986 48 19.9986C48 14.5986 45.2 12.9986 35.5 12.9986H27V18.4986V23.9986H23.5H20V14.9986V7.59864H32.8C41.8 7.59864 46 6.39864 48.9 7.59864ZM44.5 19.9986V23.4986L37.3 23.7986L30 24.0986V19.9986V15.8986L37.3 16.1986L44.5 16.4986V19.9986ZM17 31.9986V36.9986H12.5C8.7 36.9986 7.8 36.5986 7.1 34.6986C5.4 30.2986 8 26.9986 13.1 26.9986H17V31.9986ZM27 41.4986V55.9986H23.5H20V47.9986C20 40.0986 20 39.9986 22.6 39.9986C25.7 39.9986 25.2 36.499 22 35.999C20.1 35.699 20 36.1986 20 31.8986V26.9986H23.5H27V41.4986ZM48.8 42.3986C52.7 45.7986 51.9 52.7986 47.4 54.8986C46 55.4986 41.6 55.9986 37.5 55.9986H30V47.8986V39.7986L38.4 40.0986C44.8 40.3986 47.3 40.8986 48.8 42.3986Z"/>
</mask>
<path d="M17 13.9986V23.9986H13.1C7.5 23.9986 4 27.0986 4 32.0986C4 37.4986 6.7 39.9986 12.5 39.9986H17V49.4986V58.9986H22H27V63.5986V68.0986L42.8 67.7986C58.4 67.4986 58.7 67.4986 62.3 64.6986C67.2 60.9986 69.3 56.6986 69.3 50.3986C69.3 43.0986 65.7 37.0986 59.3 33.8986C56.7 32.5986 54.3 31.3986 54.1 31.1986C53.8 31.0986 54.7 29.8986 55.9 28.5986C59 25.2986 60.3 19.8986 59 15.2986C57.7 10.4986 56.4 8.79864 52 6.09864C48.8 4.19864 47 3.99863 32.8 3.99863H17V13.9986ZM48.9 7.59864C54.1 9.69864 56.4 13.2986 56.4 19.2986C56.4 25.3986 53.3 28.8986 47.2 29.6986C41.3 30.4986 41.1 33.9986 47.4 34.6986C54.4 35.5986 62 37.7986 64.4 41.9986C65.7 44.0986 66.4 47.2986 66.5 50.5986C66.5 56.7986 64.3 60.2986 58.4 63.6986C54.9 65.7986 53.4 65.9986 42.5 65.6986L30.5 65.4986L30.2 62.1986L29.9 58.9986H36.2C48.7 58.9986 54 55.7986 54 48.3986C54 40.4986 48.5 37.0986 35.8 36.9986H30V31.9986V26.9986H37C45.1 26.9986 48 25.0986 48 19.9986C48 14.5986 45.2 12.9986 35.5 12.9986H27V18.4986V23.9986H23.5H20V14.9986V7.59864H32.8C41.8 7.59864 46 6.39864 48.9 7.59864ZM44.5 19.9986V23.4986L37.3 23.7986L30 24.0986V19.9986V15.8986L37.3 16.1986L44.5 16.4986V19.9986ZM17 31.9986V36.9986H12.5C8.7 36.9986 7.8 36.5986 7.1 34.6986C5.4 30.2986 8 26.9986 13.1 26.9986H17V31.9986ZM27 41.4986V55.9986H23.5H20V47.9986C20 40.0986 20 39.9986 22.6 39.9986C25.7 39.9986 25.2 36.499 22 35.999C20.1 35.699 20 36.1986 20 31.8986V26.9986H23.5H27V41.4986ZM48.8 42.3986C52.7 45.7986 51.9 52.7986 47.4 54.8986C46 55.4986 41.6 55.9986 37.5 55.9986H30V47.8986V39.7986L38.4 40.0986C44.8 40.3986 47.3 40.8986 48.8 42.3986Z" fill="black"/>
<path d="M17 23.9986H81V87.9986H17V23.9986ZM17 39.9986V-24.0014H81V39.9986H17ZM17 58.9986V122.999H-47V58.9986H17ZM27 58.9986V-5.00137H91V58.9986H27ZM27 68.0986L28.215 132.087L-37 133.325V68.0986H27ZM42.8 67.7986L44.0305 131.787L44.0228 131.787L44.015 131.787L42.8 67.7986ZM62.3 64.6986L23.0078 14.1801L23.3686 13.8994L23.7334 13.624L62.3 64.6986ZM59.3 33.8986L87.9217 -23.3447L59.3 33.8986ZM54.1 31.1986L74.3386 -29.5171L88.6716 -24.7394L99.3548 -14.0562L54.1 31.1986ZM55.9 28.5986L8.87258 -14.8113L9.06226 -15.0168L9.25373 -15.2206L55.9 28.5986ZM59 15.2986L-2.5878 32.7039L-2.68299 32.3671L-2.77449 32.0292L59 15.2986ZM52 6.09864L84.6745 -48.9321L85.0755 -48.694L85.473 -48.45L52 6.09864ZM17 3.99863H-47V-60.0014H17V3.99863ZM48.9 7.59864L24.9344 66.9421L24.6815 66.84L24.4295 66.7357L48.9 7.59864ZM47.2 29.6986L38.6007 -33.721L38.7392 -33.7398L38.8778 -33.758L47.2 29.6986ZM47.4 34.6986L54.4676 -28.9099L55.0151 -28.8491L55.5614 -28.7789L47.4 34.6986ZM64.4 41.9986L9.98303 75.6853L9.39074 74.7285L8.83244 73.7515L64.4 41.9986ZM66.5 50.5986L130.471 48.6601L130.5 49.6292V50.5986H66.5ZM58.4 63.6986L25.4723 8.81908L25.9561 8.52881L26.4449 8.24712L58.4 63.6986ZM42.5 65.6986L43.5665 1.70752L43.9137 1.7133L44.2608 1.72286L42.5 65.6986ZM30.5 65.4986L29.4335 129.49L-28.0336 128.532L-33.2372 71.2929L30.5 65.4986ZM30.2 62.1986L93.9206 56.2248L93.929 56.3146L93.9372 56.4044L30.2 62.1986ZM29.9 58.9986L-33.8206 64.9725L-40.3807 -5.00137H29.9V58.9986ZM35.8 36.9986V-27.0014H36.052L36.3039 -26.9994L35.8 36.9986ZM30 36.9986V100.999H-34V36.9986H30ZM30 26.9986H-34V-37.0014H30V26.9986ZM27 12.9986H-37V-51.0014H27V12.9986ZM27 23.9986H91V87.9986H27V23.9986ZM20 23.9986V87.9986H-44V23.9986H20ZM20 7.59864H-44V-56.4014H20V7.59864ZM44.5 23.4986H108.5V84.8875L47.1643 87.4432L44.5 23.4986ZM37.3 23.7986L39.9643 87.7432L39.9461 87.7439L39.9279 87.7447L37.3 23.7986ZM30 24.0986L32.6279 88.0447L-34 90.7828V24.0986H30ZM30 15.8986H-34V-50.7855L32.6279 -48.0474L30 15.8986ZM37.3 16.1986L39.9279 -47.7474L39.9461 -47.7466L39.9643 -47.7459L37.3 16.1986ZM44.5 16.4986L47.1643 -47.4459L108.5 -44.8902V16.4986H44.5ZM17 36.9986H81V100.999H17V36.9986ZM7.1 34.6986L66.7991 11.6331L66.9802 12.1019L67.154 12.5735L7.1 34.6986ZM17 26.9986V-37.0014H81V26.9986H17ZM27 55.9986H91V119.999H27V55.9986ZM20 55.9986V119.999H-44V55.9986H20ZM22 35.999L12.1199 99.2318L12.0691 99.2239L12.0184 99.2159L22 35.999ZM20 26.9986H-44V-37.0014H20V26.9986ZM27 26.9986V-37.0014H91V26.9986H27ZM48.8 42.3986L6.74335 90.6401L5.09318 89.2015L3.54517 87.6535L48.8 42.3986ZM47.4 54.8986L74.4647 112.894L73.5443 113.324L72.6108 113.724L47.4 54.8986ZM30 55.9986V119.999H-34V55.9986H30ZM30 39.7986H-34V-26.5279L32.2843 -24.1606L30 39.7986ZM38.4 40.0986L40.6843 -23.8606L41.0406 -23.8479L41.3967 -23.8312L38.4 40.0986ZM17 13.9986H81V23.9986H17H-47V13.9986H17ZM17 23.9986V87.9986H13.1V23.9986V-40.0014H17V23.9986ZM13.1 23.9986V87.9986C21.717 87.9986 35.9958 85.5398 48.9693 74.0078C62.819 61.697 68 45.3825 68 32.0986H4H-60C-60 13.8148 -53.069 -6.5497 -36.0693 -21.6606C-19.9458 -35.9926 -1.117 -40.0014 13.1 -40.0014V23.9986ZM4 32.0986H68C68 24.9251 66.1151 6.48809 49.6239 -8.82516C34.1348 -23.2079 17.2013 -24.0014 12.5 -24.0014V39.9986V103.999C1.99867 103.999 -19.1848 101.955 -37.4739 84.9724C-56.7651 67.0592 -60 44.6722 -60 32.0986H4ZM12.5 39.9986V-24.0014H17V39.9986V103.999H12.5V39.9986ZM17 39.9986H81V49.4986H17H-47V39.9986H17ZM17 49.4986H81V58.9986H17H-47V49.4986H17ZM17 58.9986V-5.00137H22V58.9986V122.999H17V58.9986ZM22 58.9986V-5.00137H27V58.9986V122.999H22V58.9986ZM27 58.9986H91V63.5986H27H-37V58.9986H27ZM27 63.5986H91V68.0986H27H-37V63.5986H27ZM27 68.0986L25.785 4.11016L41.585 3.81017L42.8 67.7986L44.015 131.787L28.215 132.087L27 68.0986ZM42.8 67.7986L41.5695 3.81046C45.7267 3.73051 47.9647 3.6852 49.5093 3.62693C51.376 3.55652 49.8411 3.53514 47.1504 3.95641C43.4338 4.53831 37.4356 5.937 30.7587 9.3559C25.391 12.1044 21.5884 15.2841 23.0078 14.1801L62.3 64.6986L101.592 115.217C101.212 115.513 96.0215 119.743 89.0975 123.288C80.8644 127.504 73.1412 129.446 66.9496 130.416C61.7839 131.225 57.024 131.434 54.3344 131.536C51.3228 131.65 47.6733 131.717 44.0305 131.787L42.8 67.7986ZM62.3 64.6986L23.7334 13.624C19.9833 16.4557 14.3336 21.8445 10.149 30.3975C6.01645 38.8444 5.3 46.3228 5.3 50.3986H69.3H133.3C133.3 60.7745 131.534 73.5529 125.126 86.6497C118.666 99.8528 109.517 109.242 100.867 115.773L62.3 64.6986ZM69.3 50.3986H5.3C5.3 57.4254 7.09697 65.7249 11.9282 73.7177C16.8 81.7777 23.6079 87.6067 30.6783 91.142L59.3 33.8986L87.9217 -23.3447C116.884 -8.86335 133.3 19.8576 133.3 50.3986H69.3ZM59.3 33.8986L30.6783 91.142C29.4891 90.5474 27.8959 89.7517 26.5805 89.0766C25.9691 88.7629 24.9512 88.237 23.8801 87.6502C23.3995 87.3869 22.3431 86.8036 21.0844 86.0402C20.4765 85.6715 19.302 84.9477 17.8825 83.9709C17.2769 83.5541 13.2084 80.8167 8.84517 76.4535L54.1 31.1986L99.3548 -14.0562C96.8068 -16.6042 94.5832 -18.3893 93.4773 -19.2515C92.2082 -20.241 91.1368 -20.9982 90.4431 -21.4756C89.082 -22.4122 87.9821 -23.0885 87.464 -23.4027C86.385 -24.0571 85.5692 -24.5037 85.3824 -24.6061C84.8988 -24.871 84.6809 -24.9781 85.0195 -24.8044C85.6041 -24.5044 86.5109 -24.0501 87.9217 -23.3447L59.3 33.8986ZM54.1 31.1986L33.8614 91.9144C21.6707 87.8508 9.28811 79.5766 0.57364 66.3164C-7.56891 53.9265 -9.5953 41.6323 -9.90906 33.614C-10.4643 19.4255 -6.06874 8.91511 -5.02813 6.40697C-2.10083 -0.64859 1.49785 -5.63958 2.26596 -6.72063C4.8454 -10.351 7.4123 -13.2293 8.87258 -14.8113L55.9 28.5986L102.927 72.0086C103.188 71.7266 104.705 70.0982 106.609 67.4179C107.04 66.8119 110.395 62.2209 113.2 55.4591C114.18 53.0978 118.545 42.7077 117.993 28.6091C117.681 20.6357 115.665 8.37875 107.542 -3.98196C98.8463 -17.2129 86.4918 -25.466 74.3386 -29.5171L54.1 31.1986ZM55.9 28.5986L9.25373 -15.2206C2.1547 -7.66357 -1.52155 0.649719 -3.1987 7.77763C-4.89346 14.9804 -5.16852 23.5721 -2.5878 32.7039L59 15.2986L120.588 -2.10661C127.774 23.323 121.577 52.1589 102.546 72.4179L55.9 28.5986ZM59 15.2986L-2.77449 32.0292C-2.68587 32.3564 -0.71167 40.2057 5.74414 48.6838C8.89038 52.8156 12.0984 55.8071 14.575 57.8057C16.8067 59.6066 18.4647 60.6091 18.527 60.6473L52 6.09864L85.473 -48.45C89.6311 -45.8985 99.2425 -39.8119 107.581 -28.8615C116.112 -17.6584 119.386 -6.55915 120.774 -1.43195L59 15.2986ZM52 6.09864L19.3255 61.1293C20.4781 61.8137 24.0249 63.8548 29.037 65.5597C33.8874 67.2095 37.7786 67.7609 39.5571 67.9557C41.0197 68.1159 41.5454 68.0793 39.9418 68.0443C38.4942 68.0126 36.3395 67.9986 32.8 67.9986V3.99863V-60.0014C38.5989 -60.0014 46.6087 -60.0374 53.4929 -59.2834C65.6663 -57.9501 75.6292 -54.3027 84.6745 -48.9321L52 6.09864ZM32.8 3.99863V67.9986H17V3.99863V-60.0014H32.8V3.99863ZM17 3.99863H81V13.9986H17H-47V3.99863H17ZM48.9 7.59864L72.8656 -51.7448C84.4343 -47.0729 98.3833 -38.3162 108.493 -22.5333C118.31 -7.20666 120.4 8.37167 120.4 19.2986H56.4H-7.6C-7.6 24.2256 -6.65962 35.0039 0.707427 46.5056C8.36673 58.4635 18.5657 64.3702 24.9344 66.9421L48.9 7.59864ZM56.4 19.2986H120.4C120.4 33.0443 116.766 52.2303 102.017 68.8983C87.3394 85.4849 68.8826 91.4031 55.5222 93.1552L47.2 29.6986L38.8778 -33.758C31.6174 -32.8058 17.7606 -29.0376 6.15831 -15.926C-5.51613 -2.73298 -7.6 11.6529 -7.6 19.2986H56.4ZM47.2 29.6986L55.7993 93.1183C59.5231 92.6134 67.6615 91.0911 76.8679 85.548C84.1389 81.1703 106.725 64.7037 106.725 32.2361C106.725 -0.994263 83.2224 -17.5345 75.4284 -21.9501C65.9448 -27.3228 57.7325 -28.5472 54.4676 -28.9099L47.4 34.6986L40.3324 98.3072C33.9175 97.5944 23.3677 95.6701 12.3341 89.4192C2.99014 84.1255 -21.275 66.529 -21.275 32.2361C-21.275 -1.29395 2.07358 -18.8293 10.8446 -24.1101C21.551 -30.5563 31.9269 -32.8161 38.6007 -33.721L47.2 29.6986ZM47.4 34.6986L55.5614 -28.7789C62.0744 -27.9415 71.1817 -26.2601 80.681 -22.5917C87.8919 -19.8069 107.621 -11.3616 119.968 10.2457L64.4 41.9986L8.83244 73.7515C14.2015 83.1474 20.8814 88.7529 25.033 91.6568C29.258 94.6121 32.8043 96.1324 34.569 96.8139C36.4795 97.5517 37.8172 97.8829 38.3424 98.0035C38.9274 98.1379 39.2248 98.1744 39.2386 98.1761L47.4 34.6986ZM64.4 41.9986L118.817 8.31194C128.487 23.9326 130.206 39.9367 130.471 48.6601L66.5 50.5986L2.52936 52.5371C2.59219 54.6104 2.8498 57.3406 3.62909 60.6248C4.33118 63.5836 5.97309 69.2077 9.98303 75.6853L64.4 41.9986ZM66.5 50.5986H130.5C130.5 61.4315 128.513 76.6823 119.045 91.9417C110.022 106.483 98.0754 114.701 90.3551 119.15L58.4 63.6986L26.4449 8.24712C24.6246 9.29608 16.7283 14.0638 10.2805 24.4556C3.3873 35.5649 2.5 45.9658 2.5 50.5986H66.5ZM58.4 63.6986L91.3277 118.578C84.7647 122.516 74.9822 127.357 61.253 129.093C53.1784 130.114 44.6584 129.782 40.7392 129.674L42.5 65.6986L44.2608 1.72286C46.9468 1.79678 48.1632 1.8121 48.7434 1.80895C49.4292 1.80523 47.8204 1.77244 45.197 2.10414C41.983 2.5105 37.7038 3.39211 32.9661 5.21712C28.6742 6.8704 25.7486 8.65328 25.4723 8.81908L58.4 63.6986ZM42.5 65.6986L41.4335 129.69L29.4335 129.49L30.5 65.4986L31.5665 1.50752L43.5665 1.70752L42.5 65.6986ZM30.5 65.4986L-33.2372 71.2929L-33.5372 67.9929L30.2 62.1986L93.9372 56.4044L94.2372 59.7044L30.5 65.4986ZM30.2 62.1986L-33.5206 68.1725L-33.8206 64.9725L29.9 58.9986L93.6206 53.0248L93.9206 56.2248L30.2 62.1986ZM29.9 58.9986V-5.00137H36.2V58.9986V122.999H29.9V58.9986ZM36.2 58.9986V-5.00137C39.7925 -5.00137 29.5593 -5.99276 16.9648 1.53123C9.23876 6.14676 1.43711 13.4961 -3.8908 23.8152C-8.97061 33.6537 -10 42.6937 -10 48.3986H54H118C118 57.8036 116.308 70.0186 109.844 82.5383C103.132 95.5387 93.2237 105.076 82.6102 111.416C64.2407 122.39 45.1075 122.999 36.2 122.999V58.9986ZM54 48.3986H-10C-10 53.7461 -9.06778 62.3662 -4.32614 71.8703C0.669138 81.8827 8.10265 89.2746 15.7632 94.0584C28.368 101.93 38.7635 101.024 35.2961 100.997L35.8 36.9986L36.3039 -26.9994C45.5365 -26.9267 65.032 -26.0825 83.5618 -14.5111C108.707 1.1916 118 26.7845 118 48.3986H54ZM35.8 36.9986V100.999H30V36.9986V-27.0014H35.8V36.9986ZM30 36.9986H-34V31.9986H30H94V36.9986H30ZM30 31.9986H-34V26.9986H30H94V31.9986H30ZM30 26.9986V-37.0014H37V26.9986V90.9986H30V26.9986ZM37 26.9986V-37.0014C36.8657 -37.0014 34.3852 -37.0213 30.6321 -36.3355C26.9786 -35.668 19.4166 -33.8589 11.0271 -28.4872C1.66409 -22.4922 -6.21299 -13.6486 -11.051 -2.77731C-15.437 7.07827 -16 15.6139 -16 19.9986H48H112C112 35.8101 106.362 62.4611 80.0479 79.3095C61.6161 91.1112 42.4075 90.9986 37 90.9986V26.9986ZM48 19.9986H-16C-16 23.4764 -15.6683 32.5336 -10.8354 43.1478C-5.27608 55.3573 3.88845 64.5648 14.0281 70.2642C22.6509 75.111 30.0284 76.3345 32.4177 76.6788C35.1197 77.0681 36.5584 76.9986 35.5 76.9986V12.9986V-51.0014C39.2475 -51.0014 58.4647 -51.5932 76.7469 -41.3169C88.799 -34.5425 99.2698 -23.9225 105.657 -9.89433C111.318 2.53863 112 13.8209 112 19.9986H48ZM35.5 12.9986V76.9986H27V12.9986V-51.0014H35.5V12.9986ZM27 12.9986H91V18.4986H27H-37V12.9986H27ZM27 18.4986H91V23.9986H27H-37V18.4986H27ZM27 23.9986V87.9986H23.5V23.9986V-40.0014H27V23.9986ZM23.5 23.9986V87.9986H20V23.9986V-40.0014H23.5V23.9986ZM20 23.9986H-44V14.9986H20H84V23.9986H20ZM20 14.9986H-44V7.59864H20H84V14.9986H20ZM20 7.59864V-56.4014H32.8V7.59864V71.5986H20V7.59864ZM32.8 7.59864V-56.4014C34.8044 -56.4014 34.9828 -56.481 39.3608 -56.7398C40.9613 -56.8344 45.2541 -57.0916 50.2407 -56.7939C55.6144 -56.473 63.987 -55.4213 73.3705 -51.5384L48.9 7.59864L24.4295 66.7357C32.363 70.0186 39.1231 70.7703 42.6125 70.9786C44.3687 71.0835 45.6803 71.0694 46.2781 71.0566C46.8734 71.0438 47.1802 71.0214 46.9142 71.0371C46.2172 71.0783 39.7956 71.5986 32.8 71.5986V7.59864ZM44.5 19.9986H108.5V23.4986H44.5H-19.5V19.9986H44.5ZM44.5 23.4986L47.1643 87.4432L39.9643 87.7432L37.3 23.7986L34.6357 -40.1459L41.8357 -40.4459L44.5 23.4986ZM37.3 23.7986L39.9279 87.7447L32.6279 88.0447L30 24.0986L27.3721 -39.8474L34.6721 -40.1474L37.3 23.7986ZM30 24.0986H-34V19.9986H30H94V24.0986H30ZM30 19.9986H-34V15.8986H30H94V19.9986H30ZM30 15.8986L32.6279 -48.0474L39.9279 -47.7474L37.3 16.1986L34.6721 80.1447L27.3721 79.8447L30 15.8986ZM37.3 16.1986L39.9643 -47.7459L47.1643 -47.4459L44.5 16.4986L41.8357 80.4432L34.6357 80.1432L37.3 16.1986ZM44.5 16.4986H108.5V19.9986H44.5H-19.5V16.4986H44.5ZM17 31.9986H81V36.9986H17H-47V31.9986H17ZM17 36.9986V100.999H12.5V36.9986V-27.0014H17V36.9986ZM12.5 36.9986V100.999C12.2557 100.999 -1.93438 101.66 -16.5733 95.3864C-40.2502 85.2392 -49.63 65.846 -52.954 56.8238L7.1 34.6986L67.154 12.5735C66.235 10.0791 63.5936 3.31791 57.8054 -3.96406C51.198 -12.2765 42.8139 -18.4218 33.8483 -22.2642C26.0739 -25.5961 19.5626 -26.4527 16.9418 -26.7323C15.4172 -26.895 14.2441 -26.9532 13.61 -26.9771C12.9601 -27.0015 12.546 -27.0014 12.5 -27.0014V36.9986ZM7.1 34.6986L-52.5991 57.7642C-59.4599 40.0069 -61.0747 13.0651 -42.8697 -10.2204C-25.9149 -31.9067 -2.12561 -37.0014 13.1 -37.0014V26.9986V90.9986C23.2256 90.9986 43.1649 87.5539 57.9697 68.6176C74.0247 48.0822 71.9599 24.9904 66.7991 11.6331L7.1 34.6986ZM13.1 26.9986V-37.0014H17V26.9986V90.9986H13.1V26.9986ZM17 26.9986H81V31.9986H17H-47V26.9986H17ZM27 41.4986H91V55.9986H27H-37V41.4986H27ZM27 55.9986V119.999H23.5V55.9986V-8.00137H27V55.9986ZM23.5 55.9986V119.999H20V55.9986V-8.00137H23.5V55.9986ZM20 55.9986H-44V47.9986H20H84V55.9986H20ZM20 47.9986H-44C-44 46.5336 -44.0102 43.6571 -43.9173 41.0966C-43.8799 40.0642 -43.7606 31.2829 -40.6126 21.4759C-38.7212 15.5834 -35.0046 6.82338 -27.4778 -1.75715C-19.44 -10.9203 -9.84547 -16.7141 -0.754041 -20.0166C7.31525 -22.9477 14.1312 -23.5964 17.0823 -23.8118C18.7678 -23.9348 20.1466 -23.9722 20.9501 -23.9872C21.7418 -24.002 22.4152 -24.0014 22.6 -24.0014V39.9986V103.999C21.9382 103.999 23.9536 104.027 26.4013 103.849C28.8547 103.669 35.2441 103.09 42.9478 100.292C51.6736 97.1223 60.9634 91.5246 68.7473 82.6509C76.0202 74.3598 79.5337 65.9826 81.2626 60.5964C82.9321 55.3954 83.4961 51.2098 83.7056 49.4147C83.9374 47.4288 83.9884 46.0154 83.9986 45.7351C84.0102 45.4151 84 45.5137 84 47.9986H20ZM22.6 39.9986V-24.0014C11.845 -24.0014 -5.80897 -20.8521 -20.7783 -6.02229C-36.4521 9.50536 -41.2068 30.1111 -38.6599 47.4746C-33.7903 80.673 -7.03521 96.2388 12.1199 99.2318L22 35.999L31.8801 -27.2337C54.2352 -23.7408 82.8403 -6.17515 87.9849 28.8981C90.6693 47.1989 85.6584 68.7109 69.3064 84.9103C53.659 100.412 34.905 103.999 22.6 103.999V39.9986ZM22 35.999L12.0184 99.2159C12.9899 99.3693 14.0128 99.493 13.3027 99.4028C13.1237 99.38 12.3528 99.2829 11.4101 99.1384C10.4547 98.9919 8.7972 98.7187 6.77061 98.2605C2.95273 97.3972 -4.70634 95.342 -13.1153 90.1448C-22.4028 84.4046 -29.8074 76.5904 -34.9974 67.6914C-43.2982 53.4583 -43.737 39.6661 -43.8009 38.7447C-44.0227 35.5515 -44 32.4533 -44 31.8986H20H84C84 33.494 84.0352 31.9458 83.8916 29.8777C83.8088 28.6857 83.5686 25.6566 82.7517 21.787C81.949 17.985 80.113 10.9918 75.5724 3.20627C70.5136 -5.46773 63.27 -13.1194 54.1797 -18.7376C45.9681 -23.8129 38.5426 -25.7868 35.0013 -26.5875C33.113 -27.0145 31.6044 -27.2611 30.8097 -27.383C30.3824 -27.4485 30.039 -27.4963 29.8267 -27.525C29.6173 -27.5534 29.4642 -27.5728 29.4344 -27.5766C29.0934 -27.6199 30.5351 -27.4462 31.9816 -27.2178L22 35.999ZM20 31.8986H-44V26.9986H20H84V31.8986H20ZM20 26.9986V-37.0014H23.5V26.9986V90.9986H20V26.9986ZM23.5 26.9986V-37.0014H27V26.9986V90.9986H23.5V26.9986ZM27 26.9986H91V41.4986H27H-37V26.9986H27ZM48.8 42.3986L90.8567 -5.84282C111.322 11.9991 117.051 36.7714 114.847 56.3111C112.66 75.6904 101.24 100.399 74.4647 112.894L47.4 54.8986L20.3353 -3.09708C-1.94028 7.2982 -10.7102 27.4569 -12.3465 41.9612C-14.001 56.6259 -9.82234 76.1982 6.74335 90.6401L48.8 42.3986ZM47.4 54.8986L72.6108 113.724C62.0992 118.229 51.7229 119.149 50.5789 119.277C46.4176 119.742 41.9167 119.999 37.5 119.999V55.9986V-8.00137C37.1833 -8.00137 36.9324 -7.99509 36.3461 -7.92948C36.0554 -7.89697 35.0767 -7.783 33.5961 -7.49444C32.8435 -7.34776 31.5874 -7.08379 29.9986 -6.65318C28.6205 -6.27966 25.7409 -5.44882 22.1892 -3.92665L47.4 54.8986ZM37.5 55.9986V119.999H30V55.9986V-8.00137H37.5V55.9986ZM30 55.9986H-34V47.8986H30H94V55.9986H30ZM30 47.8986H-34V39.7986H30H94V47.8986H30ZM30 39.7986L32.2843 -24.1606L40.6843 -23.8606L38.4 40.0986L36.1157 104.058L27.7157 103.758L30 39.7986ZM38.4 40.0986L41.3967 -23.8312C44.7253 -23.6751 51.681 -23.3364 59.0129 -21.745C67.8166 -19.8341 81.6979 -15.2131 94.0548 -2.8562L48.8 42.3986L3.54517 87.6535C14.4021 98.5104 26.2834 102.131 31.8621 103.342C35.969 104.234 38.4748 104.172 35.4033 104.028L38.4 40.0986Z" fill="black" mask="url(#path-1-inside-1_2137_354)"/>
<path d="M76.4155 19.6271C71.4155 21.7271 70.3155 27.2271 74.9155 27.2271C77.1155 27.2271 77.4155 26.8271 77.4155 23.7271C77.4155 20.3271 77.5155 20.2271 81.3155 20.3271C86.7155 20.5271 88.6155 23.2271 93.4155 36.9271C99.8155 55.7271 100.515 57.2271 102.615 57.5271C104.315 57.8271 108.7 47.1 113 35C115.8 27.3 114.315 29.7271 113.915 29.7271C113.515 29.7271 111.415 34.7271 109.315 40.7271C107.315 46.8271 105.215 52.0271 104.815 52.3271C104.415 52.5271 103.615 51.3271 103.115 49.5271C101.115 42.8271 96.1155 29.7271 94.3155 26.6271C93.2155 24.8271 91.2155 22.5271 89.8155 21.4271C86.8155 19.3271 79.5155 18.2271 76.4155 19.6271Z" fill="black"/>
<path d="M79.415 43.7266V57.7266H82.215H84.915V43.7266V29.7266H82.215H79.415V43.7266Z" fill="black"/>
<path d="M120.915 43.7266V57.7266L130.215 57.5266C138.415 57.3266 139.4 56.9266 133.5 56.6266H125.915V50.2266V43.7266L130 44C132.2 44 133.915 43.4266 133.915 42.9266C133.915 42.5266 131.2 41.8 129 42L125.915 42.9266V36.7266V30.5266L132 30.999C135.3 31.099 137.915 30.9266 137.915 30.4266C137.915 30.0266 134.115 29.7266 129.415 29.7266H120.915V43.7266Z" fill="black"/>
<path d="M143.915 43.7266V57.7266H146.915C149.815 57.7266 149.815 57.6266 150.115 51.4266C150.315 48.0266 150.315 41.7266 150.115 37.4266L149.715 29.7266H146.815H143.915V43.7266Z" fill="black"/>
<path d="M158.915 31.6266C158.915 32.6266 157.015 35.8266 154.715 38.7266C151.415 42.9266 150.815 44.1266 152.015 44.7266C152.815 45.2266 154.815 48.3266 156.415 51.6266C158.915 56.9266 159.615 57.7266 162.015 57.7266H164.815L160.415 49.4266C157.915 44.9266 155.915 40.6266 155.915 39.9266C155.915 39.1266 157.515 36.5266 159.515 34.1266C162.815 30.1266 163.015 29.7266 161.015 29.7266C159.615 29.7266 158.915 30.3266 158.915 31.6266Z" fill="black"/>
<path d="M190.915 42.1266C190.915 52.2266 190.615 54.9266 189.315 56.2266C186.915 58.5266 185.415 57.5266 185.415 53.6266C185.415 50.6266 185.115 50.2266 182.915 50.2266C181.115 50.2266 180.315 50.8266 180.115 52.5266C179.415 57.4266 186.115 60.2266 191.815 57.3266C195.515 55.3266 195.815 54.2266 196.115 40.4266L196.415 29.7266H193.715H190.915V42.1266Z" fill="black"/>
<path d="M234.515 31.8269C232.715 33.2269 231.915 34.8269 231.915 37.1269C231.915 40.9269 234.215 43.6269 240.415 47.2269C245.915 50.5269 245.315 52.9 242.115 55.5C239.415 57.6 237.5 56.7 234.5 54C233.5 53.1 231.915 53.9269 231.915 54.4269C231.915 55.0269 233.515 56.2269 235.515 57.2269C242.315 60.4269 249.915 56.8269 249.915 50.3269C249.915 46.7269 248.615 45.2269 242.115 41.6269C235.515 38.0269 235.115 31.2269 241.515 31.2269C244.115 31.2269 244.415 31.5269 244.115 34.3269C243.915 36.4269 244.315 37.6269 245.415 38.0269C249.815 39.7269 251.715 34.1269 247.715 31.3269C244.515 29.0269 237.715 29.3269 234.515 31.8269Z" fill="black"/>
<path d="M256.415 43.7266V57.7266H259.215C261.915 57.7266 261.915 57.7266 261.915 50.7266V43.6266L267.715 43.9266L273.415 44.2266L273.715 50.9266C274.015 57.4266 274.115 57.7266 276.415 57.7266H278.915V43.7266V29.7266H276.215H273.415L273.715 36.2266L274.115 42.7266H268.015H261.915V36.2266C261.915 29.8266 261.915 29.7266 259.215 29.7266H256.415V43.7266Z" fill="black"/>
<path d="M286 33V45H288.545H291V33V21H288.545H286V33Z" fill="black"/>
<g filter="url(#filter0_f_2137_354)">
<mask id="path-12-inside-2_2137_354" fill="white">
<path d="M17 13.9996V23.9996H13.1C7.5 23.9996 4 27.0996 4 32.0996C4 37.4996 6.7 39.9996 12.5 39.9996H17V49.4996V58.9996H22H27V63.5996V68.0996L42.8 67.7996C58.4 67.4996 58.7 67.4996 62.3 64.6996C67.2 60.9996 69.3 56.6996 69.3 50.3996C69.3 43.0996 65.7 37.0996 59.3 33.8996C56.7 32.5996 54.3 31.3996 54.1 31.1996C53.8 31.0996 54.7 29.8996 55.9 28.5996C59 25.2996 60.3 19.8996 59 15.2996C57.7 10.4996 56.4 8.79961 52 6.09961C48.8 4.19961 47 3.99961 32.8 3.99961H17V13.9996ZM48.9 7.59961C54.1 9.69961 56.4 13.2996 56.4 19.2996C56.4 25.3996 53.3 28.8996 47.2 29.6996C41.3 30.4996 41.1 33.9996 47.4 34.6996C54.4 35.5996 62 37.7996 64.4 41.9996C65.7 44.0996 66.4 47.2996 66.5 50.5996C66.5 56.7996 64.3 60.2996 58.4 63.6996C54.9 65.7996 53.4 65.9996 42.5 65.6996L30.5 65.4996L30.2 62.1996L29.9 58.9996H36.2C48.7 58.9996 54 55.7996 54 48.3996C54 40.4996 48.5 37.0996 35.8 36.9996H30V31.9996V26.9996H37C45.1 26.9996 48 25.0996 48 19.9996C48 14.5996 45.2 12.9996 35.5 12.9996H27V18.4996V23.9996H23.5H20V14.9996V7.59961H32.8C41.8 7.59961 46 6.39961 48.9 7.59961ZM44.5 19.9996V23.4996L37.3 23.7996L30 24.0996V19.9996V15.8996L37.3 16.1996L44.5 16.4996V19.9996ZM17 31.9996V36.9996H12.5C8.7 36.9996 7.8 36.5996 7.1 34.6996C5.4 30.2996 8 26.9996 13.1 26.9996H17V31.9996ZM27 41.4996V55.9996H23.5H20V47.9996C20 40.0996 20 39.9996 22.6 39.9996C25.7 39.9996 25.2 36.5 22 36C20.1 35.7 20 36.1996 20 31.8996V26.9996H23.5H27V41.4996ZM48.8 42.3996C52.7 45.7996 51.9 52.7996 47.4 54.8996C46 55.4996 41.6 55.9996 37.5 55.9996H30V47.8996V39.7996L38.4 40.0996C44.8 40.3996 47.3 40.8996 48.8 42.3996Z"/>
</mask>
<path d="M17 13.9996V23.9996H13.1C7.5 23.9996 4 27.0996 4 32.0996C4 37.4996 6.7 39.9996 12.5 39.9996H17V49.4996V58.9996H22H27V63.5996V68.0996L42.8 67.7996C58.4 67.4996 58.7 67.4996 62.3 64.6996C67.2 60.9996 69.3 56.6996 69.3 50.3996C69.3 43.0996 65.7 37.0996 59.3 33.8996C56.7 32.5996 54.3 31.3996 54.1 31.1996C53.8 31.0996 54.7 29.8996 55.9 28.5996C59 25.2996 60.3 19.8996 59 15.2996C57.7 10.4996 56.4 8.79961 52 6.09961C48.8 4.19961 47 3.99961 32.8 3.99961H17V13.9996ZM48.9 7.59961C54.1 9.69961 56.4 13.2996 56.4 19.2996C56.4 25.3996 53.3 28.8996 47.2 29.6996C41.3 30.4996 41.1 33.9996 47.4 34.6996C54.4 35.5996 62 37.7996 64.4 41.9996C65.7 44.0996 66.4 47.2996 66.5 50.5996C66.5 56.7996 64.3 60.2996 58.4 63.6996C54.9 65.7996 53.4 65.9996 42.5 65.6996L30.5 65.4996L30.2 62.1996L29.9 58.9996H36.2C48.7 58.9996 54 55.7996 54 48.3996C54 40.4996 48.5 37.0996 35.8 36.9996H30V31.9996V26.9996H37C45.1 26.9996 48 25.0996 48 19.9996C48 14.5996 45.2 12.9996 35.5 12.9996H27V18.4996V23.9996H23.5H20V14.9996V7.59961H32.8C41.8 7.59961 46 6.39961 48.9 7.59961ZM44.5 19.9996V23.4996L37.3 23.7996L30 24.0996V19.9996V15.8996L37.3 16.1996L44.5 16.4996V19.9996ZM17 31.9996V36.9996H12.5C8.7 36.9996 7.8 36.5996 7.1 34.6996C5.4 30.2996 8 26.9996 13.1 26.9996H17V31.9996ZM27 41.4996V55.9996H23.5H20V47.9996C20 40.0996 20 39.9996 22.6 39.9996C25.7 39.9996 25.2 36.5 22 36C20.1 35.7 20 36.1996 20 31.8996V26.9996H23.5H27V41.4996ZM48.8 42.3996C52.7 45.7996 51.9 52.7996 47.4 54.8996C46 55.4996 41.6 55.9996 37.5 55.9996H30V47.8996V39.7996L38.4 40.0996C44.8 40.3996 47.3 40.8996 48.8 42.3996Z" fill="black"/>
<path d="M17 23.9996H81V87.9996H17V23.9996ZM17 39.9996V-24.0004H81V39.9996H17ZM17 58.9996V123H-47V58.9996H17ZM27 58.9996V-5.00039H91V58.9996H27ZM27 68.0996L28.215 132.088L-37 133.326V68.0996H27ZM42.8 67.7996L44.0305 131.788L44.0228 131.788L44.015 131.788L42.8 67.7996ZM62.3 64.6996L23.0078 14.1811L23.3686 13.9004L23.7334 13.625L62.3 64.6996ZM59.3 33.8996L87.9217 -23.3437L59.3 33.8996ZM54.1 31.1996L74.3386 -29.5161L88.6716 -24.7384L99.3548 -14.0552L54.1 31.1996ZM55.9 28.5996L8.87258 -14.8103L9.06226 -15.0158L9.25373 -15.2196L55.9 28.5996ZM59 15.2996L-2.5878 32.7049L-2.68299 32.368L-2.77449 32.0302L59 15.2996ZM52 6.09961L84.6745 -48.9311L85.0755 -48.693L85.473 -48.449L52 6.09961ZM17 3.99961H-47V-60.0004H17V3.99961ZM48.9 7.59961L24.9344 66.9431L24.6815 66.841L24.4295 66.7367L48.9 7.59961ZM47.2 29.6996L38.6007 -33.72L38.7392 -33.7388L38.8778 -33.757L47.2 29.6996ZM47.4 34.6996L54.4676 -28.909L55.0151 -28.8481L55.5614 -28.7779L47.4 34.6996ZM64.4 41.9996L9.98303 75.6863L9.39074 74.7295L8.83244 73.7525L64.4 41.9996ZM66.5 50.5996L130.471 48.6611L130.5 49.6301V50.5996H66.5ZM58.4 63.6996L25.4723 8.82006L25.9561 8.52979L26.4449 8.24809L58.4 63.6996ZM42.5 65.6996L43.5665 1.7085L43.9137 1.71428L44.2608 1.72384L42.5 65.6996ZM30.5 65.4996L29.4335 129.491L-28.0336 128.533L-33.2372 71.2939L30.5 65.4996ZM30.2 62.1996L93.9206 56.2258L93.929 56.3155L93.9372 56.4053L30.2 62.1996ZM29.9 58.9996L-33.8206 64.9734L-40.3807 -5.00039H29.9V58.9996ZM35.8 36.9996V-27.0004H36.052L36.3039 -26.9984L35.8 36.9996ZM30 36.9996V101H-34V36.9996H30ZM30 26.9996H-34V-37.0004H30V26.9996ZM27 12.9996H-37V-51.0004H27V12.9996ZM27 23.9996H91V87.9996H27V23.9996ZM20 23.9996V87.9996H-44V23.9996H20ZM20 7.59961H-44V-56.4004H20V7.59961ZM44.5 23.4996H108.5V84.8885L47.1643 87.4441L44.5 23.4996ZM37.3 23.7996L39.9643 87.7441L39.9461 87.7449L39.9279 87.7456L37.3 23.7996ZM30 24.0996L32.6279 88.0456L-34 90.7838V24.0996H30ZM30 15.8996H-34V-50.7845L32.6279 -48.0464L30 15.8996ZM37.3 16.1996L39.9279 -47.7464L39.9461 -47.7457L39.9643 -47.7449L37.3 16.1996ZM44.5 16.4996L47.1643 -47.4449L108.5 -44.8893V16.4996H44.5ZM17 36.9996H81V101H17V36.9996ZM7.1 34.6996L66.7991 11.6341L66.9802 12.1029L67.154 12.5745L7.1 34.6996ZM17 26.9996V-37.0004H81V26.9996H17ZM27 55.9996H91V120H27V55.9996ZM20 55.9996V120H-44V55.9996H20ZM22 36L12.1199 99.2328L12.0691 99.2248L12.0184 99.2168L22 36ZM20 26.9996H-44V-37.0004H20V26.9996ZM27 26.9996V-37.0004H91V26.9996H27ZM48.8 42.3996L6.74335 90.6411L5.09318 89.2025L3.54517 87.6544L48.8 42.3996ZM47.4 54.8996L74.4647 112.895L73.5443 113.325L72.6108 113.725L47.4 54.8996ZM30 55.9996V120H-34V55.9996H30ZM30 39.7996H-34V-26.5269L32.2843 -24.1596L30 39.7996ZM38.4 40.0996L40.6843 -23.8596L41.0406 -23.8469L41.3967 -23.8302L38.4 40.0996ZM17 13.9996H81V23.9996H17H-47V13.9996H17ZM17 23.9996V87.9996H13.1V23.9996V-40.0004H17V23.9996ZM13.1 23.9996V87.9996C21.717 87.9996 35.9958 85.5408 48.9693 74.0088C62.819 61.6979 68 45.3835 68 32.0996H4H-60C-60 13.8158 -53.069 -6.54872 -36.0693 -21.6596C-19.9458 -35.9916 -1.117 -40.0004 13.1 -40.0004V23.9996ZM4 32.0996H68C68 24.9261 66.1151 6.48907 49.6239 -8.82418C34.1348 -23.2069 17.2013 -24.0004 12.5 -24.0004V39.9996V104C1.99867 104 -19.1848 101.956 -37.4739 84.9734C-56.7651 67.0602 -60 44.6732 -60 32.0996H4ZM12.5 39.9996V-24.0004H17V39.9996V104H12.5V39.9996ZM17 39.9996H81V49.4996H17H-47V39.9996H17ZM17 49.4996H81V58.9996H17H-47V49.4996H17ZM17 58.9996V-5.00039H22V58.9996V123H17V58.9996ZM22 58.9996V-5.00039H27V58.9996V123H22V58.9996ZM27 58.9996H91V63.5996H27H-37V58.9996H27ZM27 63.5996H91V68.0996H27H-37V63.5996H27ZM27 68.0996L25.785 4.11114L41.585 3.81114L42.8 67.7996L44.015 131.788L28.215 132.088L27 68.0996ZM42.8 67.7996L41.5695 3.81144C45.7267 3.73149 47.9647 3.68618 49.5093 3.62791C51.376 3.5575 49.8411 3.53612 47.1504 3.95739C43.4338 4.53928 37.4356 5.93798 30.7587 9.35688C25.391 12.1054 21.5884 15.285 23.0078 14.1811L62.3 64.6996L101.592 115.218C101.212 115.514 96.0215 119.744 89.0975 123.289C80.8644 127.505 73.1412 129.447 66.9496 130.417C61.7839 131.226 57.024 131.435 54.3344 131.537C51.3228 131.651 47.6733 131.718 44.0305 131.788L42.8 67.7996ZM62.3 64.6996L23.7334 13.625C19.9833 16.4567 14.3336 21.8454 10.149 30.3985C6.01645 38.8454 5.3 46.3238 5.3 50.3996H69.3H133.3C133.3 60.7755 131.534 73.5539 125.126 86.6507C118.666 99.8538 109.517 109.243 100.867 115.774L62.3 64.6996ZM69.3 50.3996H5.3C5.3 57.4264 7.09697 65.7259 11.9282 73.7187C16.8 81.7787 23.6079 87.6077 30.6783 91.143L59.3 33.8996L87.9217 -23.3437C116.884 -8.86237 133.3 19.8585 133.3 50.3996H69.3ZM59.3 33.8996L30.6783 91.143C29.4891 90.5483 27.8959 89.7526 26.5805 89.0776C25.9691 88.7639 24.9512 88.238 23.8801 87.6512C23.3995 87.3879 22.3431 86.8046 21.0844 86.0412C20.4765 85.6725 19.302 84.9487 17.8825 83.9718C17.2769 83.5551 13.2084 80.8177 8.84517 76.4544L54.1 31.1996L99.3548 -14.0552C96.8068 -16.6033 94.5832 -18.3883 93.4773 -19.2506C92.2082 -20.2401 91.1368 -20.9972 90.4431 -21.4746C89.082 -22.4113 87.9821 -23.0875 87.464 -23.4017C86.385 -24.0562 85.5692 -24.5027 85.3824 -24.6051C84.8988 -24.87 84.6809 -24.9771 85.0195 -24.8034C85.6041 -24.5034 86.5109 -24.0491 87.9217 -23.3437L59.3 33.8996ZM54.1 31.1996L33.8614 91.9153C21.6707 87.8518 9.28811 79.5776 0.57364 66.3174C-7.56891 53.9275 -9.5953 41.6333 -9.90906 33.615C-10.4643 19.4264 -6.06874 8.91608 -5.02813 6.40794C-2.10083 -0.647614 1.49785 -5.6386 2.26596 -6.71965C4.8454 -10.35 7.4123 -13.2283 8.87258 -14.8103L55.9 28.5996L102.927 72.0095C103.188 71.7276 104.705 70.0992 106.609 67.4189C107.04 66.8128 110.395 62.2218 113.2 55.46C114.18 53.0988 118.545 42.7087 117.993 28.61C117.681 20.6367 115.665 8.37973 107.542 -3.98099C98.8463 -17.212 86.4918 -25.465 74.3386 -29.5161L54.1 31.1996ZM55.9 28.5996L9.25373 -15.2196C2.1547 -7.66259 -1.52155 0.650696 -3.1987 7.77861C-4.89346 14.9813 -5.16852 23.5731 -2.5878 32.7049L59 15.2996L120.588 -2.10564C127.774 23.324 121.577 52.1599 102.546 72.4188L55.9 28.5996ZM59 15.2996L-2.77449 32.0302C-2.68587 32.3574 -0.71167 40.2067 5.74414 48.6848C8.89038 52.8166 12.0984 55.8081 14.575 57.8067C16.8067 59.6076 18.4647 60.6101 18.527 60.6483L52 6.09961L85.473 -48.449C89.6311 -45.8975 99.2425 -39.8109 107.581 -28.8606C116.112 -17.6574 119.386 -6.55817 120.774 -1.43098L59 15.2996ZM52 6.09961L19.3255 61.1303C20.4781 61.8147 24.0249 63.8558 29.037 65.5606C33.8874 67.2105 37.7786 67.7619 39.5571 67.9567C41.0197 68.1169 41.5454 68.0803 39.9418 68.0453C38.4942 68.0136 36.3395 67.9996 32.8 67.9996V3.99961V-60.0004C38.5989 -60.0004 46.6087 -60.0364 53.4929 -59.2824C65.6663 -57.9492 75.6292 -54.3017 84.6745 -48.9311L52 6.09961ZM32.8 3.99961V67.9996H17V3.99961V-60.0004H32.8V3.99961ZM17 3.99961H81V13.9996H17H-47V3.99961H17ZM48.9 7.59961L72.8656 -51.7439C84.4343 -47.0719 98.3833 -38.3152 108.493 -22.5323C118.31 -7.20568 120.4 8.37264 120.4 19.2996H56.4H-7.6C-7.6 24.2266 -6.65962 35.0049 0.707427 46.5065C8.36673 58.4644 18.5657 64.3711 24.9344 66.9431L48.9 7.59961ZM56.4 19.2996H120.4C120.4 33.0453 116.766 52.2312 102.017 68.8993C87.3394 85.4859 68.8826 91.404 55.5222 93.1562L47.2 29.6996L38.8778 -33.757C31.6174 -32.8048 17.7606 -29.0366 6.15831 -15.9251C-5.51613 -2.732 -7.6 11.6539 -7.6 19.2996H56.4ZM47.2 29.6996L55.7993 93.1193C59.5231 92.6143 67.6615 91.0921 76.8679 85.549C84.1389 81.1713 106.725 64.7047 106.725 32.2371C106.725 -0.993286 83.2224 -17.5335 75.4284 -21.9491C65.9448 -27.3218 57.7325 -28.5462 54.4676 -28.909L47.4 34.6996L40.3324 98.3082C33.9175 97.5954 23.3677 95.671 12.3341 89.4202C2.99014 84.1265 -21.275 66.53 -21.275 32.2371C-21.275 -1.29297 2.07358 -18.8283 10.8446 -24.1092C21.551 -30.5553 31.9269 -32.8151 38.6007 -33.72L47.2 29.6996ZM47.4 34.6996L55.5614 -28.7779C62.0744 -27.9405 71.1817 -26.2591 80.681 -22.5907C87.8919 -19.8059 107.621 -11.3606 119.968 10.2467L64.4 41.9996L8.83244 73.7525C14.2015 83.1484 20.8814 88.7539 25.033 91.6578C29.258 94.613 32.8043 96.1334 34.569 96.8149C36.4795 97.5527 37.8172 97.8839 38.3424 98.0045C38.9274 98.1389 39.2248 98.1753 39.2386 98.1771L47.4 34.6996ZM64.4 41.9996L118.817 8.31291C128.487 23.9336 130.206 39.9377 130.471 48.6611L66.5 50.5996L2.52936 52.5381C2.59219 54.6114 2.8498 57.3416 3.62909 60.6257C4.33118 63.5845 5.97309 69.2087 9.98303 75.6863L64.4 41.9996ZM66.5 50.5996H130.5C130.5 61.4324 128.513 76.6833 119.045 91.9427C110.022 106.484 98.0754 114.702 90.3551 119.151L58.4 63.6996L26.4449 8.24809C24.6246 9.29706 16.7283 14.0648 10.2805 24.4565C3.3873 35.5659 2.5 45.9668 2.5 50.5996H66.5ZM58.4 63.6996L91.3277 118.579C84.7647 122.517 74.9822 127.358 61.253 129.094C53.1784 130.115 44.6584 129.783 40.7392 129.675L42.5 65.6996L44.2608 1.72384C46.9468 1.79776 48.1632 1.81307 48.7434 1.80993C49.4292 1.80621 47.8204 1.77341 45.197 2.10512C41.983 2.51147 37.7038 3.39308 32.9661 5.2181C28.6742 6.87137 25.7486 8.65425 25.4723 8.82006L58.4 63.6996ZM42.5 65.6996L41.4335 129.691L29.4335 129.491L30.5 65.4996L31.5665 1.5085L43.5665 1.7085L42.5 65.6996ZM30.5 65.4996L-33.2372 71.2939L-33.5372 67.9939L30.2 62.1996L93.9372 56.4053L94.2372 59.7053L30.5 65.4996ZM30.2 62.1996L-33.5206 68.1734L-33.8206 64.9734L29.9 58.9996L93.6206 53.0258L93.9206 56.2258L30.2 62.1996ZM29.9 58.9996V-5.00039H36.2V58.9996V123H29.9V58.9996ZM36.2 58.9996V-5.00039C39.7925 -5.00039 29.5593 -5.99178 16.9648 1.5322C9.23876 6.14774 1.43711 13.4971 -3.8908 23.8161C-8.97061 33.6547 -10 42.6947 -10 48.3996H54H118C118 57.8045 116.308 70.0195 109.844 82.5393C103.132 95.5396 93.2237 105.076 82.6102 111.417C64.2407 122.391 45.1075 123 36.2 123V58.9996ZM54 48.3996H-10C-10 53.7471 -9.06778 62.3672 -4.32614 71.8713C0.669138 81.8837 8.10265 89.2756 15.7632 94.0594C28.368 101.931 38.7635 101.025 35.2961 100.998L35.8 36.9996L36.3039 -26.9984C45.5365 -26.9257 65.032 -26.0815 83.5618 -14.5101C108.707 1.19258 118 26.7855 118 48.3996H54ZM35.8 36.9996V101H30V36.9996V-27.0004H35.8V36.9996ZM30 36.9996H-34V31.9996H30H94V36.9996H30ZM30 31.9996H-34V26.9996H30H94V31.9996H30ZM30 26.9996V-37.0004H37V26.9996V90.9996H30V26.9996ZM37 26.9996V-37.0004C36.8657 -37.0004 34.3852 -37.0204 30.6321 -36.3346C26.9786 -35.667 19.4166 -33.8579 11.0271 -28.4862C1.66409 -22.4912 -6.21299 -13.6476 -11.051 -2.77634C-15.437 7.07925 -16 15.6149 -16 19.9996H48H112C112 35.8111 106.362 62.4621 80.0479 79.3104C61.6161 91.1121 42.4075 90.9996 37 90.9996V26.9996ZM48 19.9996H-16C-16 23.4774 -15.6683 32.5346 -10.8354 43.1488C-5.27608 55.3583 3.88845 64.5658 14.0281 70.2652C22.6509 75.112 30.0284 76.3355 32.4177 76.6798C35.1197 77.0691 36.5584 76.9996 35.5 76.9996V12.9996V-51.0004C39.2475 -51.0004 58.4647 -51.5922 76.7469 -41.316C88.799 -34.5415 99.2698 -23.9216 105.657 -9.89335C111.318 2.5396 112 13.8218 112 19.9996H48ZM35.5 12.9996V76.9996H27V12.9996V-51.0004H35.5V12.9996ZM27 12.9996H91V18.4996H27H-37V12.9996H27ZM27 18.4996H91V23.9996H27H-37V18.4996H27ZM27 23.9996V87.9996H23.5V23.9996V-40.0004H27V23.9996ZM23.5 23.9996V87.9996H20V23.9996V-40.0004H23.5V23.9996ZM20 23.9996H-44V14.9996H20H84V23.9996H20ZM20 14.9996H-44V7.59961H20H84V14.9996H20ZM20 7.59961V-56.4004H32.8V7.59961V71.5996H20V7.59961ZM32.8 7.59961V-56.4004C34.8044 -56.4004 34.9828 -56.4801 39.3608 -56.7389C40.9613 -56.8335 45.2541 -57.0906 50.2407 -56.7929C55.6144 -56.4721 63.987 -55.4203 73.3705 -51.5375L48.9 7.59961L24.4295 66.7367C32.363 70.0195 39.1231 70.7713 42.6125 70.9796C44.3687 71.0845 45.6803 71.0704 46.2781 71.0575C46.8734 71.0447 47.1802 71.0224 46.9142 71.0381C46.2172 71.0793 39.7956 71.5996 32.8 71.5996V7.59961ZM44.5 19.9996H108.5V23.4996H44.5H-19.5V19.9996H44.5ZM44.5 23.4996L47.1643 87.4441L39.9643 87.7441L37.3 23.7996L34.6357 -40.1449L41.8357 -40.4449L44.5 23.4996ZM37.3 23.7996L39.9279 87.7456L32.6279 88.0456L30 24.0996L27.3721 -39.8464L34.6721 -40.1464L37.3 23.7996ZM30 24.0996H-34V19.9996H30H94V24.0996H30ZM30 19.9996H-34V15.8996H30H94V19.9996H30ZM30 15.8996L32.6279 -48.0464L39.9279 -47.7464L37.3 16.1996L34.6721 80.1456L27.3721 79.8456L30 15.8996ZM37.3 16.1996L39.9643 -47.7449L47.1643 -47.4449L44.5 16.4996L41.8357 80.4441L34.6357 80.1441L37.3 16.1996ZM44.5 16.4996H108.5V19.9996H44.5H-19.5V16.4996H44.5ZM17 31.9996H81V36.9996H17H-47V31.9996H17ZM17 36.9996V101H12.5V36.9996V-27.0004H17V36.9996ZM12.5 36.9996V101C12.2557 101 -1.93438 101.661 -16.5733 95.3874C-40.2502 85.2402 -49.63 65.8469 -52.954 56.8248L7.1 34.6996L67.154 12.5745C66.235 10.0801 63.5936 3.31889 57.8054 -3.96308C51.198 -12.2756 42.8139 -18.4208 33.8483 -22.2632C26.0739 -25.5951 19.5626 -26.4517 16.9418 -26.7313C15.4172 -26.894 14.2441 -26.9523 13.61 -26.9761C12.9601 -27.0005 12.546 -27.0004 12.5 -27.0004V36.9996ZM7.1 34.6996L-52.5991 57.7652C-59.4599 40.0079 -61.0747 13.0661 -42.8697 -10.2194C-25.9149 -31.9057 -2.12561 -37.0004 13.1 -37.0004V26.9996V90.9996C23.2256 90.9996 43.1649 87.5549 57.9697 68.6186C74.0247 48.0831 71.9599 24.9914 66.7991 11.6341L7.1 34.6996ZM13.1 26.9996V-37.0004H17V26.9996V90.9996H13.1V26.9996ZM17 26.9996H81V31.9996H17H-47V26.9996H17ZM27 41.4996H91V55.9996H27H-37V41.4996H27ZM27 55.9996V120H23.5V55.9996V-8.00039H27V55.9996ZM23.5 55.9996V120H20V55.9996V-8.00039H23.5V55.9996ZM20 55.9996H-44V47.9996H20H84V55.9996H20ZM20 47.9996H-44C-44 46.5345 -44.0102 43.6581 -43.9173 41.0975C-43.8799 40.0652 -43.7606 31.2839 -40.6126 21.4769C-38.7212 15.5844 -35.0046 6.82435 -27.4778 -1.75617C-19.44 -10.9193 -9.84547 -16.7132 -0.754041 -20.0156C7.31525 -22.9468 14.1312 -23.5954 17.0823 -23.8108C18.7678 -23.9339 20.1466 -23.9713 20.9501 -23.9862C21.7418 -24.001 22.4152 -24.0004 22.6 -24.0004V39.9996V104C21.9382 104 23.9536 104.028 26.4013 103.849C28.8547 103.67 35.2441 103.091 42.9478 100.293C51.6736 97.1233 60.9634 91.5256 68.7473 82.6519C76.0202 74.3608 79.5337 65.9836 81.2626 60.5973C82.9321 55.3964 83.4961 51.2108 83.7056 49.4157C83.9374 47.4298 83.9884 46.0163 83.9986 45.7361C84.0102 45.4161 84 45.5147 84 47.9996H20ZM22.6 39.9996V-24.0004C11.845 -24.0004 -5.80897 -20.8511 -20.7783 -6.02132C-36.4521 9.50633 -41.2068 30.1121 -38.6599 47.4756C-33.7903 80.674 -7.03521 96.2398 12.1199 99.2328L22 36L31.8801 -27.2328C54.2352 -23.7398 82.8403 -6.17417 87.9849 28.899C90.6693 47.1999 85.6584 68.7118 69.3064 84.9113C53.659 100.413 34.905 104 22.6 104V39.9996ZM22 36L12.0184 99.2168C12.9899 99.3702 14.0128 99.494 13.3027 99.4037C13.1237 99.381 12.3528 99.2839 11.4101 99.1394C10.4547 98.9929 8.7972 98.7197 6.77061 98.2615C2.95273 97.3982 -4.70634 95.3429 -13.1153 90.1458C-22.4028 84.4056 -29.8074 76.5914 -34.9974 67.6924C-43.2982 53.4592 -43.737 39.6671 -43.8009 38.7457C-44.0227 35.5525 -44 32.4543 -44 31.8996H20H84C84 33.495 84.0352 31.9468 83.8916 29.8787C83.8088 28.6867 83.5686 25.6576 82.7517 21.788C81.949 17.986 80.113 10.9928 75.5724 3.20724C70.5136 -5.46675 63.27 -13.1184 54.1797 -18.7366C45.9681 -23.8119 38.5426 -25.7858 35.0013 -26.5866C33.113 -27.0136 31.6044 -27.2601 30.8097 -27.382C30.3824 -27.4475 30.039 -27.4953 29.8267 -27.5241C29.6173 -27.5524 29.4642 -27.5719 29.4344 -27.5757C29.0934 -27.619 30.5351 -27.4452 31.9816 -27.2168L22 36ZM20 31.8996H-44V26.9996H20H84V31.8996H20ZM20 26.9996V-37.0004H23.5V26.9996V90.9996H20V26.9996ZM23.5 26.9996V-37.0004H27V26.9996V90.9996H23.5V26.9996ZM27 26.9996H91V41.4996H27H-37V26.9996H27ZM48.8 42.3996L90.8567 -5.84184C111.322 12 117.051 36.7724 114.847 56.3121C112.66 75.6914 101.24 100.4 74.4647 112.895L47.4 54.8996L20.3353 -3.09611C-1.94028 7.29918 -10.7102 27.4578 -12.3465 41.9621C-14.001 56.6268 -9.82234 76.1992 6.74335 90.6411L48.8 42.3996ZM47.4 54.8996L72.6108 113.725C62.0992 118.23 51.7229 119.15 50.5789 119.278C46.4176 119.743 41.9167 120 37.5 120V55.9996V-8.00039C37.1833 -8.00039 36.9324 -7.99411 36.3461 -7.9285C36.0554 -7.89599 35.0767 -7.78202 33.5961 -7.49346C32.8435 -7.34678 31.5874 -7.08281 29.9986 -6.65221C28.6205 -6.27869 25.7409 -5.44785 22.1892 -3.92567L47.4 54.8996ZM37.5 55.9996V120H30V55.9996V-8.00039H37.5V55.9996ZM30 55.9996H-34V47.8996H30H94V55.9996H30ZM30 47.8996H-34V39.7996H30H94V47.8996H30ZM30 39.7996L32.2843 -24.1596L40.6843 -23.8596L38.4 40.0996L36.1157 104.059L27.7157 103.759L30 39.7996ZM38.4 40.0996L41.3967 -23.8302C44.7253 -23.6742 51.681 -23.3355 59.0129 -21.744C67.8166 -19.8332 81.6979 -15.2121 94.0548 -2.85522L48.8 42.3996L3.54517 87.6544C14.4021 98.5113 26.2834 102.132 31.8621 103.343C35.969 104.235 38.4748 104.173 35.4033 104.029L38.4 40.0996Z" fill="black" mask="url(#path-12-inside-2_2137_354)"/>
</g>
<g filter="url(#filter1_f_2137_354)">
<path d="M76.4155 19.6271C71.4155 21.7271 70.3155 27.2271 74.9155 27.2271C77.1155 27.2271 77.4155 26.8271 77.4155 23.7271C77.4155 20.3271 77.5155 20.2271 81.3155 20.3271C86.7155 20.5271 88.6155 23.2271 93.4155 36.9271C99.8155 55.7271 100.515 57.2271 102.615 57.5271C104.315 57.8271 108.7 47.1 113 35C115.8 27.3 114.315 29.7271 113.915 29.7271C113.515 29.7271 111.415 34.7271 109.315 40.7271C107.315 46.8271 105.215 52.0271 104.815 52.3271C104.415 52.5271 103.615 51.3271 103.115 49.5271C101.115 42.8271 96.1155 29.7271 94.3155 26.6271C93.2155 24.8271 91.2155 22.5271 89.8155 21.4271C86.8155 19.3271 79.5155 18.2271 76.4155 19.6271Z" fill="black"/>
<path d="M79.415 43.7266V57.7266H82.215H84.915V43.7266V29.7266H82.215H79.415V43.7266Z" fill="black"/>
<path d="M120.915 43.7266V57.7266L130.215 57.5266C138.415 57.3266 139.4 56.9266 133.5 56.6266H125.915V50.2266V43.7266L130 44C132.2 44 133.915 43.4266 133.915 42.9266C133.915 42.5266 131.2 41.8 129 42L125.915 42.9266V36.7266V30.5266L132 30.999C135.3 31.099 137.915 30.9266 137.915 30.4266C137.915 30.0266 134.115 29.7266 129.415 29.7266H120.915V43.7266Z" fill="black"/>
<path d="M143.915 43.7266V57.7266H146.915C149.815 57.7266 149.815 57.6266 150.115 51.4266C150.315 48.0266 150.315 41.7266 150.115 37.4266L149.715 29.7266H146.815H143.915V43.7266Z" fill="black"/>
<path d="M158.915 31.6266C158.915 32.6266 157.015 35.8266 154.715 38.7266C151.415 42.9266 150.815 44.1266 152.015 44.7266C152.815 45.2266 154.815 48.3266 156.415 51.6266C158.915 56.9266 159.615 57.7266 162.015 57.7266H164.815L160.415 49.4266C157.915 44.9266 155.915 40.6266 155.915 39.9266C155.915 39.1266 157.515 36.5266 159.515 34.1266C162.815 30.1266 163.015 29.7266 161.015 29.7266C159.615 29.7266 158.915 30.3266 158.915 31.6266Z" fill="black"/>
<path d="M190.915 42.1266C190.915 52.2266 190.615 54.9266 189.315 56.2266C186.915 58.5266 185.415 57.5266 185.415 53.6266C185.415 50.6266 185.115 50.2266 182.915 50.2266C181.115 50.2266 180.315 50.8266 180.115 52.5266C179.415 57.4266 186.115 60.2266 191.815 57.3266C195.515 55.3266 195.815 54.2266 196.115 40.4266L196.415 29.7266H193.715H190.915V42.1266Z" fill="black"/>
<path d="M234.515 31.8269C232.715 33.2269 231.915 34.8269 231.915 37.1269C231.915 40.9269 234.215 43.6269 240.415 47.2269C245.915 50.5269 245.315 52.9 242.115 55.5C239.415 57.6 237.5 56.7 234.5 54C233.5 53.1 231.915 53.9269 231.915 54.4269C231.915 55.0269 233.515 56.2269 235.515 57.2269C242.315 60.4269 249.915 56.8269 249.915 50.3269C249.915 46.7269 248.615 45.2269 242.115 41.6269C235.515 38.0269 235.115 31.2269 241.515 31.2269C244.115 31.2269 244.415 31.5269 244.115 34.3269C243.915 36.4269 244.315 37.6269 245.415 38.0269C249.815 39.7269 251.715 34.1269 247.715 31.3269C244.515 29.0269 237.715 29.3269 234.515 31.8269Z" fill="black"/>
<path d="M256.415 43.7266V57.7266H259.215C261.915 57.7266 261.915 57.7266 261.915 50.7266V43.6266L267.715 43.9266L273.415 44.2266L273.715 50.9266C274.015 57.4266 274.115 57.7266 276.415 57.7266H278.915V43.7266V29.7266H276.215H273.415L273.715 36.2266L274.115 42.7266H268.015H261.915V36.2266C261.915 29.8266 261.915 29.7266 259.215 29.7266H256.415V43.7266Z" fill="black"/>
</g>
<g filter="url(#filter2_d_2137_354)">
<path d="M213.254 30.037C210.072 30.5762 207.798 31.8383 205.705 34.2522C204.098 36.1024 202.956 38.4183 202.364 41.0528C202.025 42.5599 201.898 45.1331 202.089 46.5913C202.818 52.093 205.906 56.492 210.347 58.3913C210.833 58.5996 211.404 58.7956 211.615 58.8201C211.816 58.8569 212.197 58.9427 212.461 59.0162C213.022 59.1877 215.528 59.2367 216.373 59.0897C219.197 58.6241 221.332 57.3987 223.415 55.0216C226.016 52.0563 227.201 48.8091 227.211 44.6062C227.211 41.3959 226.556 38.9084 225.054 36.3597C223.225 33.2596 220.37 31.054 217.188 30.2576C216.448 30.0738 213.889 29.9267 213.254 30.037ZM217.219 36.2495C220.857 37.4503 223.426 40.4891 224.43 44.7655C224.61 45.5375 224.653 46.0644 224.653 47.6083C224.653 49.3238 224.631 49.6179 224.367 50.6104C223.881 52.4974 223.331 53.686 222.358 55.0216C221.343 56.394 220.349 57.313 219.08 58.0114C217.938 58.6608 217.484 58.7834 218.509 58.1707C220.201 57.1659 221.491 55.6588 222.337 53.6737C222.961 52.2278 223.141 51.3946 223.215 49.6791C223.394 45.464 221.491 41.8615 218.139 40.0725C217.114 39.5211 216.543 39.3986 217.484 39.9255C218.975 40.7587 219.947 41.8492 220.709 43.4667C221.301 44.7533 221.491 45.6968 221.48 47.302C221.48 48.4538 221.438 48.7969 221.184 49.6791C220.042 53.6002 216.627 55.8671 213.149 55.0216C211.214 54.556 209.342 52.865 208.454 50.7942C206.762 46.7996 208.105 42.0698 211.531 40.0725C212.694 39.3863 212.282 39.4476 210.981 40.146C209.173 41.1263 207.714 42.7927 206.857 44.8268C206.191 46.432 206.064 47.1549 206.064 49.2625C206.064 50.8432 206.096 51.223 206.308 52.0195C207.058 54.7765 208.613 56.9209 210.801 58.2075C211.341 58.526 211.658 58.7466 211.51 58.6976C210.865 58.5015 209.057 57.362 208.317 56.688C206.741 55.2421 205.377 52.7915 204.827 50.4266C204.626 49.5443 204.595 49.091 204.595 47.4858C204.605 45.2067 204.785 44.2754 205.578 42.4006C207.037 38.9574 209.892 36.5558 213.254 35.9309C213.434 35.8941 214.195 35.8819 214.946 35.9064C216.003 35.9431 216.532 36.0166 217.219 36.2495Z" fill="black"/>
</g>
<path d="M288.464 49.011C287.202 49.1806 286.3 49.5775 285.47 50.3368C284.832 50.9188 284.379 51.6473 284.144 52.4759C284.01 52.95 283.96 53.7594 284.035 54.218C284.325 55.9486 285.549 57.3323 287.311 57.9297C287.504 57.9952 287.73 58.0569 287.814 58.0646C287.894 58.0761 288.045 58.1031 288.149 58.1262C288.372 58.1802 289.366 58.1956 289.701 58.1494C290.821 58.0029 291.668 57.6175 292.494 56.8698C293.526 55.937 293.996 54.9157 294 53.5937C294 52.5839 293.74 51.8014 293.144 50.9998C292.419 50.0246 291.287 49.3309 290.024 49.0803C289.731 49.0225 288.716 48.9763 288.464 49.011ZM290.037 50.9651C291.479 51.3428 292.499 52.2986 292.897 53.6438C292.968 53.8866 292.985 54.0523 292.985 54.538C292.985 55.0775 292.977 55.17 292.872 55.4822C292.679 56.0758 292.461 56.4497 292.075 56.8698C291.672 57.3014 291.278 57.5905 290.775 57.8102C290.322 58.0145 290.142 58.053 290.548 57.8603C291.219 57.5443 291.731 57.0702 292.067 56.4458C292.314 55.991 292.385 55.7289 292.415 55.1893C292.486 53.8635 291.731 52.7303 290.402 52.1676C289.995 51.9942 289.768 51.9556 290.142 52.1213C290.733 52.3834 291.119 52.7265 291.421 53.2352C291.656 53.6399 291.731 53.9367 291.727 54.4416C291.727 54.8039 291.71 54.9118 291.609 55.1893C291.157 56.4227 289.802 57.1357 288.422 56.8698C287.655 56.7233 286.912 56.1914 286.56 55.5401C285.889 54.2836 286.422 52.7958 287.78 52.1676C288.242 51.9518 288.078 51.971 287.562 52.1907C286.845 52.4991 286.266 53.0232 285.927 53.663C285.662 54.1679 285.612 54.3953 285.612 55.0583C285.612 55.5555 285.625 55.675 285.709 55.9255C286.006 56.7927 286.623 57.4672 287.491 57.8719C287.705 57.9721 287.831 58.0415 287.772 58.026C287.516 57.9644 286.799 57.6059 286.505 57.3939C285.881 56.9391 285.34 56.1683 285.121 55.4244C285.042 55.1469 285.029 55.0043 285.029 54.4994C285.033 53.7825 285.105 53.4896 285.419 52.8999C285.998 51.8169 287.13 51.0614 288.464 50.8649C288.535 50.8533 288.837 50.8494 289.135 50.8572C289.554 50.8687 289.764 50.8918 290.037 50.9651Z" fill="black"/>
<g filter="url(#filter3_d_2137_354)">
<line x1="96" y1="22.499" x2="291" y2="22.499" stroke="black" stroke-width="3"/>
</g>
<defs>
<filter id="filter0_f_2137_354" x="0" y="0" width="73.2998" height="72.0996" filterUnits="userSpaceOnUse" color-interpolation-filters="sRGB">
<feFlood flood-opacity="0" result="BackgroundImageFix"/>
<feBlend mode="normal" in="SourceGraphic" in2="BackgroundImageFix" result="shape"/>
<feGaussianBlur stdDeviation="2" result="effect1_foregroundBlur_2137_354"/>
</filter>
<filter id="filter1_f_2137_354" x="68" y="15.001" width="214.915" height="47.5" filterUnits="userSpaceOnUse" color-interpolation-filters="sRGB">
<feFlood flood-opacity="0" result="BackgroundImageFix"/>
<feBlend mode="normal" in="SourceGraphic" in2="BackgroundImageFix" result="shape"/>
<feGaussianBlur stdDeviation="2" result="effect1_foregroundBlur_2137_354"/>
</filter>
<filter id="filter2_d_2137_354" x="198" y="29.999" width="33.2109" height="37.1777" filterUnits="userSpaceOnUse" color-interpolation-filters="sRGB">
<feFlood flood-opacity="0" result="BackgroundImageFix"/>
<feColorMatrix in="SourceAlpha" type="matrix" values="0 0 0 0 0 0 0 0 0 0 0 0 0 0 0 0 0 0 127 0" result="hardAlpha"/>
<feOffset dy="4"/>
<feGaussianBlur stdDeviation="2"/>
<feComposite in2="hardAlpha" operator="out"/>
<feColorMatrix type="matrix" values="0 0 0 0 0 0 0 0 0 0 0 0 0 0 0 0 0 0 0.25 0"/>
<feBlend mode="normal" in2="BackgroundImageFix" result="effect1_dropShadow_2137_354"/>
<feBlend mode="normal" in="SourceGraphic" in2="effect1_dropShadow_2137_354" result="shape"/>
</filter>
<filter id="filter3_d_2137_354" x="92" y="20.999" width="203" height="11" filterUnits="userSpaceOnUse" color-interpolation-filters="sRGB">
<feFlood flood-opacity="0" result="BackgroundImageFix"/>
<feColorMatrix in="SourceAlpha" type="matrix" values="0 0 0 0 0 0 0 0 0 0 0 0 0 0 0 0 0 0 127 0" result="hardAlpha"/>
<feOffset dy="4"/>
<feGaussianBlur stdDeviation="2"/>
<feComposite in2="hardAlpha" operator="out"/>
<feColorMatrix type="matrix" values="0 0 0 0 0 0 0 0 0 0 0 0 0 0 0 0 0 0 0.25 0"/>
<feBlend mode="normal" in2="BackgroundImageFix" result="effect1_dropShadow_2137_354"/>
<feBlend mode="normal" in="SourceGraphic" in2="effect1_dropShadow_2137_354" result="shape"/>
</filter>
</defs>
</svg>
